<?xml version="1.0" encoding="iso-8859-1"?>
<!-- Generator: Adobe Illustrator 17.1.0, SVG Export Plug-In . SVG Version: 6.00 Build 0)  -->
<!DOCTYPE svg PUBLIC "-//W3C//DTD SVG 1.1//EN" "http://www.w3.org/Graphics/SVG/1.1/DTD/svg11.dtd">
<svg version="1.1" id="&#x30EC;&#x30A4;&#x30E4;&#x30FC;_1"
	 xmlns="http://www.w3.org/2000/svg" xmlns:xlink="http://www.w3.org/1999/xlink" x="0px" y="0px" viewBox="0 0 1792 1792"
	 style="enable-background:new 0 0 1792 1792;" xml:space="preserve">
<circle style="fill:#FFFFFF;" cx="897" cy="896" r="704"/>
<path style="fill:#D8635F;" d="M896,64C436.499,64,64,436.499,64,896s372.499,832,832,832s832-372.499,832-832S1355.501,64,896,64z
	 M896,1536c-353.462,0-640-286.538-640-640s286.538-640,640-640s640,286.538,640,640S1249.462,1536,896,1536z"/>
<path style="fill:#25569E;" d="M961.28,448h-2.56C888.734,448,832,504.734,832,574.72V832H632.72
	C562.734,832,506,888.734,506,958.72v2.561c0,69.985,56.734,126.72,126.72,126.72H832h122h13.673
	c66.455,0,120.327-53.872,120.327-120.327V574.72C1088,504.734,1031.266,448,961.28,448z"/>
</svg>
