<?xml version="1.0" encoding="iso-8859-1"?>
<!-- Generator: Adobe Illustrator 17.1.0, SVG Export Plug-In . SVG Version: 6.00 Build 0)  -->
<!DOCTYPE svg PUBLIC "-//W3C//DTD SVG 1.1//EN" "http://www.w3.org/Graphics/SVG/1.1/DTD/svg11.dtd">
<svg version="1.1" id="&#x30EC;&#x30A4;&#x30E4;&#x30FC;_1"
	 xmlns="http://www.w3.org/2000/svg" xmlns:xlink="http://www.w3.org/1999/xlink" x="0px" y="0px" viewBox="0 0 1792 1792"
	 style="enable-background:new 0 0 1792 1792;" xml:space="preserve">
<circle style="fill:#FFFFFF;" cx="896" cy="896" r="896"/>
<path style="fill:#DB6F6B;" d="M896,0C401.153,0,0,401.153,0,896s401.153,896,896,896s896-401.153,896-896S1390.847,0,896,0z
	 M896,1666c-424.155,0-768-343.845-768-768s343.845-768,768-768s768,343.845,768,768S1320.155,1666,896,1666z"/>
<path style="fill:#5FA4D8;" d="M1021.594,881.093c120.22-49.998,204.576-167.075,204.576-303.531
	c0-181.924-149.943-329.403-334.906-329.403S556.357,395.638,556.357,577.562c0,137.894,86.146,255.999,208.392,305.089
	C574.839,928.377,436,1073.942,436,1246.452v149.676c0,3.962,3.866,6.873,8.634,6.873h903.721c4.769,0,8.645-2.911,8.645-6.873
	v-149.676C1357,1071.934,1214.906,924.989,1021.594,881.093z"/>
</svg>
