<?xml version="1.0" encoding="iso-8859-1"?>
<!-- Generator: Adobe Illustrator 17.1.0, SVG Export Plug-In . SVG Version: 6.00 Build 0)  -->
<!DOCTYPE svg PUBLIC "-//W3C//DTD SVG 1.1//EN" "http://www.w3.org/Graphics/SVG/1.1/DTD/svg11.dtd">
<svg version="1.1" id="&#x30EC;&#x30A4;&#x30E4;&#x30FC;_1"
	 xmlns="http://www.w3.org/2000/svg" xmlns:xlink="http://www.w3.org/1999/xlink" x="0px" y="0px" viewBox="0 0 1792 1792"
	 style="enable-background:new 0 0 1792 1792;" xml:space="preserve">
<path style="fill:#2980B9;" d="M1411.536,320H128.464C57.515,320,0,377.515,0,448.464v898.072C0,1417.485,57.515,1475,128.464,1475
	H259v252.367c0,53.05,60.42,83.428,102.982,51.762L770.707,1475h640.829c70.949,0,128.464-57.515,128.464-128.464V448.464
	C1540,377.515,1482.485,320,1411.536,320z"/>
<path style="fill:#FFFFFF;" d="M844.214,932.639c103.287-29.606,178.922-124.746,178.922-237.548
	C1023.136,558.626,912.533,448,776.068,448s-247.08,110.626-247.08,247.091c0,112.801,75.596,207.942,178.883,237.548
	C604.703,956.572,529,1035.429,529,1129.032v195.099c0,7.108,6.914,12.869,15.443,12.869h463.296
	c8.529,0,15.261-5.762,15.261-12.869v-195.099C1023,1035.429,947.382,956.572,844.214,932.639z"/>
<path style="fill:#F1C40F;" d="M1715.378,696.679c-13.392-21.862-17.722-47.524-11.463-71.496l69.854-267.561
	c0.925-3.544,2.195-6.972,3.555-10.368c40.464-101.035-0.938-216.647-92.795-277.8l1.838-4.299
	c9.911-23.183-2.168-50.46-26.641-60.923l-0.895-0.383c-24.473-10.463-52.538-0.348-62.449,22.835l-1.838,4.299
	c-107.676-24.153-219.86,25.798-264.942,124.858c-1.516,3.33-3.175,6.592-5.098,9.709l-145.131,235.378
	c-13.005,21.087-34.534,35.694-59.591,41.118c-28.302,6.127-29.111,25.157-39.039,48.378
	c-26.358,61.653,92.555,171.606,265.596,245.585s334.687,83.973,361.045,22.32C1717.312,735.108,1730.504,721.372,1715.378,696.679z
	"/>
<ellipse transform="matrix(-0.9215 -0.3884 0.3884 -0.9215 2414.9968 1771.9594)" style="fill:#D35400;" cx="1386.562" cy="641.935" rx="292.072" ry="92.225"/>
<g>
	<path style="fill:#F39C12;" d="M1628.76,693.964c-19.781,46.937-75.983,68.059-125.532,47.178
		c-49.549-20.881-73.681-75.859-53.9-122.796c6.208-14.731,16.005-26.917,28.057-36.063
		c68.057,34.169,122.46,72.703,153.168,107.066C1630,690.895,1629.404,692.434,1628.76,693.964z"/>
</g>
</svg>
