<?xml version="1.0" encoding="iso-8859-1"?>
<!-- Generator: Adobe Illustrator 17.1.0, SVG Export Plug-In . SVG Version: 6.00 Build 0)  -->
<!DOCTYPE svg PUBLIC "-//W3C//DTD SVG 1.1//EN" "http://www.w3.org/Graphics/SVG/1.1/DTD/svg11.dtd">
<svg version="1.1" id="&#x30EC;&#x30A4;&#x30E4;&#x30FC;_1"
	 xmlns="http://www.w3.org/2000/svg" xmlns:xlink="http://www.w3.org/1999/xlink" x="0px" y="0px" viewBox="0 0 1792 1792"
	 style="enable-background:new 0 0 1792 1792;" xml:space="preserve">
<path style="fill:#BDC3C7;" d="M1210.452,0h-123L1087-0.452V0H816H383h-2.55C241.026,0,128,113.026,128,252.45v1287.1
	C128,1678.974,241.026,1792,380.45,1792H383h433h594.55c139.424,0,252.45-113.026,252.45-252.45V452.548L1210.452,0z"/>
<g>
	<path style="fill:#7F8C8D;" d="M1209-0.452v327.249c0,69.7,56.503,126.203,126.203,126.203h327.249L1209-0.452z"/>
</g>
<g>
	<path style="fill:#FFFFFF;" d="M617.586,1270.056c-18.015,18.534-38.282,32.669-60.8,42.415
		c-22.519,9.734-46.224,14.613-71.095,14.613l-158.274,0.713c-8.153,0-15.019-3.097-20.588-9.268
		c-5.58-6.182-8.364-13.789-8.364-22.811V628.486c0-9.022,2.785-16.629,8.364-22.811c5.569-6.171,12.436-9.267,20.588-9.267h158.274
		c24.871,0,48.576,4.99,71.095,14.97s42.786,24.237,60.8,42.771c18.015,19.013,31.737,40.521,41.177,64.513
		c9.43,24.003,14.155,49.543,14.155,76.632v333.616c0,27.089-4.725,52.629-14.155,76.632
		C649.323,1229.534,635.601,1251.042,617.586,1270.056z M615.656,794.737c0-18.556-3.438-36.032-10.294-52.45
		c-6.866-16.418-16.085-30.809-27.666-43.184c-11.581-12.363-25.313-22.121-41.177-29.26c-15.874-7.128-32.813-10.704-50.828-10.704
		H355.726v605.213h129.965c18.015,0,34.954-3.575,50.828-10.704c15.863-7.14,29.596-16.896,41.177-29.26
		c11.581-12.375,20.8-26.766,27.666-43.173c6.856-16.429,10.294-33.905,10.294-52.461V794.737z"/>
	<path style="fill:#FFFFFF;" d="M1062.168,1270.769c-17.592,18.055-37.316,32.078-59.191,42.059
		c-21.875,9.979-45.037,14.97-69.486,14.97s-47.611-4.99-69.486-14.97c-21.875-9.98-41.609-24.004-59.192-42.059
		c-18.015-18.534-31.637-39.563-40.855-63.088c-9.229-23.524-13.833-48.362-13.833-74.493s4.604-50.969,13.833-74.493
		c9.219-23.524,22.841-44.554,40.855-63.088c17.583-18.055,37.317-32.078,59.192-42.059c21.875-9.979,45.037-14.97,69.486-14.97
		s47.611,4.99,69.486,14.97c21.875,9.98,41.6,24.004,59.191,42.059c18.016,18.534,31.627,39.563,40.855,63.088
		c9.219,23.524,13.834,48.362,13.834,74.493s-4.615,50.969-13.834,74.493C1093.795,1231.205,1080.184,1252.234,1062.168,1270.769z
		 M933.49,1001.31c-17.594,0-34.1,3.431-49.542,10.28c-15.441,6.861-28.953,16.307-40.534,28.358s-20.699,26.119-27.344,42.192
		c-6.655,16.072-9.972,33.092-9.972,51.047s3.317,34.975,9.972,51.059c6.645,16.062,15.763,30.129,27.344,42.181
		s25.092,21.497,40.534,28.358c15.442,6.85,31.948,10.28,49.542,10.28c17.582,0,34.1-3.431,49.541-10.28
		c15.441-6.861,28.953-16.307,40.533-28.358c11.582-12.052,20.689-26.119,27.344-42.181c6.646-16.084,9.973-33.104,9.973-51.059
		s-3.326-34.975-9.973-51.047c-6.654-16.073-15.762-30.141-27.344-42.192c-11.58-12.052-25.092-21.497-40.533-28.358
		C967.59,1004.74,951.072,1001.31,933.49,1001.31z"/>
	<path style="fill:#FFFFFF;" d="M1450.774,1281.65c-16.306,14.903-34.532,26.32-54.688,34.251
		c-20.166,7.931-41.177,11.896-63.052,11.896c-24.449,0-47.611-4.99-69.486-14.97c-21.876-9.98-41.609-24.004-59.192-42.059
		c-18.015-18.534-31.637-39.563-40.855-63.088s-13.833-48.362-13.833-74.493s4.614-50.969,13.833-74.493
		s22.841-44.554,40.855-63.088c17.583-18.055,37.316-32.078,59.192-42.059c21.875-9.979,45.037-14.97,69.486-14.97
		c21.875,0,42.886,3.965,63.052,11.896c20.156,7.931,38.383,19.348,54.688,34.251c6.002,5.29,9.329,12.229,9.973,20.817
		s-1.397,16.206-6.112,22.855c-4.725,6.661-10.938,10.459-18.658,11.406c-7.721,0.958-14.587-1.181-20.589-6.416
		c-11.158-10.447-23.916-18.411-38.281-23.881c-14.376-5.457-29.063-8.197-44.072-8.197c-17.593,0-34.101,3.431-49.542,10.28
		c-15.441,6.861-28.952,16.307-40.533,28.358s-20.699,26.119-27.344,42.192c-6.655,16.072-9.973,33.092-9.973,51.047
		s3.317,34.975,9.973,51.059c6.645,16.062,15.763,30.129,27.344,42.181s25.092,21.497,40.533,28.358
		c15.441,6.85,31.949,10.28,49.542,10.28c15.009,0,29.696-2.74,44.072-8.197c14.365-5.47,27.123-13.434,38.281-23.881
		c6.002-5.235,12.868-7.374,20.589-6.416c7.721,0.947,13.934,4.745,18.658,11.406c4.715,6.649,6.756,14.268,6.112,22.866
		C1460.104,1269.421,1456.776,1276.36,1450.774,1281.65z"/>
	<path style="fill:#FFFFFF;" d="M1554.995,1324.232c-9.008,0-16.839-3.687-23.483-11.049c-6.655-7.374-9.973-16.039-9.973-26.02
		c0-9.979,3.317-18.534,9.973-25.663c6.645-7.128,14.476-10.692,23.483-10.692s16.729,3.564,23.162,10.692
		c6.434,7.129,9.651,15.684,9.651,25.663c0,9.98-3.218,18.646-9.651,26.02C1571.724,1320.546,1564.003,1324.232,1554.995,1324.232z"
		/>
</g>
</svg>
