<?xml version="1.0" encoding="iso-8859-1"?>
<!-- Generator: Adobe Illustrator 17.1.0, SVG Export Plug-In . SVG Version: 6.00 Build 0)  -->
<!DOCTYPE svg PUBLIC "-//W3C//DTD SVG 1.1//EN" "http://www.w3.org/Graphics/SVG/1.1/DTD/svg11.dtd">
<svg version="1.1" id="&#x30EC;&#x30A4;&#x30E4;&#x30FC;_1"
	 xmlns="http://www.w3.org/2000/svg" xmlns:xlink="http://www.w3.org/1999/xlink" x="0px" y="0px" viewBox="0 0 1792 1792"
	 style="enable-background:new 0 0 1792 1792;" xml:space="preserve">
<polygon style="fill:#FFFFFF;" points="1472,1600 320,1600 320,192 1152,192 1472,512 "/>
<path style="fill:#DB6BC1;" d="M1152,0H960H255.749C185.195,0,128,57.195,128,127.749v1536.501
	C128,1734.805,185.195,1792,255.749,1792h1280.501c70.554,0,127.749-57.195,127.749-127.749V704V512 M1472,1472.251V1600h-127.749
	H447.749H320v-127.749V319.749V192h127.749H960v383.141C960,646.308,1017.692,704,1088.859,704H1152h320V1472.251z M1408,512h-256
	V256"/>
</svg>
