<?xml version="1.0" encoding="utf-8"?>
<!-- Generator: Adobe Illustrator 17.1.0, SVG Export Plug-In . SVG Version: 6.00 Build 0)  -->
<!DOCTYPE svg PUBLIC "-//W3C//DTD SVG 1.1//EN" "http://www.w3.org/Graphics/SVG/1.1/DTD/svg11.dtd">
<svg version="1.1" id="svg-source" xmlns="http://www.w3.org/2000/svg" xmlns:xlink="http://www.w3.org/1999/xlink" x="0px" y="0px"
	 viewBox="80 -8.1 32 32" enable-background="new 80 -8.1 32 32" xml:space="preserve">
<g id="open-letter_2_">
	<path fill="#D07C40" d="M112,3.9c-0.1-0.4-0.4-0.8-0.7-1.2l-13.2-10c-1.7-1.3-2.6-1.3-4.3,0l-13.1,10c-0.3,0.3-0.6,0.7-0.7,1.2
		l16,14C96,17.9,112,3.9,112,3.9z"/>
	<path fill="#E4E7E7" d="M84-5.1h24v20H84C84,14.9,84-5.1,84-5.1z"/>
	<path fill="#E8AB54" d="M81.7,22.6L96,11.4l14.4,11.2c0.5-0.3,1-0.7,1.3-1.2L98.2,10.8c-1.7-1.3-2.6-1.3-4.3,0L80.4,21.4
		C80.7,21.9,81.2,22.3,81.7,22.6z"/>
	<path fill="#C2C5C5" d="M88-0.1v2h16v-2H88z M88,5.9h16v-2H88V5.9z"/>
	<path fill="#E8AB54" d="M96,15.9l16-12v17c0,1.7-1.3,3-3,3H83c-1.7,0-3-1.3-3-3v-17C80,3.9,96,15.9,96,15.9z"/>
	<path fill="#F4B459" d="M109.4,23.9c0.6-0.1,1.2-0.3,1.7-0.8L96,11.4L81,23.1c0.5,0.4,1,0.7,1.7,0.8L109.4,23.9z"/>
	<path fill="#F9D7A7" d="M80.4,22.4c0.3,0.5,0.7,1,1.3,1.2L96,12.4l14.4,11.2c0.5-0.3,1-0.7,1.3-1.2L98.2,11.8
		c-1.9-1.4-2.3-1.5-4.3,0C93.9,11.8,80.4,22.4,80.4,22.4z"/>
</g>
</svg>
