<?xml version="1.0" encoding="utf-8"?>
<!-- Generator: Adobe Illustrator 17.1.0, SVG Export Plug-In . SVG Version: 6.00 Build 0)  -->
<!DOCTYPE svg PUBLIC "-//W3C//DTD SVG 1.1//EN" "http://www.w3.org/Graphics/SVG/1.1/DTD/svg11.dtd">
<svg version="1.1" xmlns="http://www.w3.org/2000/svg" xmlns:xlink="http://www.w3.org/1999/xlink" x="0px" y="0px"
	 viewBox="0 0 512 512" style="enable-background:new 0 0 512 512;" xml:space="preserve">
<g id="レイヤー_1">
</g>
<g id="レイヤー_2">
</g>
<g id="レイヤー_3">
</g>
<g id="レイヤー_4">
</g>
<g id="レイヤー_5">
</g>
<g id="レイヤー_6">
</g>
<g id="レイヤー_7">
</g>
<g id="レイヤー_8">
</g>
<g id="レイヤー_9">
</g>
<g id="レイヤー_10">
</g>
<g id="レイヤー_13">
</g>
<g id="レイヤー_14">
	<path style="fill:#29ABE2;" d="M416.023,455.283c0,12.42-10.068,22.488-22.488,22.488H22.488C10.068,477.771,0,467.703,0,455.283
		v-311.08c0-12.42,10.068-22.488,22.488-22.488h371.047c12.42,0,22.488,10.068,22.488,22.488V455.283z"/>
	<rect x="49.036" y="173.249" style="fill:#FFFFFF;" width="316.702" height="252.988"/>
	<polyline style="fill:#FFFFFF;" points="459.401,156.206 388.472,156.206 388.472,85.277 	"/>
	<path style="fill:#FFFFFF;" d="M351.044,75.816v73.044v14.413c0,16.245,13.169,29.414,29.414,29.414h87.457v116.928v29.16h-29.16
		H175.68h-29.16v-29.16V104.976v-29.16h29.16H351.044z"/>
	<path style="fill:#7DDD6C;" d="M388.318,31.635H118.465c-12.42,0-22.488,10.04-22.488,22.424v312.068
		c0,12.385,10.068,22.424,22.488,22.424h371.047c12.42,0,22.488-10.04,22.488-22.424V156.365L388.318,31.635z M387.381,83.23
		l71.26,71.26h-71.26V83.23z M459.896,309.641v28.172h-28.389H175.393h-28.389v-28.172v-197.7V83.769h28.389h170.724v70.567v13.924
		c0,15.694,12.821,28.416,28.636,28.416h85.143V309.641z"/>
</g>
<g id="ledger">
</g>
<g id="レイヤー_12">
</g>
</svg>
