<?xml version="1.0" encoding="iso-8859-1"?>
<!-- Generator: Adobe Illustrator 17.1.0, SVG Export Plug-In . SVG Version: 6.00 Build 0)  -->
<!DOCTYPE svg PUBLIC "-//W3C//DTD SVG 1.1//EN" "http://www.w3.org/Graphics/SVG/1.1/DTD/svg11.dtd">
<svg version="1.1" id="&#x30EC;&#x30A4;&#x30E4;&#x30FC;_1"
	 xmlns="http://www.w3.org/2000/svg" xmlns:xlink="http://www.w3.org/1999/xlink" x="0px" y="0px" viewBox="0 0 1792 1792"
	 style="enable-background:new 0 0 1792 1792;" xml:space="preserve">
<g>
	<path style="fill:#FFFFFF;" d="M0,1540.764C0,1678.897,89.597,1791,200.12,1791h1391.76c110.523,0,200.12-112.228,200.12-250.361
		V669.675V441.111C1792,302.979,1702.403,191,1591.88,191H200.12C89.597,191,0,303.041,0,441.174"/>
	<path style="fill:#D89795;" d="M820.629,763.508L192,191h1408L971.371,763.508C926.454,804.415,865.546,804.415,820.629,763.508z"
		/>
	<path style="fill:#D83934;" d="M1781.383,360.531l-816.182,734.624c-42.143,33.918-96.259,33.918-138.402,0L10.617,360.531
		C3.736,385.815,0,412.918,0,441.111v859.566C0,1304.498-0.136,1547,0,1551h0.14c3.752,134,91.842,241,199.98,241h1391.76
		c108.139,0,196.229-107,199.98-241h0.14v-9.111v-19.997V441.111C1792,412.918,1788.264,385.815,1781.383,360.531z"/>
</g>
</svg>
