<?xml version="1.0" encoding="utf-8"?>
<!-- Generator: Adobe Illustrator 17.1.0, SVG Export Plug-In . SVG Version: 6.00 Build 0)  -->
<!DOCTYPE svg PUBLIC "-//W3C//DTD SVG 1.1//EN" "http://www.w3.org/Graphics/SVG/1.1/DTD/svg11.dtd">
<svg version="1.1" id="レイヤー_1" xmlns="http://www.w3.org/2000/svg" xmlns:xlink="http://www.w3.org/1999/xlink" x="0px"
	 y="0px" viewBox="0 0 179.8 72.2" enable-background="new 0 0 179.8 72.2" xml:space="preserve">
<g>
	<g>
		<g>
			<path fill="#6FB92C" d="M162.9,1.1l-1.6,18h8.3c1.9,0,3.5,1.6,3.5,3.5c0,1.9-1.6,3.5-3.5,3.5h-8.9l-1.6,18.6
				c11.5-0.8,20.6-10.4,20.6-22.1C179.6,12.1,172.5,3.5,162.9,1.1z"/>
			<path fill="#007F41" d="M153.8,26h-8.1c-1.9,0-3.5-1.6-3.5-3.5c0-1.9,1.6-3.5,3.5-3.5h8.7L156,0.5c-11.5,0.8-20.6,10.4-20.6,22
				c0,10.4,7.1,19.1,16.8,21.4L153.8,26z"/>
		</g>
		<path fill="#FFFFFF" d="M169.6,26c1.9,0,3.5-1.6,3.5-3.5c0-1.9-1.6-3.5-3.5-3.5h-8.3l1.6-18c-2.2-0.6-4.5-0.8-6.9-0.6L154.4,19
			h-8.7c-1.9,0-3.5,1.6-3.5,3.5c0,1.9,1.6,3.5,3.5,3.5h8.1l-1.6,18c2.2,0.6,4.5,0.8,6.9,0.6l1.6-18.6H169.6z"/>
	</g>
	<path fill="#0E0000" d="M67.3,29c0.7,0,1.3-0.6,1.3-1.3v-6.1c0-8-4.3-12.2-12.5-12.2c-8.3,0-12.5,4.1-12.5,12.2v8.9
		c0,8.8,3.6,12.4,12.5,12.4c8.2,0,12.4-3.5,12.4-10.4c0-0.7-0.6-1.3-1.3-1.3h-4.8c-0.7,0-1.3,0.6-1.3,1.3c0,1.6-0.4,3.2-5,3.2
		c-3.8,0-5-0.8-5-5.3V29H67.3z M51.1,22.4v-0.9c0-4.4,1.5-5.2,5-5.2c3.4,0,5.2,0.8,5.2,5.2v0.9H51.1z"/>
	<path fill="#0E0000" d="M36.4,6.3v34.6c0,1.3-0.6,1.7-1.7,1.7h-5.5c-1,0-1.7-0.3-1.7-1.7V21.4l-5.8,10.1c-0.3,0.5-0.8,1.2-1.7,1.2
		h-2.9c-0.9,0-1.3-0.7-1.6-1.2L9.8,21.4v19.5c0,1.3-0.6,1.7-1.7,1.7H2.4c-1,0-1.7-0.3-1.7-1.7V6.3c0-1,0.3-1.7,1.7-1.7h5.7
		c2,0,2.2,1.3,2.6,2l7.9,14.2l7.9-14.2c0.4-0.7,0.7-2,2.6-2h5.5C36,4.6,36.4,5.3,36.4,6.3z"/>
	<path fill="#0E0000" d="M99.9,36.2v4.7c0,1-0.3,1.7-1.7,1.7H77.7c-1.3,0-1.7-0.6-1.7-1.7V6.3c0-1.3,0.6-1.7,1.7-1.7h5.7
		c1,0,1.7,0.3,1.7,1.7v28.2h13.2C99.6,34.5,99.9,35.1,99.9,36.2z"/>
	<path fill="#0E0000" d="M130.4,36.2v4.7c0,1-0.3,1.7-1.7,1.7h-20.6c-1.3,0-1.7-0.6-1.7-1.7V6.3c0-1.3,0.6-1.7,1.7-1.7h5.7
		c1,0,1.7,0.3,1.7,1.7v28.2h13.2C130.1,34.5,130.4,35.1,130.4,36.2z"/>
</g>
<g>
	<g>
		<path fill="#006CB6" d="M2.7,51.6c0.4,0,0.8,0.3,0.8,0.8v0.2c0.4-0.6,1.4-1.2,2.6-1.2c2.7,0,4.4,1.7,4.4,5v4.9
			c0,2.8-1.8,4.9-4.3,4.9c-1.1,0-2.3-0.5-2.8-1.3v6.4c0,0.5-0.3,0.8-0.8,0.8h-1c-0.4,0-0.8-0.3-0.8-0.8V52.5c0-0.5,0.3-0.8,0.8-0.8
			H2.7z M3.5,56.3v5.2c0,1.4,1,2.3,2.4,2.3c1.2,0,2-0.7,2-2.3v-5.2c0-1.4-0.6-2.4-2.2-2.4C4.1,53.9,3.5,55.1,3.5,56.3z"/>
		<path fill="#006CB6" d="M21.9,52.2v0.8c0,0.4-0.3,0.8-0.8,0.8c-2.6,0-3.1,1.3-3.1,2.4v8.9c0,0.5-0.3,0.8-0.8,0.8h-1.1
			c-0.4,0-0.8-0.3-0.8-0.8V52.5c0-0.5,0.3-0.8,0.8-0.8h1.1c0.4,0,0.8,0.3,0.8,0.8v0.2c0.9-0.9,1.4-1.2,3.1-1.2
			C21.6,51.4,21.9,51.8,21.9,52.2z"/>
		<path fill="#006CB6" d="M28.6,66.2c-2.9,0-4.8-1.9-4.8-5.2v-4.3c0-3.8,2-5.3,4.8-5.3s4.8,1.5,4.8,5.3v4.3
			C33.4,64.4,31.5,66.2,28.6,66.2L28.6,66.2z M26.4,56.8v4.3c0,1.4,0.4,2.7,2.2,2.7c1.8,0,2.2-1.4,2.2-2.7v-4.3
			c0-1.6-0.4-2.9-2.2-2.9C26.8,53.9,26.4,55.2,26.4,56.8z"/>
		<path fill="#006CB6" d="M43.7,45.9h0.6c0.5,0,0.8,0.4,0.8,0.8v0.8c0,0.4-0.3,0.8-0.8,0.8h-0.6c-1.8,0-2,1.1-2,2.2v1.4h2.4
			c0.5,0,0.8,0.4,0.8,0.8v0.8c0,0.4-0.3,0.8-0.8,0.8h-2.4v10.9c0,0.5-0.4,0.8-0.8,0.8h-1c-0.4,0-0.8-0.3-0.8-0.8V54.3h-0.6
			c-0.5,0-0.8-0.3-0.8-0.8v-0.8c0-0.4,0.3-0.8,0.8-0.8h0.6v-1.4C39.1,47.6,40.6,45.9,43.7,45.9z"/>
		<path fill="#006CB6" d="M57.3,55.6v2.2c0,0.7-0.4,1.4-1.4,1.6l-5.7,1.1v1.1c0,1.2,0.9,2.2,2.2,2.2c1.7,0,2.2-1.1,2.2-2.2
			c0-0.9,0.8-0.9,0.8-0.9h0.9c0.5,0,0.9,0.3,0.9,0.9c0,2.5-1.8,4.6-4.8,4.6c-2.9,0-4.8-2-4.8-4.7v-5.1c0-2.9,1.8-5,5-5
			C55.3,51.4,57.3,53,57.3,55.6z M50.2,56.3V58l4.4-0.9v-1.5c0-1.2-0.9-1.7-2.2-1.7C50.8,53.9,50.2,55,50.2,56.3z"/>
		<path fill="#006CB6" d="M65.8,63.8c1.1,0,1.7-0.8,1.7-1.7c0-0.7-0.2-1.3-1.3-1.9l-2.4-1.4c-1.7-1-2.2-2.5-2.2-3.5
			c0-1.9,1.4-3.9,4.1-3.9c1.8,0,3.9,0.6,4.3,3.2c0.1,0.9-0.7,1-0.7,1l-0.8,0.1c-0.4,0-0.9-0.2-0.9-0.8c-0.2-1-1.1-1.2-1.7-1.2
			c-0.7,0-1.6,0.6-1.6,1.6c0,0.6,0.3,1.1,1.1,1.5l2,1.2c1.5,0.8,2.7,2,2.7,4.1c0,2-1.6,4.1-4.3,4.1c-3.7,0-4.6-2.9-4.6-4.6
			c0-0.9,0.8-0.9,0.8-0.9h0.8c0.5,0,0.9,0.3,0.9,0.9C63.7,62.7,64.2,63.8,65.8,63.8z"/>
		<path fill="#006CB6" d="M78.3,63.8c1.1,0,1.7-0.8,1.7-1.7c0-0.7-0.2-1.3-1.3-1.9l-2.4-1.4c-1.7-1-2.2-2.5-2.2-3.5
			c0-1.9,1.4-3.9,4.1-3.9c1.8,0,3.9,0.6,4.3,3.2c0.1,0.9-0.7,1-0.7,1l-0.8,0.1c-0.4,0-0.9-0.2-1-0.8c-0.2-1-1.1-1.2-1.7-1.2
			c-0.7,0-1.6,0.6-1.6,1.6c0,0.6,0.3,1.1,1.1,1.5l2,1.2c1.5,0.8,2.7,2,2.7,4.1c0,2-1.6,4.1-4.3,4.1c-3.7,0-4.6-2.9-4.6-4.6
			c0-0.9,0.8-0.9,0.8-0.9h0.8c0.5,0,0.9,0.3,0.9,0.9C76.3,62.7,76.7,63.8,78.3,63.8z"/>
		<path fill="#006CB6" d="M90.2,46.7v1.5c0,0.5-0.3,0.8-0.8,0.8h-1.3c-0.4,0-0.8-0.3-0.8-0.8v-1.5c0-0.5,0.3-0.8,0.8-0.8h1.3
			C89.8,45.9,90.2,46.2,90.2,46.7z M89.2,51.6c0.4,0,0.8,0.3,0.8,0.8v12.7c0,0.5-0.4,0.8-0.8,0.8h-1c-0.4,0-0.8-0.3-0.8-0.8V52.5
			c0-0.5,0.3-0.8,0.8-0.8H89.2z"/>
		<path fill="#006CB6" d="M99,66.2c-2.9,0-4.8-1.9-4.8-5.2v-4.3c0-3.8,2-5.3,4.8-5.3s4.8,1.5,4.8,5.3v4.3
			C103.9,64.4,102,66.2,99,66.2L99,66.2z M96.8,56.8v4.3c0,1.4,0.4,2.7,2.2,2.7c1.8,0,2.2-1.4,2.2-2.7v-4.3c0-1.6-0.4-2.9-2.2-2.9
			S96.8,55.2,96.8,56.8z"/>
		<path fill="#006CB6" d="M110.1,51.6c0.4,0,0.8,0.3,0.8,0.8v0.2c0.3-0.4,1.3-1.2,2.7-1.2c2.7,0,4.3,1.7,4.3,5v8.7
			c0,0.5-0.3,0.8-0.8,0.8H116c-0.4,0-0.8-0.3-0.8-0.8v-8.9c0-1.4-0.5-2.4-2-2.4c-1.7,0-2.3,1.3-2.3,2.4v8.9c0,0.5-0.3,0.8-0.8,0.8
			H109c-0.4,0-0.8-0.3-0.8-0.8V52.5c0-0.5,0.3-0.8,0.8-0.8H110.1z"/>
		<path fill="#006CB6" d="M131.6,56.5v8.7c0,0.5-0.3,0.8-0.8,0.8h-1c-0.4,0-0.8-0.3-0.8-0.8v-0.3c-0.5,0.8-1.8,1.3-2.9,1.3
			c-2.3,0-4.2-1.8-4.2-4.1c0-2.2,0.9-3.5,3.6-4.1l3.4-0.8v-1.2c0-1.2-0.9-2-2.1-2c-1.3,0-1.9,0.7-1.9,1.5c0,0.5-0.3,0.8-0.8,0.8
			h-1.1c-0.4,0-0.8-0.3-0.8-0.8c0-2.4,1.9-3.9,4.6-3.9C129.4,51.4,131.6,53.1,131.6,56.5z M124.6,62c0,0.9,0.7,1.8,1.8,1.8
			c1.5,0,2.5-1.4,2.5-2.7v-1.4l-3,0.7C124.8,60.6,124.6,61.5,124.6,62z"/>
		<path fill="#006CB6" d="M138.3,45.9c0.4,0,0.8,0.3,0.8,0.8v14.9c0,1.1,0.1,2.2,2,2.2h0.6c0.5,0,0.8,0.3,0.8,0.8v0.8
			c0,0.4-0.3,0.8-0.8,0.8H141c-3.1,0-4.6-1.8-4.6-4.6V46.7c0-0.5,0.3-0.8,0.8-0.8H138.3z"/>
	</g>
</g>
</svg>
