<?xml version="1.0" encoding="utf-8"?>
<!-- Generator: Adobe Illustrator 25.2.1, SVG Export Plug-In . SVG Version: 6.00 Build 0)  -->
<svg version="1.1" id="レイヤー_1" xmlns="http://www.w3.org/2000/svg" xmlns:xlink="http://www.w3.org/1999/xlink" x="0px"
	 y="0px" viewBox="0 0 256 62.9" style="enable-background:new 0 0 256 62.9;" xml:space="preserve">
<style type="text/css">
	.st0{fill:#6FB92C;}
	.st1{fill:#007F41;}
	.st2{fill:#FFFFFF;}
	.st3{fill:#0E0000;}
</style>
<g>
	<g>
		<g>
			<g>
				<path class="st0" d="M231.2,0.9L229,26.5h11.8c2.7,0,4.9,2.2,4.9,4.9s-2.2,4.9-4.9,4.9h-12.7l-2.3,26.4
					C242.1,61.6,255,48,255,31.4C255,16.7,244.8,4.3,231.2,0.9z"/>
				<path class="st1" d="M218.3,36.3h-11.5c-2.7,0-4.9-2.2-4.9-4.9s2.2-4.9,4.9-4.9h12.4l2.3-26.4c-16.3,1.1-29.2,14.7-29.2,31.3
					c0,14.7,10.1,27.1,23.8,30.4L218.3,36.3z"/>
			</g>
			<path class="st2" d="M240.8,36.3c2.7,0,4.9-2.2,4.9-4.9s-2.2-4.9-4.9-4.9H229L231.2,1c-3.2-0.8-6.4-1.1-9.8-0.8l-2.3,26.4h-12.4
				c-2.7,0-4.9,2.2-4.9,4.9s2.2,4.9,4.9,4.9h11.5L216,61.9c3.2,0.8,6.4,1.1,9.8,0.8l2.3-26.4C228.1,36.3,240.8,36.3,240.8,36.3z"/>
		</g>
		<path class="st3" d="M95.6,40.6c1,0,1.9-0.8,1.9-1.9V30c0-11.3-6.1-17.3-17.8-17.3c-11.8,0-17.8,5.8-17.8,17.3v12.6
			c0,12.5,5.1,17.6,17.8,17.6c11.7,0,17.6-5,17.6-14.8c0-1-0.8-1.9-1.9-1.9h-6.8c-1,0-1.9,0.8-1.9,1.9c0,2.2-0.5,4.6-7.1,4.6
			c-5.3,0-7.1-1.1-7.1-7.5v-1.8L95.6,40.6L95.6,40.6z M72.6,31.2V30c0-6.3,2.2-7.3,7.1-7.3S87,23.8,87,30v1.2H72.6z"/>
		<path class="st3" d="M51.6,8.4v49.1c0,1.9-0.9,2.4-2.4,2.4h-7.9c-1.5,0-2.4-0.5-2.4-2.4V29.8l-8.2,14.3c-0.4,0.7-1.1,1.7-2.4,1.7
			h-4.1c-1.2,0-1.9-1.1-2.3-1.7l-8.3-14.3v27.7c0,1.9-0.9,2.4-2.4,2.4H3.4c-1.5,0-2.4-0.5-2.4-2.4V8.4C1,6.9,1.5,6,3.4,6h8.1
			c2.8,0,3.1,1.8,3.8,2.8l11.2,20.1L37.7,8.8c0.6-1,1-2.8,3.7-2.8h7.9C51.1,6,51.6,6.9,51.6,8.4z"/>
		<path class="st3" d="M141.8,50.8v6.7c0,1.5-0.5,2.4-2.4,2.4h-29.2c-1.9,0-2.4-0.9-2.4-2.4V8.4c0-1.9,0.9-2.4,2.4-2.4h8.1
			c1.5,0,2.4,0.5,2.4,2.4v40h18.7C141.4,48.4,141.8,49.3,141.8,50.8z"/>
		<path class="st3" d="M185.1,50.8v6.7c0,1.5-0.5,2.4-2.4,2.4h-29.2c-1.9,0-2.4-0.9-2.4-2.4V8.4c0-1.9,0.9-2.4,2.4-2.4h8.1
			c1.5,0,2.4,0.5,2.4,2.4v40h18.7C184.6,48.4,185.1,49.3,185.1,50.8z"/>
	</g>
</g>
</svg>
