<?xml version="1.0" encoding="utf-8"?>
<!-- Generator: Adobe Illustrator 17.1.0, SVG Export Plug-In . SVG Version: 6.00 Build 0)  -->
<!DOCTYPE svg PUBLIC "-//W3C//DTD SVG 1.1//EN" "http://www.w3.org/Graphics/SVG/1.1/DTD/svg11.dtd">
<svg version="1.1" id="レイヤー_1" xmlns="http://www.w3.org/2000/svg" xmlns:xlink="http://www.w3.org/1999/xlink" x="0px"
	 y="0px" viewBox="0 0 229.9 27.2" enable-background="new 0 0 229.9 27.2" xml:space="preserve">
<g>
	<g>
		<g>
			<path fill="#6FB92C" d="M81,2.7l-0.8,9h4.2c1,0,1.7,0.8,1.7,1.7c0,1-0.8,1.7-1.7,1.7h-4.5l-0.8,9.3c5.7-0.4,10.3-5.2,10.3-11
				C89.4,8.2,85.8,3.9,81,2.7z"/>
			<path fill="#007F41" d="M76.5,15.2h-4c-1,0-1.7-0.8-1.7-1.7c0-1,0.8-1.7,1.7-1.7h4.3l0.8-9.3c-5.7,0.4-10.3,5.2-10.3,11
				c0,5.2,3.6,9.5,8.4,10.7L76.5,15.2z"/>
		</g>
		<path fill="#FFFFFF" d="M84.4,15.2c1,0,1.7-0.8,1.7-1.7c0-1-0.8-1.7-1.7-1.7h-4.2l0.8-9c-1.1-0.3-2.3-0.4-3.4-0.3l-0.8,9.3h-4.3
			c-1,0-1.7,0.8-1.7,1.7c0,1,0.8,1.7,1.7,1.7h4l-0.8,9c1.1,0.3,2.3,0.4,3.4,0.3l0.8-9.3H84.4z"/>
	</g>
	<path fill="#0E0000" d="M33.3,16.7c0.4,0,0.7-0.3,0.7-0.7v-3.1c0-4-2.2-6.1-6.3-6.1c-4.2,0-6.3,2-6.3,6.1v4.4
		c0,4.4,1.8,6.2,6.3,6.2c4.1,0,6.2-1.8,6.2-5.2c0-0.4-0.3-0.7-0.7-0.7h-2.4c-0.4,0-0.7,0.3-0.7,0.7c0,0.8-0.2,1.6-2.5,1.6
		c-1.9,0-2.5-0.4-2.5-2.7v-0.7H33.3z M25.2,13.4v-0.4c0-2.2,0.8-2.6,2.5-2.6c1.7,0,2.6,0.4,2.6,2.6v0.4H25.2z"/>
	<path fill="#0E0000" d="M17.8,5.3v17.3c0,0.7-0.3,0.8-0.8,0.8h-2.8c-0.5,0-0.8-0.2-0.8-0.8v-9.8l-2.9,5c-0.1,0.2-0.4,0.6-0.8,0.6
		H8.2c-0.4,0-0.7-0.4-0.8-0.6l-2.9-5v9.8c0,0.7-0.3,0.8-0.8,0.8H0.8c-0.5,0-0.8-0.2-0.8-0.8V5.3c0-0.5,0.2-0.8,0.8-0.8h2.9
		c1,0,1.1,0.6,1.3,1L9,12.5l4-7.1c0.2-0.3,0.3-1,1.3-1H17C17.6,4.5,17.8,4.8,17.8,5.3z"/>
	<path fill="#0E0000" d="M49.6,20.3v2.4c0,0.5-0.2,0.8-0.8,0.8H38.5c-0.7,0-0.8-0.3-0.8-0.8V5.4c0-0.7,0.3-0.8,0.8-0.8h2.9
		c0.5,0,0.8,0.2,0.8,0.8v14.1h6.6C49.4,19.4,49.6,19.7,49.6,20.3z"/>
	<path fill="#0E0000" d="M64.8,20.3v2.4c0,0.5-0.2,0.8-0.8,0.8H53.7c-0.7,0-0.8-0.3-0.8-0.8V5.4c0-0.7,0.3-0.8,0.8-0.8h2.9
		c0.5,0,0.8,0.2,0.8,0.8v14.1H64C64.6,19.4,64.8,19.7,64.8,20.3z"/>
</g>
<g>
	<g>
		<path fill="#006CB6" d="M97.1,5.8c0.4,0,0.8,0.3,0.8,0.8v0.2c0.4-0.6,1.4-1.2,2.6-1.2c2.7,0,4.4,1.7,4.4,5v4.9
			c0,2.8-1.8,4.9-4.3,4.9c-1.1,0-2.3-0.5-2.8-1.3v6.4c0,0.5-0.3,0.8-0.8,0.8h-1c-0.4,0-0.8-0.3-0.8-0.8V6.6c0-0.5,0.3-0.8,0.8-0.8
			H97.1z M97.9,10.4v5.2c0,1.4,0.9,2.3,2.4,2.3c1.2,0,2-0.7,2-2.3v-5.2c0-1.4-0.6-2.4-2.2-2.4C98.5,8,97.9,9.2,97.9,10.4z"/>
		<path fill="#006CB6" d="M115.6,6.3v0.8c0,0.4-0.3,0.8-0.8,0.8c-2.6,0-3.1,1.3-3.1,2.4v8.9c0,0.5-0.3,0.8-0.8,0.8h-1.1
			c-0.4,0-0.8-0.3-0.8-0.8V6.6c0-0.5,0.3-0.8,0.8-0.8h1.1c0.4,0,0.8,0.3,0.8,0.8v0.2c0.9-0.9,1.4-1.2,3.1-1.2
			C115.2,5.6,115.6,5.9,115.6,6.3z"/>
		<path fill="#006CB6" d="M121.5,20.4c-2.9,0-4.8-1.9-4.8-5.2v-4.3c0-3.8,2-5.3,4.8-5.3c2.9,0,4.8,1.5,4.8,5.3v4.3
			C126.4,18.5,124.5,20.4,121.5,20.4L121.5,20.4z M119.3,10.9v4.3c0,1.4,0.4,2.7,2.2,2.7c1.8,0,2.2-1.4,2.2-2.7v-4.3
			c0-1.6-0.4-2.9-2.2-2.9S119.3,9.3,119.3,10.9z"/>
		<path fill="#006CB6" d="M135.9,0h0.6c0.5,0,0.8,0.4,0.8,0.8v0.8c0,0.4-0.3,0.8-0.8,0.8h-0.6c-1.8,0-2,1.1-2,2.2V6h2.4
			c0.5,0,0.8,0.4,0.8,0.8v0.8c0,0.4-0.3,0.8-0.8,0.8h-2.4v10.9c0,0.5-0.4,0.8-0.8,0.8h-1c-0.4,0-0.8-0.3-0.8-0.8V8.4h-0.6
			c-0.5,0-0.8-0.3-0.8-0.8V6.8c0-0.4,0.3-0.8,0.8-0.8h0.6V4.6C131.3,1.8,132.8,0,135.9,0z"/>
		<path fill="#006CB6" d="M148.8,9.7v2.2c0,0.7-0.4,1.4-1.4,1.6l-5.7,1.1v1.1c0,1.2,0.9,2.2,2.2,2.2c1.7,0,2.2-1.1,2.2-2.2
			c0-0.9,0.8-0.9,0.8-0.9h0.9c0.5,0,0.9,0.3,0.9,0.9c0,2.5-1.8,4.6-4.8,4.6c-2.9,0-4.8-2-4.8-4.7v-5.1c0-2.9,1.8-5,5-5
			C146.8,5.6,148.8,7.1,148.8,9.7z M141.7,10.4v1.7l4.4-0.9V9.7c0-1.2-0.9-1.7-2.2-1.7C142.4,8,141.7,9.1,141.7,10.4z"/>
		<path fill="#006CB6" d="M156.6,17.9c1.1,0,1.7-0.8,1.7-1.7c0-0.7-0.2-1.3-1.3-1.9l-2.4-1.4c-1.7-1-2.2-2.5-2.2-3.5
			c0-1.9,1.4-3.9,4.1-3.9c1.8,0,3.9,0.6,4.3,3.2c0.1,0.9-0.7,1-0.7,1l-0.8,0.1c-0.4,0-0.9-0.2-0.9-0.8c-0.2-1-1.1-1.2-1.7-1.2
			c-0.7,0-1.6,0.6-1.6,1.6c0,0.6,0.3,1.1,1.1,1.5l2,1.2c1.5,0.8,2.7,2,2.7,4.1c0,2-1.6,4.1-4.3,4.1c-3.7,0-4.6-2.9-4.6-4.6
			c0-0.9,0.8-0.9,0.8-0.9h0.8c0.5,0,0.9,0.3,0.9,0.9C154.5,16.8,154.9,17.9,156.6,17.9z"/>
		<path fill="#006CB6" d="M168.4,17.9c1.1,0,1.7-0.8,1.7-1.7c0-0.7-0.2-1.3-1.3-1.9l-2.4-1.4c-1.7-1-2.2-2.5-2.2-3.5
			c0-1.9,1.4-3.9,4.1-3.9c1.8,0,3.9,0.6,4.3,3.2c0.1,0.9-0.7,1-0.7,1l-0.8,0.1c-0.4,0-0.9-0.2-1-0.8c-0.2-1-1.1-1.2-1.7-1.2
			c-0.7,0-1.6,0.6-1.6,1.6c0,0.6,0.3,1.1,1.1,1.5l2,1.2c1.5,0.8,2.7,2,2.7,4.1c0,2-1.6,4.1-4.3,4.1c-3.7,0-4.6-2.9-4.6-4.6
			c0-0.9,0.8-0.9,0.8-0.9h0.8c0.5,0,0.9,0.3,0.9,0.9C166.3,16.8,166.7,17.9,168.4,17.9z"/>
		<path fill="#006CB6" d="M179.5,0.8v1.5c0,0.5-0.3,0.8-0.8,0.8h-1.3c-0.4,0-0.8-0.3-0.8-0.8V0.8c0-0.5,0.3-0.8,0.8-0.8h1.3
			C179.2,0,179.5,0.3,179.5,0.8z M178.6,5.8c0.4,0,0.8,0.3,0.8,0.8v12.7c0,0.5-0.4,0.8-0.8,0.8h-1c-0.4,0-0.8-0.3-0.8-0.8V6.6
			c0-0.5,0.3-0.8,0.8-0.8H178.6z"/>
		<path fill="#006CB6" d="M187.7,20.4c-2.9,0-4.8-1.9-4.8-5.2v-4.3c0-3.8,2-5.3,4.8-5.3c2.9,0,4.8,1.5,4.8,5.3v4.3
			C192.5,18.5,190.6,20.4,187.7,20.4L187.7,20.4z M185.5,10.9v4.3c0,1.4,0.4,2.7,2.2,2.7c1.8,0,2.2-1.4,2.2-2.7v-4.3
			c0-1.6-0.4-2.9-2.2-2.9C185.9,8,185.5,9.3,185.5,10.9z"/>
		<path fill="#006CB6" d="M198,5.8c0.4,0,0.8,0.3,0.8,0.8v0.2c0.3-0.4,1.3-1.2,2.7-1.2c2.7,0,4.3,1.7,4.3,5v8.7
			c0,0.5-0.3,0.8-0.8,0.8h-1.1c-0.4,0-0.8-0.3-0.8-0.8v-8.9c0-1.4-0.5-2.4-2-2.4c-1.7,0-2.3,1.3-2.3,2.4v8.9c0,0.5-0.3,0.8-0.8,0.8
			h-1.1c-0.4,0-0.8-0.3-0.8-0.8V6.6c0-0.5,0.3-0.8,0.8-0.8H198z"/>
		<path fill="#006CB6" d="M218.8,10.7v8.7c0,0.5-0.3,0.8-0.8,0.8h-1c-0.4,0-0.8-0.3-0.8-0.8v-0.3c-0.5,0.8-1.8,1.3-2.9,1.3
			c-2.3,0-4.2-1.8-4.2-4.1c0-2.2,0.9-3.5,3.6-4.1l3.4-0.8V10c0-1.2-0.9-2-2.1-2c-1.3,0-1.9,0.7-1.9,1.5c0,0.5-0.3,0.8-0.8,0.8h-1.1
			c-0.4,0-0.8-0.3-0.8-0.8c0-2.4,1.9-3.9,4.5-3.9C216.5,5.6,218.8,7.2,218.8,10.7z M211.8,16.1c0,0.9,0.7,1.8,1.8,1.8
			c1.5,0,2.5-1.4,2.5-2.7v-1.4l-3,0.7C212,14.7,211.8,15.6,211.8,16.1z"/>
		<path fill="#006CB6" d="M224.7,0c0.4,0,0.8,0.3,0.8,0.8v14.9c0,1.1,0.1,2.2,2,2.2h0.6c0.5,0,0.8,0.3,0.8,0.8v0.8
			c0,0.4-0.3,0.8-0.8,0.8h-0.6c-3.1,0-4.6-1.8-4.6-4.6V0.8c0-0.5,0.3-0.8,0.8-0.8H224.7z"/>
	</g>
</g>
</svg>
