<?xml version="1.0" encoding="utf-8"?>
<!-- Generator: Adobe Illustrator 18.1.1, SVG Export Plug-In . SVG Version: 6.00 Build 0)  -->
<!DOCTYPE svg PUBLIC "-//W3C//DTD SVG 1.1//EN" "http://www.w3.org/Graphics/SVG/1.1/DTD/svg11.dtd">
<svg version="1.1" id="レイヤー_1" xmlns="http://www.w3.org/2000/svg" xmlns:xlink="http://www.w3.org/1999/xlink" x="0px"
	 y="0px" viewBox="0 0 800 800" enable-background="new 0 0 800 800" xml:space="preserve">
<g>
	<path fill="#FFFFFF" d="M0,647.8c0,61.7,40,111.7,89.3,111.7h621.3c49.3,0,89.3-50.1,89.3-111.8V259v-102
		c0-61.7-40-111.7-89.3-111.7H89.3C40,45.3,0,95.3,0,157"/>
	<path fill="#D89795" d="M366.4,300.9L85.7,45.3h628.6L433.6,300.9C413.6,319.1,386.4,319.1,366.4,300.9z"/>
	<path fill="#D83934" d="M795.3,121l-364.4,328c-18.8,15.1-43,15.1-61.8,0L4.7,121c-3.1,11.3-4.7,23.4-4.7,36v383.7
		c0,1.7-0.1,110,0,111.8h0.1C1.7,712.2,41.1,760,89.3,760h621.3c48.3,0,87.6-47.8,89.3-107.6h0.1v-4.1v-8.9V156.9
		C800,144.3,798.3,132.2,795.3,121z"/>
</g>
</svg>
