<?xml version="1.0" encoding="iso-8859-1"?>
<!-- Generator: Adobe Illustrator 17.1.0, SVG Export Plug-In . SVG Version: 6.00 Build 0)  -->
<!DOCTYPE svg PUBLIC "-//W3C//DTD SVG 1.1//EN" "http://www.w3.org/Graphics/SVG/1.1/DTD/svg11.dtd">
<svg version="1.1" id="&#x30EC;&#x30A4;&#x30E4;&#x30FC;_1"
	 xmlns="http://www.w3.org/2000/svg" xmlns:xlink="http://www.w3.org/1999/xlink" x="0px" y="0px" viewBox="0 0 1792 1792"
	 style="enable-background:new 0 0 1792 1792;" xml:space="preserve">
<path style="fill:#26A028;" d="M452.873,841.787l427.684-667.781C913.15,123.115,992,146.201,992,206.634V512
	c0,0,643.276,54.586,750.165,999.52c5.254,46.446-56.074,67.841-80.914,28.245C1564.178,1385.023,1371.387,1216.54,992,1216v369.366
	c0,60.434-78.85,83.519-111.443,32.628L452.873,950.213C431.709,917.169,431.709,874.831,452.873,841.787z"/>
<g>
	<path style="fill:#26A028;" d="M319.844,841.832L604,398.154V207.073c0-60.562-79.017-83.696-111.68-32.697L64.844,841.832
		c-21.146,33.017-21.146,75.32,0,108.336l427.476,667.456c32.663,50.999,111.68,27.865,111.68-32.697v-191.081L319.844,950.168
		C298.698,917.151,298.698,874.849,319.844,841.832z"/>
</g>
</svg>
