<?xml version="1.0" encoding="iso-8859-1"?>
<!-- Generator: Adobe Illustrator 17.1.0, SVG Export Plug-In . SVG Version: 6.00 Build 0)  -->
<!DOCTYPE svg PUBLIC "-//W3C//DTD SVG 1.1//EN" "http://www.w3.org/Graphics/SVG/1.1/DTD/svg11.dtd">
<svg version="1.1" id="&#x30EC;&#x30A4;&#x30E4;&#x30FC;_1"
	 xmlns="http://www.w3.org/2000/svg" xmlns:xlink="http://www.w3.org/1999/xlink" x="0px" y="0px" viewBox="0 0 1792 1792"
	 style="enable-background:new 0 0 1792 1792;" xml:space="preserve">
<circle style="fill:#FFFFFF;" cx="816" cy="792" r="640"/>
<path style="fill:#9B6BDB;" d="M1627.024,1488.616l-268.852-274.022c96.085-120.354,153.533-272.91,153.533-438.889
	c0-388.809-315.191-704-704-704s-704,315.191-704,704s315.191,704,704,704c130.446,0,252.605-35.48,357.355-97.315
	c2.646,3.3,5.48,6.5,8.505,9.583l270.723,275.93c49.014,49.956,129.245,50.721,179.201,1.707l1.827-1.793
	C1675.273,1618.804,1676.038,1538.572,1627.024,1488.616z M263.705,775.705c0-300.443,243.557-544,544-544s544,243.557,544,544
	s-243.557,544-544,544S263.705,1076.148,263.705,775.705z"/>
<path d="M808,308.179"/>
<path d="M689.184,309"/>
</svg>
