<?xml version="1.0" encoding="iso-8859-1"?>
<!-- Generator: Adobe Illustrator 17.1.0, SVG Export Plug-In . SVG Version: 6.00 Build 0)  -->
<!DOCTYPE svg PUBLIC "-//W3C//DTD SVG 1.1//EN" "http://www.w3.org/Graphics/SVG/1.1/DTD/svg11.dtd">
<svg version="1.1" id="&#x30EC;&#x30A4;&#x30E4;&#x30FC;_1"
	 xmlns="http://www.w3.org/2000/svg" xmlns:xlink="http://www.w3.org/1999/xlink" x="0px" y="0px" viewBox="0 0 1792 1792"
	 style="enable-background:new 0 0 1792 1792;" xml:space="preserve">
<path style="fill:#808C88;" d="M1721.317,1001.957c4.41-34.697,6.683-70.062,6.683-105.957c0-36.621-2.376-72.686-6.964-108.056
	l-211.685-75.278c-13.31-44.595-31.355-87.146-53.544-127.078l95.903-201.754c-44.596-57.015-96.469-108.059-154.218-151.748
	l-204.148,97.041c-38.06-20.005-78.382-36.286-120.481-48.366L997.987,70.204C964.562,66.119,930.529,64,896,64
	c-40.328,0-79.982,2.881-118.777,8.426l-76.02,213.771c-38.396,12.255-75.221,28.026-110.086,46.951l-202.751-96.377
	c-59.574,45.943-112.747,99.778-157.952,159.944l97.291,204.674c-17.327,33.356-31.811,68.425-43.115,104.895L71.761,781.97
	C66.651,819.251,64,857.315,64,896c0,37.959,2.558,75.319,7.481,111.93l212.427,75.542c11.296,36.925,25.839,72.43,43.3,106.183
	l-97.379,204.858c44.926,59.938,97.757,113.606,156.939,159.475l202.398-96.209c35.685,19.532,73.436,35.76,112.839,48.279
	l75.968,213.626C816.529,1725.159,855.932,1728,896,1728c34.273,0,68.057-2.088,101.244-6.114l74.827-210.415
	c43.122-12.313,84.383-29.037,123.267-49.65l203.778,96.865c57.354-43.61,108.873-94.494,153.185-151.279l-95.982-201.921
	c22.323-40.33,40.42-83.322,53.691-128.385L1721.317,1001.957z M888,1215c-176.731,0-320-143.269-320-320s143.269-320,320-320
	s320,143.269,320,320S1064.731,1215,888,1215z"/>
</svg>
