<?xml version="1.0" encoding="iso-8859-1"?>
<!-- Generator: Adobe Illustrator 17.1.0, SVG Export Plug-In . SVG Version: 6.00 Build 0)  -->
<!DOCTYPE svg PUBLIC "-//W3C//DTD SVG 1.1//EN" "http://www.w3.org/Graphics/SVG/1.1/DTD/svg11.dtd">
<svg version="1.1" id="&#x30EC;&#x30A4;&#x30E4;&#x30FC;_1"
	 xmlns="http://www.w3.org/2000/svg" xmlns:xlink="http://www.w3.org/1999/xlink" x="0px" y="0px" viewBox="0 0 1792 1792"
	 style="enable-background:new 0 0 1792 1792;" xml:space="preserve">
<path d="M1342.185,1616.939C1610.705,1468.803,1792,1187.417,1792,864.65c0-392.813-269-724.339-636-828.964v265.311
	c224,96.031,380,312.272,380,563.653c0,257.424-163.7,478-396.262,570.372L896,1216v265.328v246.584V1792h641L1342.185,1616.939z"/>
<path style="fill:#5FD863;" d="M449.815,174.904C181.295,323.04,0,604.348,0,927.114C0,1319.928,268.518,1651.375,636,1756v-265.311
	c-223.894-96.031-380-312.272-380-563.653c0-257.424,163.7-478,396.262-570.372L896,575.686V310.358V63.774V0H255L449.815,174.904z"
	/>
<path style="fill:#26A028;" d="M1342.185,1616.939C1610.705,1468.803,1792,1187.417,1792,864.65c0-392.813-269-724.339-636-828.964
	v265.311c224,96.031,380,312.272,380,563.653c0,257.424-163.7,478-396.262,570.372L896,1216v265.328v246.584V1792h641
	L1342.185,1616.939z"/>
</svg>
