<?xml version="1.0" encoding="iso-8859-1"?>
<!-- Generator: Adobe Illustrator 17.1.0, SVG Export Plug-In . SVG Version: 6.00 Build 0)  -->
<!DOCTYPE svg PUBLIC "-//W3C//DTD SVG 1.1//EN" "http://www.w3.org/Graphics/SVG/1.1/DTD/svg11.dtd">
<svg version="1.1" id="&#x30EC;&#x30A4;&#x30E4;&#x30FC;_1"
	 xmlns="http://www.w3.org/2000/svg" xmlns:xlink="http://www.w3.org/1999/xlink" x="0px" y="0px" viewBox="0 0 1792 1792"
	 style="enable-background:new 0 0 1792 1792;" xml:space="preserve">
<path style="fill:#DB6B94;" d="M1072.559,991.739c58.683-21.559,112.325-53.554,158.675-93.739H1408V514h-0.019
	c0.006-1,0.019-1.999,0.019-3c0-282.77-229.23-512-512-512S384,228.23,384,511c0,1.001,0.013,2,0.019,3H384v384h176.766
	c46.35,40.185,99.992,72.18,158.675,93.739C487.949,1066.306,320,1288.422,320,1550.844v231.527c0,6.128,4.835,10.629,10.8,10.629
	h1130.4c5.965,0,10.8-4.501,10.8-10.629v-231.527C1472,1288.422,1304.051,1066.306,1072.559,991.739z"/>
</svg>
