<?xml version="1.0" encoding="iso-8859-1"?>
<!-- Generator: Adobe Illustrator 17.1.0, SVG Export Plug-In . SVG Version: 6.00 Build 0)  -->
<!DOCTYPE svg PUBLIC "-//W3C//DTD SVG 1.1//EN" "http://www.w3.org/Graphics/SVG/1.1/DTD/svg11.dtd">
<svg version="1.1" id="&#x30EC;&#x30A4;&#x30E4;&#x30FC;_1"
	 xmlns="http://www.w3.org/2000/svg" xmlns:xlink="http://www.w3.org/1999/xlink" x="0px" y="0px" viewBox="0 0 1792 1792"
	 style="enable-background:new 0 0 1792 1792;" xml:space="preserve">
<path style="fill:#6BC1DB;" d="M645.617,1218.501C793.397,1146.595,895,996.952,895,824c0-243.005-200.576-440-448-440
	S-1,580.995-1,824c0,170.108,98.292,317.664,242.134,390.887C104.563,1237.24-1,1386.71-1,1567.773V1792h896v-189.139
	C895,1411.356,787.509,1252.026,645.617,1218.501z"/>
<circle style="fill:#25569E;" cx="1304.394" cy="1472.394" r="192.394"/>
<path style="fill:#25569E;" d="M1347.981,0C1102.777,0,904,198.779,904,443.985c0,23.128,1.771,45.841,5.18,68.015h191.966
	c-5.953-21.656-9.148-44.453-9.148-68c0-141.385,114.614-256,255.998-256s255.998,114.615,255.998,256s-68.998,260-255.996,256
	L1215,704v256v64v128h192v-128v-64v-75.927c217-28.863,384.964-214.892,384.964-440.088C1791.964,198.779,1593.184,0,1347.981,0z"/>
</svg>
