<?xml version="1.0" encoding="utf-8"?>
<!-- Generator: Adobe Illustrator 17.1.0, SVG Export Plug-In . SVG Version: 6.00 Build 0)  -->
<!DOCTYPE svg PUBLIC "-//W3C//DTD SVG 1.1//EN" "http://www.w3.org/Graphics/SVG/1.1/DTD/svg11.dtd">
<svg version="1.1" xmlns="http://www.w3.org/2000/svg" xmlns:xlink="http://www.w3.org/1999/xlink" x="0px" y="0px"
	 viewBox="0 0 512 512" style="enable-background:new 0 0 512 512;" xml:space="preserve">
<g id="レイヤー_1">
</g>
<g id="レイヤー_2">
</g>
<g id="レイヤー_3">
</g>
<g id="レイヤー_4">
</g>
<g id="レイヤー_5">
</g>
<g id="レイヤー_6">
</g>
<g id="レイヤー_7">
</g>
<g id="レイヤー_8">
</g>
<g id="レイヤー_9">
</g>
<g id="レイヤー_10">
</g>
<g id="レイヤー_13">
</g>
<g id="レイヤー_14">
	<path d="M388.318,31.635H118.465c-12.42,0-22.488,10.04-22.488,22.424v67.656h-73.49C10.068,121.715,0,131.783,0,144.203v311.08
		c0,12.42,10.068,22.488,22.488,22.488h371.047c12.42,0,22.488-10.068,22.488-22.488v-66.731h73.489
		c12.42,0,22.488-10.04,22.488-22.424V156.365L388.318,31.635z M458.641,154.49h-70.169v-32.775h-1.091V83.23L458.641,154.49z
		 M365.738,426.237H49.036V173.249h46.942v192.878c0,12.385,10.068,22.424,22.488,22.424h247.273V426.237z M459.896,309.641v28.172
		h-28.389H175.393h-28.389v-28.172v-197.7V83.769h28.389h170.724v70.567v13.924c0,15.694,12.821,28.416,28.636,28.416h85.143
		V309.641z"/>
</g>
<g id="ledger">
</g>
<g id="レイヤー_12">
</g>
</svg>
