<?xml version="1.0" encoding="utf-8"?>
<!-- Generator: Adobe Illustrator 24.3.0, SVG Export Plug-In . SVG Version: 6.00 Build 0)  -->
<svg version="1.1" id="レイヤー_1" xmlns="http://www.w3.org/2000/svg" xmlns:xlink="http://www.w3.org/1999/xlink" x="0px"
	 y="0px" viewBox="0 0 512 512" style="enable-background:new 0 0 512 512;" xml:space="preserve">
<g id="レイヤー_1_1_">
</g>
<g id="レイヤー_2_1_">
</g>
<g id="レイヤー_3">
</g>
<g id="レイヤー_4">
</g>
<g id="レイヤー_5">
</g>
<g id="レイヤー_6">
</g>
<g id="レイヤー_7">
</g>
<g id="レイヤー_8">
</g>
<g id="レイヤー_9">
</g>
<g id="レイヤー_10">
</g>
<g id="レイヤー_11">
</g>
<g id="レイヤー_12">
</g>
<g id="レイヤー_13">
</g>
<g id="レイヤー_14">
</g>
<g id="レイヤー_15">
</g>
<g id="レイヤー_16">
</g>
<g id="レイヤー_17">
</g>
<g id="レイヤー_18">
</g>
<g id="レイヤー_19">
</g>
<g id="レイヤー_20">
</g>
<g id="レイヤー_21">
</g>
<g id="レイヤー_22">
</g>
<g id="レイヤー_23">
</g>
<g id="レイヤー_24">
</g>
<g id="レイヤー_25">
</g>
<g id="レイヤー_26">
</g>
<g id="レイヤー_27">
</g>
<g id="レイヤー_28">
</g>
<g id="レイヤー_29">
</g>
<g id="レイヤー_30">
</g>
<g id="レイヤー_31">
</g>
<g id="レイヤー_32">
</g>
<g id="レイヤー_33">
</g>
<g id="レイヤー_34">
</g>
<g id="レイヤー_35">
</g>
<g id="レイヤー_36">
</g>
<g id="レイヤー_37">
</g>
<g id="レイヤー_38">
</g>
<g id="レイヤー_39">
</g>
<g id="レイヤー_40">
</g>
<g id="レイヤー_41">
</g>
<g id="レイヤー_42">
</g>
<g id="レイヤー_43">
</g>
<g id="レイヤー_44">
</g>
<g id="レイヤー_45">
</g>
<g id="レイヤー_46">
</g>
<g id="レイヤー_47">
</g>
<g id="レイヤー_48">
</g>
<g id="レイヤー_49">
</g>
<g id="レイヤー_50">
</g>
<g id="レイヤー_51">
</g>
<g id="レイヤー_52">
</g>
<g id="レイヤー_53">
</g>
<g id="レイヤー_54">
</g>
<g id="レイヤー_55">
</g>
<g id="レイヤー_56">
</g>
<g id="レイヤー_57">
</g>
<g id="レイヤー_58">
</g>
<g id="レイヤー_59">
</g>
<g id="レイヤー_60">
</g>
<g id="レイヤー_61">
</g>
<g id="レイヤー_62">
</g>
<g id="レイヤー_63">
</g>
<g id="レイヤー_64">
</g>
<path d="M-0.1,16c0,0.1,0,0.2,0,0.3v-0.7C-0.1,15.7-0.1,15.9-0.1,16z"/>
<g>
	<path d="M284.7,87.5H25.2c-14,0-25.3,11.3-25.3,25.3v84v118.4v84c0,14,11.3,25.3,25.3,25.3h259.4c14,0,25.3-11.3,25.3-25.3v-84
		V196.8v-84C310.1,98.8,298.7,87.5,284.7,87.5z"/>
	<path d="M502.2,132.5c-6.1-4.8-14.1-6.5-21.7-4.7L356.9,158c-11.4,2.8-19.4,12.9-19.4,24.6v60c0,0.4,0,0.8,0.1,1.2
		c0,0.4-0.1,0.8-0.1,1.2v60c0,11.7,8,21.9,19.4,24.6l123.7,30.1c7.6,1.8,15.5,0.1,21.7-4.7c6.1-4.8,9.7-12.2,9.7-19.9v-62.4v-57.8
		v-62.4C511.9,144.7,508.3,137.4,502.2,132.5z"/>
</g>
</svg>
