<?xml version="1.0" encoding="utf-8"?>
<!-- Generator: Adobe Illustrator 24.3.0, SVG Export Plug-In . SVG Version: 6.00 Build 0)  -->
<svg version="1.1" id="_x32_" xmlns="http://www.w3.org/2000/svg" xmlns:xlink="http://www.w3.org/1999/xlink" x="0px" y="0px"
	 viewBox="0 0 512 512" style="enable-background:new 0 0 512 512;" xml:space="preserve">
<g>
	<path d="M268.4,46.4c-3.3-4.3-7.7-6.7-12.4-6.7c-4.7,0-9.1,2.4-12.4,6.7L154,164.5c-3.3,4.4-4.3,8.7-2.6,12
		c1.7,3.4,5.6,5.2,11.2,5.2h34.3c9.3,0,16.8,7.6,16.8,16.8V296c0,11,9,20,20,20h44.5c11,0,20-9,20-20v-97.4
		c0-9.3,7.6-16.8,16.8-16.8h34.3c5.5,0,9.5-1.8,11.2-5.2c1.7-3.4,0.7-7.6-2.6-12L268.4,46.4z"/>
	<path d="M445.2,294.2v111.3H66.8V294.2H0v152.6c0,14,11.4,25.4,25.4,25.4h461.1c14,0,25.4-11.4,25.4-25.4V294.2H445.2z"/>
</g>
</svg>
