<?xml version="1.0" encoding="iso-8859-1"?>
<!-- Generator: Adobe Illustrator 17.1.0, SVG Export Plug-In . SVG Version: 6.00 Build 0)  -->
<!DOCTYPE svg PUBLIC "-//W3C//DTD SVG 1.1//EN" "http://www.w3.org/Graphics/SVG/1.1/DTD/svg11.dtd">
<svg version="1.1" xmlns="http://www.w3.org/2000/svg" xmlns:xlink="http://www.w3.org/1999/xlink" x="0px" y="0px"
	 viewBox="0 0 512 512" style="enable-background:new 0 0 512 512;" xml:space="preserve">
<g id="&#x30EC;&#x30A4;&#x30E4;&#x30FC;_1">
</g>
<g id="&#x30EC;&#x30A4;&#x30E4;&#x30FC;_2">
</g>
<g id="&#x30EC;&#x30A4;&#x30E4;&#x30FC;_3">
</g>
<g id="&#x30EC;&#x30A4;&#x30E4;&#x30FC;_4">
</g>
<g id="&#x30EC;&#x30A4;&#x30E4;&#x30FC;_5">
</g>
<g id="&#x30EC;&#x30A4;&#x30E4;&#x30FC;_6">
</g>
<g id="&#x30EC;&#x30A4;&#x30E4;&#x30FC;_7">
</g>
<g id="&#x30EC;&#x30A4;&#x30E4;&#x30FC;_8">
</g>
<g id="&#x30EC;&#x30A4;&#x30E4;&#x30FC;_9">
</g>
<g id="&#x30EC;&#x30A4;&#x30E4;&#x30FC;_10">
</g>
<g id="&#x30EC;&#x30A4;&#x30E4;&#x30FC;_11">
</g>
<g id="&#x30EC;&#x30A4;&#x30E4;&#x30FC;_12">
</g>
<g id="&#x30EC;&#x30A4;&#x30E4;&#x30FC;_13">
</g>
<g id="&#x30EC;&#x30A4;&#x30E4;&#x30FC;_14">
</g>
<g id="&#x30EC;&#x30A4;&#x30E4;&#x30FC;_15">
</g>
<g id="&#x30EC;&#x30A4;&#x30E4;&#x30FC;_16">
</g>
<g id="&#x30EC;&#x30A4;&#x30E4;&#x30FC;_17">
</g>
<g id="&#x30EC;&#x30A4;&#x30E4;&#x30FC;_18">
</g>
<g id="&#x30EC;&#x30A4;&#x30E4;&#x30FC;_19">
</g>
<g id="&#x30EC;&#x30A4;&#x30E4;&#x30FC;_20">
</g>
<g id="&#x30EC;&#x30A4;&#x30E4;&#x30FC;_21">
</g>
<g id="&#x30EC;&#x30A4;&#x30E4;&#x30FC;_22">
</g>
<g id="&#x30EC;&#x30A4;&#x30E4;&#x30FC;_23">
	<path d="M476.854,52.571H307.687c0.165-2.091,0.171-4.227,0.171-6.4v-0.914C307.857,20.262,296.65,0,282.724,0h-51.448
		c-13.926,0-25.133,20.262-25.133,45.257v0.914c0,2.173,0.005,4.309,0.171,6.4H37.146c-9.864,0-17.86,12.664-17.86,28.286v0.571
		c0,15.622,7.996,28.286,17.86,28.286h439.708c9.864,0,17.86-12.664,17.86-28.286v-0.571
		C494.714,65.235,486.718,52.571,476.854,52.571z"/>
	<path d="M439.443,147.119H74.558c-19.875,0-35.986,16.959-35.986,37.881v288.286c0,20.921,16.111,37.881,35.986,37.881h364.884
		c19.875,0,35.986-16.959,35.986-37.881V185C475.429,164.079,459.318,147.119,439.443,147.119z M154.381,431.324
		c0,12.388-15.513,22.43-34.65,22.43h-0.7c-19.137,0-34.65-10.042-34.65-22.43V226.962c0-12.388,15.513-22.43,34.65-22.43h0.7
		c19.137,0,34.65,10.043,34.65,22.43V431.324z M289,431.324c0,12.388-15.513,22.43-34.65,22.43h-0.701
		c-19.136,0-34.649-10.042-34.649-22.43V226.962c0-12.388,15.513-22.43,34.649-22.43h0.701c19.137,0,34.65,10.043,34.65,22.43
		V431.324z M422.285,431.324c0,12.388-15.513,22.43-34.65,22.43h-0.7c-19.137,0-34.65-10.042-34.65-22.43V226.962
		c0-12.388,15.513-22.43,34.65-22.43h0.7c19.137,0,34.65,10.043,34.65,22.43V431.324z"/>
</g>
<g id="&#x30EC;&#x30A4;&#x30E4;&#x30FC;_24">
</g>
<g id="&#x30EC;&#x30A4;&#x30E4;&#x30FC;_25">
</g>
<g id="&#x30EC;&#x30A4;&#x30E4;&#x30FC;_26">
</g>
<g id="&#x30EC;&#x30A4;&#x30E4;&#x30FC;_27">
</g>
<g id="&#x30EC;&#x30A4;&#x30E4;&#x30FC;_28">
</g>
<g id="&#x30EC;&#x30A4;&#x30E4;&#x30FC;_29">
</g>
<g id="&#x30EC;&#x30A4;&#x30E4;&#x30FC;_30">
</g>
<g id="&#x30EC;&#x30A4;&#x30E4;&#x30FC;_31">
</g>
<g id="&#x30EC;&#x30A4;&#x30E4;&#x30FC;_32">
</g>
<g id="&#x30EC;&#x30A4;&#x30E4;&#x30FC;_33">
</g>
<g id="&#x30EC;&#x30A4;&#x30E4;&#x30FC;_34">
</g>
<g id="&#x30EC;&#x30A4;&#x30E4;&#x30FC;_35">
</g>
<g id="&#x30EC;&#x30A4;&#x30E4;&#x30FC;_36">
</g>
<g id="&#x30EC;&#x30A4;&#x30E4;&#x30FC;_37">
</g>
<g id="&#x30EC;&#x30A4;&#x30E4;&#x30FC;_38">
</g>
<g id="&#x30EC;&#x30A4;&#x30E4;&#x30FC;_39">
</g>
<g id="&#x30EC;&#x30A4;&#x30E4;&#x30FC;_40">
</g>
<g id="&#x30EC;&#x30A4;&#x30E4;&#x30FC;_41">
</g>
<g id="&#x30EC;&#x30A4;&#x30E4;&#x30FC;_42">
</g>
<g id="&#x30EC;&#x30A4;&#x30E4;&#x30FC;_43">
</g>
<g id="&#x30EC;&#x30A4;&#x30E4;&#x30FC;_44">
</g>
<g id="&#x30EC;&#x30A4;&#x30E4;&#x30FC;_45">
</g>
<g id="&#x30EC;&#x30A4;&#x30E4;&#x30FC;_46">
</g>
<g id="&#x30EC;&#x30A4;&#x30E4;&#x30FC;_47">
</g>
<g id="&#x30EC;&#x30A4;&#x30E4;&#x30FC;_48">
</g>
<g id="&#x30EC;&#x30A4;&#x30E4;&#x30FC;_49">
</g>
<g id="&#x30EC;&#x30A4;&#x30E4;&#x30FC;_50">
</g>
<g id="&#x30EC;&#x30A4;&#x30E4;&#x30FC;_51">
</g>
<g id="&#x30EC;&#x30A4;&#x30E4;&#x30FC;_52">
</g>
<g id="&#x30EC;&#x30A4;&#x30E4;&#x30FC;_53">
</g>
<g id="&#x30EC;&#x30A4;&#x30E4;&#x30FC;_54">
</g>
<g id="&#x30EC;&#x30A4;&#x30E4;&#x30FC;_55">
</g>
<g id="&#x30EC;&#x30A4;&#x30E4;&#x30FC;_56">
</g>
<g id="&#x30EC;&#x30A4;&#x30E4;&#x30FC;_57">
</g>
<g id="&#x30EC;&#x30A4;&#x30E4;&#x30FC;_58">
</g>
<g id="&#x30EC;&#x30A4;&#x30E4;&#x30FC;_59">
</g>
<g id="&#x30EC;&#x30A4;&#x30E4;&#x30FC;_60">
</g>
<g id="&#x30EC;&#x30A4;&#x30E4;&#x30FC;_61">
</g>
<g id="&#x30EC;&#x30A4;&#x30E4;&#x30FC;_62">
</g>
<g id="&#x30EC;&#x30A4;&#x30E4;&#x30FC;_63">
</g>
<g id="&#x30EC;&#x30A4;&#x30E4;&#x30FC;_64">
</g>
</svg>
