<?xml version="1.0" encoding="utf-8"?>
<!-- Generator: Adobe Illustrator 24.3.0, SVG Export Plug-In . SVG Version: 6.00 Build 0)  -->
<svg version="1.1" id="_x32_" xmlns="http://www.w3.org/2000/svg" xmlns:xlink="http://www.w3.org/1999/xlink" x="0px" y="0px"
	 viewBox="0 0 512 512" style="enable-background:new 0 0 512 512;" xml:space="preserve">
<path d="M478.8,136h-58.5c-13,0-24.9-7.7-30.2-19.7L372.5,77c-5.3-12-17.2-19.7-30.2-19.7H170.7c-13,0-24.9,7.7-30.3,19.7
	l-17.5,39.2c-5.3,12-17.2,19.7-30.2,19.7H34.2C15.9,136,1,151,1,169.5v251.8c0,18.5,14.8,33.4,33.2,33.4h181.7h62h200.8
	c18.3,0,33.2-15,33.2-33.4V169.5C512,151,497.1,136,478.8,136z M370,296c-16.5,92.3-131.3,97.5-131.3,97.5v32.8
	c0,5.3-9.1,7.7-13.8,3.7l-78.8-66.6c-4.2-3.5-4.2-8.8,0-12.3l78.8-66.6c4.8-4,13.8-1.6,13.8,3.7v38.9c73-0.1,106.2-18.6,121.1-34
	C363.2,289.7,370.8,291.8,370,296z M366.9,211.2l-78.8,66.6c-4.8,4-13.8,1.6-13.8-3.7v-38.9c-73,0.1-106.2,18.6-121.1,34
	c-3.4,3.5-10.9,1.4-10.2-2.8c16.5-92.3,131.3-97.5,131.3-97.5V136c0-5.3,9.1-7.7,13.8-3.7l78.8,66.6
	C371.1,202.4,371.1,207.6,366.9,211.2z"/>
</svg>
