<?xml version="1.0" encoding="utf-8"?>
<!-- Generator: Adobe Illustrator 24.2.1, SVG Export Plug-In . SVG Version: 6.00 Build 0)  -->
<svg version="1.1" id="レイヤー_1" xmlns="http://www.w3.org/2000/svg" xmlns:xlink="http://www.w3.org/1999/xlink" x="0px"
	 y="0px" viewBox="0 0 512 512" style="enable-background:new 0 0 512 512;" xml:space="preserve">
<style type="text/css">
	.st0{display:none;}
</style>
<g id="レイヤー_1_1_">
</g>
<g id="レイヤー_2_1_">
</g>
<g id="レイヤー_3">
</g>
<g id="レイヤー_4">
</g>
<g id="レイヤー_5">
</g>
<g id="レイヤー_6">
</g>
<g id="レイヤー_7">
</g>
<g id="レイヤー_8">
</g>
<g id="レイヤー_9">
</g>
<g id="レイヤー_10">
</g>
<g id="レイヤー_11">
</g>
<g id="レイヤー_12">
</g>
<g id="レイヤー_13">
</g>
<g id="レイヤー_14">
</g>
<g id="レイヤー_15">
</g>
<g id="レイヤー_16">
</g>
<g id="レイヤー_17">
</g>
<g id="レイヤー_18">
</g>
<g id="レイヤー_19">
</g>
<g id="レイヤー_20">
</g>
<g id="レイヤー_21">
</g>
<g id="レイヤー_22">
</g>
<g id="レイヤー_23">
</g>
<g id="レイヤー_24">
</g>
<g id="レイヤー_25">
</g>
<g id="レイヤー_26">
</g>
<g id="レイヤー_27">
</g>
<g id="レイヤー_28">
</g>
<g id="レイヤー_30">
</g>
<g id="レイヤー_31">
</g>
<g id="レイヤー_32">
</g>
<g id="レイヤー_33">
</g>
<g id="レイヤー_34">
</g>
<g id="レイヤー_35">
</g>
<g id="レイヤー_36">
</g>
<g id="レイヤー_37">
</g>
<g id="レイヤー_38">
</g>
<g id="レイヤー_39">
</g>
<g id="レイヤー_40">
</g>
<g id="レイヤー_41">
</g>
<g id="レイヤー_42">
</g>
<g id="レイヤー_43">
</g>
<g id="レイヤー_44">
</g>
<g id="レイヤー_45">
</g>
<g id="レイヤー_46">
</g>
<g id="レイヤー_47">
</g>
<g id="レイヤー_48">
</g>
<g id="レイヤー_49">
</g>
<g id="レイヤー_50">
</g>
<g id="レイヤー_51">
</g>
<g id="レイヤー_52">
</g>
<g id="レイヤー_53">
</g>
<g id="レイヤー_54">
</g>
<g id="レイヤー_55">
</g>
<g id="レイヤー_56">
</g>
<g id="レイヤー_57">
</g>
<g id="レイヤー_58">
</g>
<g id="レイヤー_59">
</g>
<g id="レイヤー_60">
</g>
<g id="レイヤー_61">
</g>
<g id="レイヤー_62">
</g>
<g id="レイヤー_63">
</g>
<g id="レイヤー_64">
</g>
<path class="st0" d="M224.8,415.1h-72v-72c0-13.3-10.8-24-24-24H128c-13.3,0-24,10.8-24,24v72H32c-13.3,0-24,10.8-24,24v0.8
	c0,13.3,10.8,24,24,24h72v72c0,13.3,10.8,24,24,24h0.8c13.3,0,24-10.8,24-24v-72h72c13.3,0,24-10.8,24-24v-0.8
	C248.8,425.8,238.1,415.1,224.8,415.1z"/>
<g>
	<g>
		<g>
			<g>
				<path d="M384.9,509.7c-71.4,0-129.5-58.1-129.5-129.5s58.1-129.5,129.5-129.5s129.5,58.1,129.5,129.5S456.3,509.7,384.9,509.7z
					 M384.9,290.7c-49.4,0-89.5,40.1-89.5,89.5s40.1,89.5,89.5,89.5s89.5-40.1,89.5-89.5S434.2,290.7,384.9,290.7z"/>
			</g>
		</g>
	</g>
</g>
<path d="M362.4,435.9V324.4c0-11,9-20,20-20h5c11,0,20,9,20,20V436c0,11-9,20-20,20h-5C371.3,455.9,362.4,447,362.4,435.9z"/>
<path d="M329.1,364.3h111.6c11,0,20,9,20,20v5c0,11-9,20-20,20H329.1c-11,0-20-9-20-20v-5C309.1,373.2,318,364.3,329.1,364.3z"/>
<path d="M257.1,401.3h-177h-32v-32V80.6v-32h32h128.3v96c0,17.8,14.5,32.3,32.3,32.3h15.8h80.2V260c14.9-6,31.1-9.3,48.1-9.3v-73.9
	v-48.1L256.6,0.4h-48.1H32c-17.7,0-32,14.3-32,32v385c0,17.7,14.3,32,32,32h243.5C266.4,435,260,418.7,257.1,401.3z M256.6,64.6
	l64.1,64.1h-64.1V64.6z"/>
</svg>
