<?xml version="1.0" encoding="iso-8859-1"?>
<!-- Generator: Adobe Illustrator 17.1.0, SVG Export Plug-In . SVG Version: 6.00 Build 0)  -->
<!DOCTYPE svg PUBLIC "-//W3C//DTD SVG 1.1//EN" "http://www.w3.org/Graphics/SVG/1.1/DTD/svg11.dtd">
<svg version="1.1" xmlns="http://www.w3.org/2000/svg" xmlns:xlink="http://www.w3.org/1999/xlink" x="0px" y="0px"
	 viewBox="0 0 512 512" style="enable-background:new 0 0 512 512;" xml:space="preserve">
<g id="&#x30EC;&#x30A4;&#x30E4;&#x30FC;_1">
</g>
<g id="&#x30EC;&#x30A4;&#x30E4;&#x30FC;_2">
</g>
<g id="&#x30EC;&#x30A4;&#x30E4;&#x30FC;_3">
</g>
<g id="&#x30EC;&#x30A4;&#x30E4;&#x30FC;_4">
</g>
<g id="&#x30EC;&#x30A4;&#x30E4;&#x30FC;_5">
	<path d="M438.429,73.143v1.439c0,39.601-32.103,71.704-71.704,71.704h-1.449c-39.601,0-71.704-32.103-71.704-71.704v-1.439h-73.143
		v1.439c0,39.601-32.103,71.704-71.704,71.704h-1.449c-39.601,0-71.704-32.103-71.704-71.704v-1.439H36.803
		C17.03,73.143,1,89.173,1,108.946V128v348.197C1,495.97,17.03,512,36.803,512h440.393C496.97,512,513,495.97,513,476.197V128
		v-19.054c0-19.774-16.029-35.803-35.803-35.803H438.429z"/>
	<rect x="55.857" y="182.857" style="fill:#FFFFFF;" width="402.286" height="274.286"/>
	<path d="M183.857,73.084c0,20.23-16.4,36.63-36.63,36.63h-0.74c-20.23,0-36.63-16.4-36.63-36.63V36.63
		c0-20.23,16.4-36.63,36.63-36.63h0.74c20.23,0,36.63,16.4,36.63,36.63V73.084z"/>
	<path d="M403.286,73.084c0,20.23-16.4,36.63-36.63,36.63h-0.74c-20.23,0-36.63-16.4-36.63-36.63V36.63
		c0-20.23,16.4-36.63,36.63-36.63h0.74c20.23,0,36.63,16.4,36.63,36.63V73.084z"/>
	<polygon points="238.714,219.429 220.429,219.429 147.286,219.429 147.286,256 220.429,256 220.429,292.571 147.286,292.571 
		147.286,329.143 220.429,329.143 220.429,365.714 147.286,365.714 147.286,402.286 220.429,402.286 238.714,402.286 257,402.286 
		257,219.429 	"/>
	<rect x="330.143" y="219.429" width="36.571" height="182.857"/>
</g>
<g id="&#x30EC;&#x30A4;&#x30E4;&#x30FC;_6">
</g>
<g id="&#x30EC;&#x30A4;&#x30E4;&#x30FC;_7">
</g>
<g id="&#x30EC;&#x30A4;&#x30E4;&#x30FC;_8">
</g>
<g id="&#x30EC;&#x30A4;&#x30E4;&#x30FC;_9">
</g>
<g id="&#x30EC;&#x30A4;&#x30E4;&#x30FC;_10">
</g>
<g id="&#x30EC;&#x30A4;&#x30E4;&#x30FC;_11">
</g>
<g id="&#x30EC;&#x30A4;&#x30E4;&#x30FC;_12">
</g>
<g id="&#x30EC;&#x30A4;&#x30E4;&#x30FC;_13">
</g>
<g id="&#x30EC;&#x30A4;&#x30E4;&#x30FC;_14">
</g>
<g id="&#x30EC;&#x30A4;&#x30E4;&#x30FC;_15">
</g>
<g id="&#x30EC;&#x30A4;&#x30E4;&#x30FC;_16">
</g>
<g id="&#x30EC;&#x30A4;&#x30E4;&#x30FC;_17">
</g>
<g id="&#x30EC;&#x30A4;&#x30E4;&#x30FC;_18">
</g>
<g id="&#x30EC;&#x30A4;&#x30E4;&#x30FC;_19">
</g>
<g id="&#x30EC;&#x30A4;&#x30E4;&#x30FC;_20">
</g>
<g id="&#x30EC;&#x30A4;&#x30E4;&#x30FC;_21">
</g>
<g id="&#x30EC;&#x30A4;&#x30E4;&#x30FC;_22">
</g>
<g id="&#x30EC;&#x30A4;&#x30E4;&#x30FC;_23">
</g>
<g id="&#x30EC;&#x30A4;&#x30E4;&#x30FC;_24">
</g>
<g id="&#x30EC;&#x30A4;&#x30E4;&#x30FC;_25">
</g>
<g id="&#x30EC;&#x30A4;&#x30E4;&#x30FC;_26">
</g>
<g id="&#x30EC;&#x30A4;&#x30E4;&#x30FC;_27">
</g>
<g id="&#x30EC;&#x30A4;&#x30E4;&#x30FC;_28">
</g>
<g id="&#x30EC;&#x30A4;&#x30E4;&#x30FC;_29">
</g>
<g id="&#x30EC;&#x30A4;&#x30E4;&#x30FC;_30">
</g>
<g id="&#x30EC;&#x30A4;&#x30E4;&#x30FC;_31">
</g>
<g id="&#x30EC;&#x30A4;&#x30E4;&#x30FC;_32">
</g>
<g id="&#x30EC;&#x30A4;&#x30E4;&#x30FC;_33">
</g>
<g id="&#x30EC;&#x30A4;&#x30E4;&#x30FC;_34">
</g>
<g id="&#x30EC;&#x30A4;&#x30E4;&#x30FC;_35">
</g>
<g id="&#x30EC;&#x30A4;&#x30E4;&#x30FC;_36">
</g>
<g id="&#x30EC;&#x30A4;&#x30E4;&#x30FC;_37">
</g>
<g id="&#x30EC;&#x30A4;&#x30E4;&#x30FC;_38">
</g>
<g id="&#x30EC;&#x30A4;&#x30E4;&#x30FC;_39">
</g>
<g id="&#x30EC;&#x30A4;&#x30E4;&#x30FC;_40">
</g>
<g id="&#x30EC;&#x30A4;&#x30E4;&#x30FC;_41">
</g>
<g id="&#x30EC;&#x30A4;&#x30E4;&#x30FC;_42">
</g>
<g id="&#x30EC;&#x30A4;&#x30E4;&#x30FC;_43">
</g>
<g id="&#x30EC;&#x30A4;&#x30E4;&#x30FC;_44">
</g>
<g id="&#x30EC;&#x30A4;&#x30E4;&#x30FC;_45">
</g>
<g id="&#x30EC;&#x30A4;&#x30E4;&#x30FC;_46">
</g>
<g id="&#x30EC;&#x30A4;&#x30E4;&#x30FC;_47">
</g>
<g id="&#x30EC;&#x30A4;&#x30E4;&#x30FC;_48">
</g>
<g id="&#x30EC;&#x30A4;&#x30E4;&#x30FC;_49">
</g>
<g id="&#x30EC;&#x30A4;&#x30E4;&#x30FC;_50">
</g>
<g id="&#x30EC;&#x30A4;&#x30E4;&#x30FC;_51">
</g>
<g id="&#x30EC;&#x30A4;&#x30E4;&#x30FC;_52">
</g>
<g id="&#x30EC;&#x30A4;&#x30E4;&#x30FC;_53">
</g>
<g id="&#x30EC;&#x30A4;&#x30E4;&#x30FC;_54">
</g>
<g id="&#x30EC;&#x30A4;&#x30E4;&#x30FC;_55">
</g>
<g id="&#x30EC;&#x30A4;&#x30E4;&#x30FC;_56">
</g>
<g id="&#x30EC;&#x30A4;&#x30E4;&#x30FC;_57">
</g>
<g id="&#x30EC;&#x30A4;&#x30E4;&#x30FC;_58">
</g>
<g id="&#x30EC;&#x30A4;&#x30E4;&#x30FC;_59">
</g>
<g id="&#x30EC;&#x30A4;&#x30E4;&#x30FC;_60">
</g>
<g id="&#x30EC;&#x30A4;&#x30E4;&#x30FC;_61">
</g>
<g id="&#x30EC;&#x30A4;&#x30E4;&#x30FC;_62">
</g>
<g id="&#x30EC;&#x30A4;&#x30E4;&#x30FC;_63">
</g>
<g id="&#x30EC;&#x30A4;&#x30E4;&#x30FC;_64">
</g>
</svg>
