<?xml version="1.0" encoding="iso-8859-1"?>
<!-- Generator: Adobe Illustrator 17.1.0, SVG Export Plug-In . SVG Version: 6.00 Build 0)  -->
<!DOCTYPE svg PUBLIC "-//W3C//DTD SVG 1.1//EN" "http://www.w3.org/Graphics/SVG/1.1/DTD/svg11.dtd">
<svg version="1.1" id="&#x30EC;&#x30A4;&#x30E4;&#x30FC;_1"
	 xmlns="http://www.w3.org/2000/svg" xmlns:xlink="http://www.w3.org/1999/xlink" x="0px" y="0px" viewBox="0 0 1792 1792"
	 style="enable-background:new 0 0 1792 1792;" xml:space="preserve">
<rect x="160" y="584" style="fill:#FFFFFF;" width="1472" height="1024"/>
<path style="fill:#D35871;" d="M1531,256v5.035C1531,399.639,1418.639,512,1280.035,512h-5.07
	C1136.361,512,1024,399.639,1024,261.035V256H768v5.035C768,399.639,655.639,512,517.035,512h-5.07
	C373.361,512,261,399.639,261,261.035V256H125.312C56.104,256,0,312.104,0,381.312V448v1218.688
	C0,1735.896,56.104,1792,125.312,1792h1541.375c69.208,0,125.312-56.104,125.312-125.312V448v-66.688
	C1792,312.104,1735.896,256,1666.688,256H1531z M1600,1600H192V640h1408V1600z"/>
<path style="fill:#808C88;" d="M640,255.795C640,326.601,582.601,384,511.795,384h-2.59C438.399,384,381,326.601,381,255.795
	v-127.59C381,57.399,438.399,0,509.205,0h2.59C582.601,0,640,57.399,640,128.205V255.795z"/>
<path style="fill:#808C88;" d="M1408,255.795C1408,326.601,1350.601,384,1279.795,384h-2.59C1206.399,384,1149,326.601,1149,255.795
	v-127.59C1149,57.399,1206.399,0,1277.205,0h2.59C1350.601,0,1408,57.399,1408,128.205V255.795z"/>
<polygon style="fill:#D35871;" points="832,768 768,768 512,768 512,896 768,896 768,1024 512,1024 512,1152 768,1152 768,1280 
	512,1280 512,1408 768,1408 832,1408 896,1408 896,768 "/>
<rect x="1152" y="768" style="fill:#D35871;" width="128" height="640"/>
</svg>
