<?xml version="1.0" encoding="iso-8859-1"?>
<!-- Generator: Adobe Illustrator 17.1.0, SVG Export Plug-In . SVG Version: 6.00 Build 0)  -->
<!DOCTYPE svg PUBLIC "-//W3C//DTD SVG 1.1//EN" "http://www.w3.org/Graphics/SVG/1.1/DTD/svg11.dtd">
<svg version="1.1" id="&#x30EC;&#x30A4;&#x30E4;&#x30FC;_1"
	 xmlns="http://www.w3.org/2000/svg" xmlns:xlink="http://www.w3.org/1999/xlink" x="0px" y="0px" viewBox="0 0 1792 1792"
	 style="enable-background:new 0 0 1792 1792;" xml:space="preserve">
<path style="fill:#25569E;" d="M1212.194,308.277L897.74,622.731c-0.961,0.961-2.519,0.961-3.479,0L579.806,308.277
	c-50.313-50.313-131.886-50.313-182.198,0l-89.331,89.331c-50.313,50.313-50.313,131.886,0,182.198L622.731,894.26
	c0.961,0.961,0.961,2.519,0,3.479l-314.455,314.455c-50.313,50.313-50.313,131.885,0,182.198l89.331,89.331
	c50.313,50.313,131.886,50.313,182.198,0l314.455-314.455c0.961-0.961,2.519-0.961,3.479,0l314.455,314.455
	c50.313,50.313,131.885,50.313,182.198,0l89.331-89.331c50.313-50.313,50.313-131.886,0-182.198L1169.269,897.74
	c-0.961-0.961-0.961-2.519,0-3.479l314.455-314.455c50.313-50.313,50.313-131.886,0-182.198l-89.331-89.331
	C1344.08,257.964,1262.507,257.964,1212.194,308.277z"/>
</svg>
