<?xml version="1.0" encoding="iso-8859-1"?>
<!-- Generator: Adobe Illustrator 17.1.0, SVG Export Plug-In . SVG Version: 6.00 Build 0)  -->
<!DOCTYPE svg PUBLIC "-//W3C//DTD SVG 1.1//EN" "http://www.w3.org/Graphics/SVG/1.1/DTD/svg11.dtd">
<svg version="1.1" id="&#x30EC;&#x30A4;&#x30E4;&#x30FC;_1"
	 xmlns="http://www.w3.org/2000/svg" xmlns:xlink="http://www.w3.org/1999/xlink" x="0px" y="0px" viewBox="0 0 1792 1792"
	 style="enable-background:new 0 0 1792 1792;" xml:space="preserve">
<path style="fill:#6BDB6F;" d="M1457.535,0H142.465C63.784,0,0,89.808,0,200.591v622.818c0,107.624,60.199,195.442,135.772,200.364
	l-79.789,451.46c-13.155,74.433,84.212,114.517,127.274,52.396L532.363,1024h925.171c78.681,0,142.465-89.808,142.465-200.591
	V200.591C1600,89.808,1536.216,0,1457.535,0z"/>
<path style="fill:#6B7EDB;" d="M1728,847.203v100.484c0,128.984-68.887,233.313-153.863,233.313H574.952L512,1278.924v170.633
	C512,1532.644,563.027,1600,625.972,1600h609.229l208.01,173.341c39.799,33.166,99.393-1.003,90.876-52.105L1513.881,1600h164.146
	c62.945,0,113.972-67.356,113.972-150.443V982.443C1792,923.018,1765.896,871.647,1728,847.203z"/>
</svg>
