<?xml version="1.0" encoding="iso-8859-1"?>
<!-- Generator: Adobe Illustrator 17.1.0, SVG Export Plug-In . SVG Version: 6.00 Build 0)  -->
<!DOCTYPE svg PUBLIC "-//W3C//DTD SVG 1.1//EN" "http://www.w3.org/Graphics/SVG/1.1/DTD/svg11.dtd">
<svg version="1.1" id="&#x30EC;&#x30A4;&#x30E4;&#x30FC;_1"
	 xmlns="http://www.w3.org/2000/svg" xmlns:xlink="http://www.w3.org/1999/xlink" x="0px" y="0px" viewBox="0 0 1792 1792"
	 style="enable-background:new 0 0 1792 1792;" xml:space="preserve">
<path style="fill:#3498DB;" d="M652.94,128H543h-58.634H198h-39H29.426c-26.727,0-40.112,32.314-21.213,51.213L71.82,242.82
	C80.259,251.259,85,262.705,85,274.64V384v320h1v708.045C86,1551.196,198.804,1664,337.955,1664h5.09
	C482.196,1664,595,1551.196,595,1412.045V704h2V384V274.64c0-11.935,4.924-23.381,13.363-31.82l63.698-63.607
	C692.96,160.314,679.667,128,652.94,128z"/>
<path style="fill:#1ABC9C;" d="M1790.109,1586.355L1558,832V512V274.64c0-11.935,4.924-23.381,13.363-31.82l63.698-63.607
	c18.899-18.899,5.605-51.213-21.122-51.213h-168.574H1159H990.426c-26.727,0-40.112,32.314-21.213,51.213l63.607,63.607
	c8.439,8.439,13.18,19.885,13.18,31.82V512v320l-232.109,754.355c-11.872,38.583,16.978,77.645,57.347,77.645h861.525
	C1773.131,1664,1801.981,1624.938,1790.109,1586.355z"/>
<rect x="-1457" y="-119" style="fill:#3498DB;" width="267" height="282"/>
<rect x="-1457" y="430" style="fill:#1ABC9C;" width="414" height="146"/>
<rect x="-1043" y="-98" style="fill:#B3B3B3;" width="228" height="342"/>
<rect x="351" y="384" style="fill:#FFFFFF;" width="192" height="64"/>
<rect x="351" y="639" style="fill:#FFFFFF;" width="192" height="64"/>
<rect x="351" y="894" style="fill:#FFFFFF;" width="192" height="64"/>
<rect x="1302" y="384" style="fill:#FFFFFF;" width="192" height="64"/>
<rect x="1302" y="639" style="fill:#FFFFFF;" width="192" height="64"/>
<rect x="1302" y="894" style="fill:#FFFFFF;" width="192" height="64"/>
</svg>
