<?xml version="1.0" encoding="iso-8859-1"?>
<!-- Generator: Adobe Illustrator 17.1.0, SVG Export Plug-In . SVG Version: 6.00 Build 0)  -->
<!DOCTYPE svg PUBLIC "-//W3C//DTD SVG 1.1//EN" "http://www.w3.org/Graphics/SVG/1.1/DTD/svg11.dtd">
<svg version="1.1" id="&#x30EC;&#x30A4;&#x30E4;&#x30FC;_1"
	 xmlns="http://www.w3.org/2000/svg" xmlns:xlink="http://www.w3.org/1999/xlink" x="0px" y="0px" viewBox="0 0 1792 1792"
	 style="enable-background:new 0 0 1792 1792;" xml:space="preserve">
<rect x="128" y="584" style="fill:#FFFFFF;" width="1472" height="1024"/>
<path style="fill:#DB6B7E;" d="M1531,256v5.035C1531,399.639,1418.639,512,1280.035,512h-5.07
	C1136.361,512,1024,399.639,1024,261.035V256H768v5.035C768,399.639,655.639,512,517.035,512h-5.07
	C373.361,512,261,399.639,261,261.035V256H125.964C56.396,256,0,312.396,0,381.964V448v1218.036
	C0,1735.604,56.396,1792,125.964,1792h1540.072c69.568,0,125.964-56.396,125.964-125.964V448v-66.036
	C1792,312.396,1735.604,256,1666.036,256H1531z M1600,1600H192V640h1408V1600z"/>
<path style="fill:#808C88;" d="M640,255.795C640,326.601,582.601,384,511.795,384h-2.59C438.399,384,381,326.601,381,255.795
	v-127.59C381,57.399,438.399,0,509.205,0h2.59C582.601,0,640,57.399,640,128.205V255.795z"/>
<path style="fill:#808C88;" d="M1408,255.795C1408,326.601,1350.601,384,1279.795,384h-2.59C1206.399,384,1149,326.601,1149,255.795
	v-127.59C1149,57.399,1206.399,0,1277.205,0h2.59C1350.601,0,1408,57.399,1408,128.205V255.795z"/>
<polygon style="fill:#5F8BD8;" points="1306.921,1015.373 1125.902,834.353 854.373,1105.882 628.098,879.608 447.079,1060.627 
	673.353,1286.902 854.373,1467.921 "/>
</svg>
