<?xml version="1.0" encoding="iso-8859-1"?>
<!-- Generator: Adobe Illustrator 17.1.0, SVG Export Plug-In . SVG Version: 6.00 Build 0)  -->
<!DOCTYPE svg PUBLIC "-//W3C//DTD SVG 1.1//EN" "http://www.w3.org/Graphics/SVG/1.1/DTD/svg11.dtd">
<svg version="1.1" id="&#x30EC;&#x30A4;&#x30E4;&#x30FC;_1"
	 xmlns="http://www.w3.org/2000/svg" xmlns:xlink="http://www.w3.org/1999/xlink" x="0px" y="0px" viewBox="0 0 1792 1792"
	 style="enable-background:new 0 0 1792 1792;" xml:space="preserve">
<path style="fill:#3498DB;" d="M1210.452,0.452h-123L1087,0v0.452H816H383h-2.55C241.026,0.452,128,113.477,128,252.902v1287.1
	c0,139.424,113.026,252.45,252.45,252.45H383h433h594.55c139.424,0,252.45-113.026,252.45-252.45V453L1210.452,0.452z"/>
<g>
	<path style="fill:#2980B9;" d="M1209,0v327.249c0,69.7,56.503,126.203,126.203,126.203h327.249L1209,0z"/>
</g>
<g>
	<path style="fill:#FFFFFF;" d="M582.048,1408.541c-7.731,0-14.395-3.127-19.971-9.365c-5.587-6.25-8.375-14.115-8.375-23.596
		V807.758l-105.01,232.972c-5.154,11.494-13.529,17.229-25.125,17.229s-19.971-5.734-25.125-17.229L293.433,807.758v567.822
		c0,9.48-2.798,17.475-8.375,23.971c-5.587,6.484-12.24,9.738-19.971,9.738c-8.164,0-15.039-3.254-20.615-9.738
		c-5.587-6.496-8.375-14.49-8.375-23.971V674.417c0-7.982,2.033-14.854,6.12-20.601c4.077-5.735,9.341-9.609,15.784-11.611
		c6.442-1.989,12.562-1.498,18.36,1.499c5.798,2.996,10.409,7.994,13.851,14.981l133.355,295.148l133.356-295.148
		c3.433-6.987,8.053-11.985,13.851-14.981c5.798-2.997,11.918-3.488,18.361-1.499c6.442,2.002,11.697,5.876,15.784,11.611
		c4.077,5.747,6.12,12.618,6.12,20.601v701.163c0,9.48-2.798,17.346-8.375,23.596
		C597.076,1405.414,590.201,1408.541,582.048,1408.541z"/>
	<path style="fill:#FFFFFF;" d="M708.96,1236.996c3.433,14.875,9.019,28.887,16.75,42.031c7.73,13.133,16.961,24.416,27.702,33.85
		c10.73,9.41,22.87,16.855,36.399,22.309c13.529,5.455,27.803,8.182,42.841,8.182c15.029,0,29.735-2.879,44.13-8.613
		c14.384-5.748,27.158-14.117,38.331-25.096c6.01-5.502,12.885-7.748,20.616-6.742c7.73,0.996,13.952,4.986,18.683,11.986
		c4.721,6.988,6.764,14.994,6.12,24.029c-0.645,9.014-3.976,16.305-9.985,21.865c-16.328,15.66-34.577,27.658-54.76,35.992
		c-20.193,8.334-41.231,12.5-63.135,12.5c-24.48,0-47.673-5.244-69.577-15.73c-21.904-10.488-41.664-25.225-59.269-44.197
		c-18.039-19.477-31.678-41.576-40.909-66.297c-9.231-24.721-13.851-50.822-13.851-78.281s4.62-53.561,13.851-78.281
		c9.23-24.721,22.87-46.818,40.909-66.295c17.605-18.975,37.365-33.711,59.269-44.197c21.904-10.488,45.096-15.732,69.577-15.732
		c24.904,0,48.529,5.373,70.865,16.107c22.326,10.744,41.875,25.223,58.625,43.447c16.75,18.236,29.957,39.832,39.62,64.797
		c9.663,24.979,14.495,51.689,14.495,80.154c0,8.99-2.798,16.598-8.375,22.848c-5.586,6.238-12.24,9.365-19.971,9.365H708.96z
		 M953.123,1159.182c-9.451-27.764-25.023-50.201-46.706-67.314c-21.692-17.111-46.284-25.668-73.765-25.668
		c-15.039,0-29.312,2.727-42.841,8.182s-25.769,12.898-36.721,22.32c-10.952,9.424-20.192,20.578-27.702,33.477
		c-7.52,12.898-12.995,27.025-16.428,42.395h247.384C955.912,1168.113,954.835,1163.652,953.123,1159.182z"/>
	<path style="fill:#FFFFFF;" d="M1351.896,674.417c0-9.48,2.789-17.476,8.375-23.972c5.577-6.484,12.452-9.738,20.615-9.738
		c7.731,0,14.385,3.254,19.972,9.738c5.577,6.496,8.375,14.491,8.375,23.972v701.163c0,9.48-2.798,17.475-8.375,23.971
		c-5.587,6.484-12.24,9.738-19.972,9.738c-8.163,0-15.038-3.219-20.615-9.621c-5.586-6.426-8.375-14.326-8.375-23.713v-25.178
		c-18.038,18.762-38.119,33.207-60.234,43.33c-22.126,10.113-45.419,15.182-69.899,15.182c-24.913,0-48.64-5.244-71.188-15.73
		c-22.548-10.488-42.841-25.471-60.88-44.947c-18.039-19.98-31.789-42.582-41.23-67.793c-9.442-25.225-14.174-52.062-14.174-80.529
		s4.731-55.305,14.174-80.529c9.441-25.211,23.191-47.568,41.23-67.045s38.332-34.459,60.88-44.945
		c22.548-10.488,46.274-15.732,71.188-15.732c24.48,0,47.773,4.998,69.899,14.982c22.115,9.996,42.196,24.475,60.234,43.449V674.417
		z M1221.763,1057.959c-18.038,0-35.011,3.758-50.895,11.271c-15.894,7.516-29.634,17.779-41.23,30.795
		s-20.837,28.162-27.702,45.439c-6.875,17.275-10.308,35.676-10.308,55.199s3.433,37.924,10.308,55.211
		c6.865,17.264,16.105,32.41,27.702,45.438c11.597,13.004,25.337,23.27,41.23,30.795c15.884,7.504,32.856,11.26,50.895,11.26
		s34.999-3.756,50.894-11.26c15.885-7.525,29.635-17.791,41.23-30.795c11.597-13.027,20.828-28.174,27.703-45.438
		c6.865-17.287,10.307-35.688,10.307-55.211s-3.441-37.924-10.307-55.199c-6.875-17.277-16.106-32.424-27.703-45.439
		c-11.596-13.016-25.346-23.279-41.23-30.795C1256.762,1061.717,1239.801,1057.959,1221.763,1057.959z"/>
	<path style="fill:#FFFFFF;" d="M1528.412,1405.543c-9.02,0-16.86-3.873-23.514-11.609c-6.664-7.75-9.986-16.855-9.986-27.344
		c0-10.486,3.322-19.477,9.986-26.967c6.653-7.492,14.494-11.236,23.514-11.236s16.75,3.744,23.192,11.236
		c6.442,7.49,9.663,16.48,9.663,26.967c0,10.488-3.221,19.594-9.663,27.344C1545.162,1401.67,1537.432,1405.543,1528.412,1405.543z"
		/>
</g>
</svg>
