<?xml version="1.0" encoding="iso-8859-1"?>
<!-- Generator: Adobe Illustrator 17.1.0, SVG Export Plug-In . SVG Version: 6.00 Build 0)  -->
<!DOCTYPE svg PUBLIC "-//W3C//DTD SVG 1.1//EN" "http://www.w3.org/Graphics/SVG/1.1/DTD/svg11.dtd">
<svg version="1.1" id="&#x30EC;&#x30A4;&#x30E4;&#x30FC;_1"
	 xmlns="http://www.w3.org/2000/svg" xmlns:xlink="http://www.w3.org/1999/xlink" x="0px" y="0px" viewBox="0 0 1792 1792"
	 style="enable-background:new 0 0 1792 1792;" xml:space="preserve">
<path style="fill:#2ECC71;" d="M1211.452,0h-123L1088-0.452V0H817H384h-2.55C242.026,0,129,113.026,129,252.45v1287.1
	C129,1678.974,242.026,1792,381.45,1792H384h433h594.55c139.424,0,252.45-113.026,252.45-252.45V452.548L1211.452,0z"/>
<g>
	<path style="fill:#27AE60;" d="M1210-0.452v327.249c0,69.7,56.503,126.203,126.203,126.203h327.249L1210-0.452z"/>
</g>
<g>
	<path style="fill:#FFFFFF;" d="M617.743,1384.117c-2.002,6.987-5.876,12.852-11.611,17.604c-5.747,4.741-12.36,7.117-19.851,7.117
		c-7.995,0-14.865-2.376-20.601-7.117c-5.747-4.752-9.621-10.616-11.611-17.604l-60.677-229.976l-59.928,229.976
		c-2.002,6.987-5.993,12.852-11.986,17.604c-5.993,4.741-12.735,7.117-20.226,7.117c-7.491,0-14.116-2.376-19.851-7.117
		c-5.747-4.752-9.867-10.616-12.36-17.604L184.76,682.206c-2.493-8.989-1.369-17.347,3.371-25.095
		c4.752-7.737,11.354-12.853,19.851-15.357c8.989-2.493,17.347-1.369,25.095,3.371c7.737,4.752,12.852,11.365,15.356,19.852
		l152.817,580.557l58.43-220.986L369.04,682.206c-2.505-8.989-1.381-17.347,3.371-25.095c4.74-7.737,11.611-12.853,20.601-15.357
		c8.486-2.493,16.726-1.369,24.72,3.371c7.982,4.752,13.227,11.365,15.731,19.852l59.928,229.976l60.677-229.976
		c2.493-8.486,7.608-15.1,15.357-19.852c7.737-4.74,16.105-5.864,25.095-3.371c8.486,2.505,15.099,7.62,19.852,15.357
		c4.74,7.748,5.864,16.105,3.371,25.095l-89.893,342.341l58.43,220.986l152.068-580.557c2.493-8.486,7.737-15.1,15.731-19.852
		c7.982-4.74,16.223-5.864,24.72-3.371c8.989,2.505,15.849,7.62,20.601,15.357c4.74,7.748,5.864,16.105,3.371,25.095
		L617.743,1384.117z"/>
	<path style="fill:#FFFFFF;" d="M890.415,1236.544c3.992,14.876,10.487,28.887,19.478,42.031
		c8.988,13.133,19.722,24.416,32.211,33.851c12.477,9.41,26.594,16.854,42.324,22.309c15.731,5.455,32.328,8.182,49.815,8.182
		c17.476,0,34.576-2.879,51.313-8.614c16.727-5.747,31.58-14.116,44.572-25.095c6.988-5.502,14.982-7.749,23.971-6.742
		c8.99,0.995,16.223,4.986,21.725,11.985c5.489,6.988,7.865,14.994,7.116,24.03c-0.749,9.013-4.623,16.305-11.61,21.864
		c-18.986,15.661-40.207,27.658-63.674,35.992c-23.48,8.334-47.943,12.501-73.413,12.501c-28.466,0-55.434-5.244-80.903-15.731
		c-25.469-10.487-48.445-25.224-68.917-44.197c-20.975-19.477-36.835-41.575-47.568-66.296
		c-10.733-24.721-16.105-50.822-16.105-78.281s5.373-53.561,16.105-78.281c10.733-24.721,26.593-46.819,47.568-66.296
		c20.472-18.974,43.449-33.71,68.917-44.197c25.47-10.487,52.438-15.731,80.903-15.731c28.958,0,56.429,5.373,82.401,16.106
		c25.961,10.744,48.692,25.224,68.169,43.447c19.477,18.236,34.833,39.832,46.069,64.798c11.237,24.979,16.855,51.688,16.855,80.154
		c0,8.989-3.254,16.598-9.738,22.848c-6.496,6.238-14.232,9.364-23.223,9.364H890.415z M1174.326,1158.73
		c-10.991-27.764-29.098-50.202-54.311-67.314c-25.224-17.112-53.818-25.668-85.772-25.668c-17.487,0-34.084,2.727-49.815,8.182
		c-15.73,5.454-29.964,12.898-42.699,22.32c-12.734,9.423-23.479,20.577-32.211,33.476c-8.744,12.899-15.111,27.026-19.103,42.395
		h287.656C1177.568,1167.661,1176.316,1163.201,1174.326,1158.73z"/>
	<path style="fill:#FFFFFF;" d="M1364.592,1408.838c-9.492,0-17.486-3.254-23.971-9.738c-6.496-6.496-9.738-14.491-9.738-23.972
		V673.966c0-9.48,3.242-17.347,9.738-23.597c6.484-6.238,14.479-9.364,23.971-9.364c8.99,0,16.727,3.126,23.223,9.364
		c6.484,6.25,9.738,14.116,9.738,23.597v701.162c0,9.48-3.254,17.476-9.738,23.972
		C1381.318,1405.584,1373.582,1408.838,1364.592,1408.838z"/>
	<path style="fill:#FFFFFF;" d="M1536.131,1405.092c-10.488,0-19.605-3.874-27.343-11.61c-7.749-7.749-11.611-16.855-11.611-27.343
		s3.862-19.477,11.611-26.968c7.737-7.491,16.854-11.236,27.343-11.236c10.486,0,19.477,3.745,26.967,11.236
		c7.492,7.491,11.236,16.48,11.236,26.968s-3.744,19.594-11.236,27.343C1555.607,1401.218,1546.617,1405.092,1536.131,1405.092z"/>
</g>
</svg>
