<?xml version="1.0" encoding="iso-8859-1"?>
<!-- Generator: Adobe Illustrator 17.1.0, SVG Export Plug-In . SVG Version: 6.00 Build 0)  -->
<!DOCTYPE svg PUBLIC "-//W3C//DTD SVG 1.1//EN" "http://www.w3.org/Graphics/SVG/1.1/DTD/svg11.dtd">
<svg version="1.1" id="&#x30EC;&#x30A4;&#x30E4;&#x30FC;_1"
	 xmlns="http://www.w3.org/2000/svg" xmlns:xlink="http://www.w3.org/1999/xlink" x="0px" y="0px" viewBox="0 0 1792 1792"
	 style="enable-background:new 0 0 1792 1792;" xml:space="preserve">
<g>
	<path d="M1336.206,1715.824"/>
	<path d="M369.645,1641.473"/>
	<path d="M295.294,674.912"/>
</g>
<circle style="fill:#5F8BD8;" cx="896" cy="896" r="896"/>
<path style="fill:#FFFFFF;" d="M1467.026,706H1084V322.974C1084,251.744,1026.256,194,955.026,194H828.974
	C757.744,194,700,251.744,700,322.974V706H316.974C245.744,706,188,763.744,188,834.974v126.051
	C188,1032.256,245.744,1090,316.974,1090H700v383.026c0,71.23,57.744,128.974,128.974,128.974h126.051
	c71.231,0,128.974-57.744,128.974-128.974V1090h383.026c71.231,0,128.974-57.744,128.974-128.974V834.974
	C1596,763.744,1538.256,706,1467.026,706z"/>
</svg>
