<?xml version="1.0" encoding="iso-8859-1"?>
<!-- Generator: Adobe Illustrator 17.1.0, SVG Export Plug-In . SVG Version: 6.00 Build 0)  -->
<!DOCTYPE svg PUBLIC "-//W3C//DTD SVG 1.1//EN" "http://www.w3.org/Graphics/SVG/1.1/DTD/svg11.dtd">
<svg version="1.1" id="&#x30EC;&#x30A4;&#x30E4;&#x30FC;_1"
	 xmlns="http://www.w3.org/2000/svg" xmlns:xlink="http://www.w3.org/1999/xlink" x="0px" y="0px" viewBox="0 0 1792 1792"
	 style="enable-background:new 0 0 1792 1792;" xml:space="preserve">
<path style="fill:#DB6F6B;" d="M192.825,1792h-2.65C117.729,1792,59,1733.271,59,1660.825V195.175C59,122.729,117.729,64,190.175,64
	h2.65C265.271,64,324,122.729,324,195.175v1465.65C324,1733.271,265.271,1792,192.825,1792z"/>
<path style="fill:#DB6F6B;" d="M1062.719,169.79c-25.331-19.361-292.629-213.893-570.198-24.078
	C470.96,160.456,458,184.841,458,210.962v792.115c0,57.378,59.203,95.539,111.527,71.992
	c251.557-113.207,476.221,54.386,494.015,68.154c0.858,0.664,1.727,1.314,2.61,1.944c343.439,245.03,567.649,92.069,640.224,25.382
	c16.302-14.979,25.624-36.066,25.624-58.204V305.791c0-56.557-57.717-94.699-109.786-72.619
	c-119.719,50.767-325.199,92.134-555.059-60.211C1065.641,171.958,1064.162,170.893,1062.719,169.79z"/>
</svg>
