<?xml version="1.0" encoding="utf-8"?>
<!-- Generator: Adobe Illustrator 17.1.0, SVG Export Plug-In . SVG Version: 6.00 Build 0)  -->
<!DOCTYPE svg PUBLIC "-//W3C//DTD SVG 1.1//EN" "http://www.w3.org/Graphics/SVG/1.1/DTD/svg11.dtd">
<svg version="1.1" id="svg-source" xmlns="http://www.w3.org/2000/svg" xmlns:xlink="http://www.w3.org/1999/xlink" x="0px" y="0px"
	 viewBox="120 31.9 32 32" enable-background="new 120 31.9 32 32" xml:space="preserve">
<g id="donut">
	<path fill="#E89C25" d="M136,31.9c-8.8,0-16,7.2-16,16s7.2,16,16,16s16-7.2,16-16S144.8,31.9,136,31.9z M136,53.9c-3.3,0-6-2.7-6-6
		s2.7-6,6-6s6,2.7,6,6S139.3,53.9,136,53.9z"/>
	<path fill="#7A482E" d="M151.9,49.9c0.1-0.6,0.1-1.3,0.1-2c0-2.5-0.6-4.9-1.7-7.1c-2.6-5.3-8-8.9-14.3-8.9c-8.8,0-16,7.2-16,16
		c0,0.3,0,0.7,0,1c0.7,0,1.4-0.1,2-0.2c4.5-0.8,4.9-2.1,8.5-3.2c0.9-2.1,3-3.6,5.5-3.6c3.3,0,6,2.7,6,6l0,0.1
		C144.8,49.6,150.9,49.8,151.9,49.9z"/>
	<path fill="#946C57" d="M136,36.5c6.9,0,12.5,5.4,13,12.2c0-0.3,0-0.5,0-0.8c0-7.2-5.8-13-13-13s-13,5.8-13,13c0,0.3,0,0.5,0,0.8
		C123.5,41.9,129.1,36.5,136,36.5z"/>
	<g>
		<path fill="#BB7E1F" d="M143,46.9c0-3.3-2.7-6-6-6c-1.9,0-3.6,0.9-4.7,2.3c1-0.8,2.3-1.3,3.7-1.3c3.3,0,6,2.7,6,6
			c0,1.4-0.5,2.7-1.3,3.7C142.1,50.5,143,48.8,143,46.9z M137,62.9c-8.8,0-16-7.2-16-16c0-4.2,1.6-7.9,4.2-10.8
			C122,39,120,43.2,120,47.9c0,8.8,7.2,16,16,16c4.7,0,8.9-2,11.8-5.2C144.9,61.3,141.2,62.9,137,62.9z"/>
	</g>
	<path fill="#623A25" d="M142,48c0.2,0.1,0.5,0.3,0.8,0.4c0.1-0.5,0.2-1,0.2-1.5c0-3.3-2.7-6-6-6c-1.9,0-3.6,0.9-4.7,2.3l0.1-0.1
		c0.2-0.1,0.4-0.2,0.5-0.4l0.3-0.1c0.2-0.1,0.4-0.2,0.6-0.3l0.3-0.1c0.2-0.1,0.4-0.1,0.7-0.2L135,42c0.3-0.1,0.6-0.1,1-0.1
		c3.3,0,6,2.7,6,6L142,48z"/>
	<path fill="#623A25" d="M121.1,48.8c-0.1-0.6-0.1-1.3-0.1-1.9c0-4.2,1.6-7.9,4.2-10.8c-0.4,0.4-0.8,0.7-1.1,1.1l0,0
		c-0.3,0.4-0.7,0.8-1,1.2l0,0.1c-0.3,0.4-0.6,0.8-0.8,1.3l-0.1,0.1c-0.2,0.4-0.4,0.8-0.6,1.2l-0.1,0.2c-0.2,0.4-0.3,0.8-0.5,1.2
		l-0.1,0.3c-0.1,0.4-0.2,0.8-0.3,1.2l-0.1,0.4c-0.1,0.4-0.1,0.8-0.2,1.2l-0.1,0.4c-0.1,0.6-0.1,1.1-0.1,1.7c0,0.3,0,0.6,0,1
		C120.4,48.9,120.8,48.8,121.1,48.8z"/>
</g>
</svg>
