<?xml version="1.0" encoding="utf-8"?>
<!-- Generator: Adobe Illustrator 17.1.0, SVG Export Plug-In . SVG Version: 6.00 Build 0)  -->
<!DOCTYPE svg PUBLIC "-//W3C//DTD SVG 1.1//EN" "http://www.w3.org/Graphics/SVG/1.1/DTD/svg11.dtd">
<svg version="1.1" id="svg-source" xmlns="http://www.w3.org/2000/svg" xmlns:xlink="http://www.w3.org/1999/xlink" x="0px" y="0px"
	 viewBox="0 -8.1 32 32" enable-background="new 0 -8.1 32 32" xml:space="preserve">
<g id="medicine">
	<path fill="#324D5B" d="M20-6.5h-8c-1.1,0-2,0.9-2,2v3h2v-2c0-0.6,0.4-1,1-1h6c0.6,0,1,0.4,1,1v2h2v-3C22-5.6,21.1-6.5,20-6.5z"/>
	<path fill="#E2574C" d="M2-1.5h28c1.1,0,2,0.9,2,2v20c0,1.1-0.9,2-2,2H2c-1.1,0-2-0.9-2-2v-20C0-0.6,0.9-1.5,2-1.5z"/>
	<path fill="#FFFFFF" d="M21,8.5h-3v-3c0-0.6-0.4-1-1-1h-2c-0.6,0-1,0.4-1,1v3h-3c-0.6,0-1,0.4-1,1v2c0,0.6,0.4,1,1,1h3v3
		c0,0.6,0.4,1,1,1h2c0.6,0,1-0.4,1-1v-3h3c0.6,0,1-0.4,1-1v-2C22,8.9,21.6,8.5,21,8.5z"/>
	<g>
		<path fill="#BF392C" d="M2-1.5c-1.1,0-2,0.9-2,2v5l7-7C7-1.5,2-1.5,2-1.5z M2,22.5h5l-7-7v5C0,21.6,0.9,22.5,2,22.5z M30-1.5h-5
			l7,7v-5C32-0.6,31.1-1.5,30-1.5z M30,22.5c1.1,0,2-0.9,2-2v-5l-7,7H30z"/>
	</g>
</g>
</svg>
