<?xml version="1.0" encoding="utf-8"?>
<!-- Generator: Adobe Illustrator 24.3.0, SVG Export Plug-In . SVG Version: 6.00 Build 0)  -->
<svg version="1.1" id="レイヤー_1" xmlns="http://www.w3.org/2000/svg" xmlns:xlink="http://www.w3.org/1999/xlink" x="0px"
	 y="0px" viewBox="0 0 512 512" style="enable-background:new 0 0 512 512;" xml:space="preserve">
<g id="レイヤー_1_1_">
</g>
<g id="レイヤー_2_1_">
</g>
<g id="レイヤー_3">
</g>
<g id="レイヤー_4">
</g>
<g id="レイヤー_5">
</g>
<g id="レイヤー_6">
</g>
<g id="レイヤー_7">
</g>
<g id="レイヤー_8">
</g>
<g id="レイヤー_9">
</g>
<g id="レイヤー_10">
</g>
<g id="レイヤー_11">
</g>
<g id="レイヤー_12">
</g>
<g id="レイヤー_13">
</g>
<g id="レイヤー_14">
</g>
<g id="レイヤー_16">
</g>
<g id="レイヤー_17">
</g>
<g id="レイヤー_18">
</g>
<g id="レイヤー_19">
</g>
<g id="レイヤー_20">
</g>
<g id="レイヤー_21">
</g>
<g id="レイヤー_22">
</g>
<g id="レイヤー_23">
</g>
<g id="レイヤー_24">
</g>
<g id="レイヤー_25">
</g>
<g id="レイヤー_26">
</g>
<g id="レイヤー_27">
</g>
<g id="レイヤー_28">
</g>
<g id="レイヤー_29">
</g>
<g id="レイヤー_30">
</g>
<g id="レイヤー_31">
</g>
<g id="レイヤー_32">
</g>
<g id="レイヤー_33">
</g>
<g id="レイヤー_34">
</g>
<g id="レイヤー_35">
</g>
<g id="レイヤー_36">
</g>
<g id="レイヤー_37">
</g>
<g id="レイヤー_38">
</g>
<g id="レイヤー_39">
</g>
<g id="レイヤー_40">
</g>
<g id="レイヤー_41">
</g>
<g id="レイヤー_42">
</g>
<g id="レイヤー_43">
</g>
<g id="レイヤー_44">
</g>
<g id="レイヤー_45">
</g>
<g id="レイヤー_46">
</g>
<g id="レイヤー_47">
</g>
<g id="レイヤー_48">
</g>
<g id="レイヤー_49">
</g>
<g id="レイヤー_50">
</g>
<g id="レイヤー_51">
</g>
<g id="レイヤー_52">
</g>
<g id="レイヤー_53">
</g>
<g id="レイヤー_54">
</g>
<g id="レイヤー_55">
</g>
<g id="レイヤー_56">
</g>
<g id="レイヤー_57">
</g>
<g id="レイヤー_58">
</g>
<g id="レイヤー_59">
</g>
<g id="レイヤー_60">
</g>
<g id="レイヤー_61">
</g>
<g id="レイヤー_62">
</g>
<g id="レイヤー_63">
</g>
<g id="レイヤー_64">
</g>
<g>
	<path d="M401.5,218.2V245c0,40-16.2,76.2-42.5,102.5c-26.3,26.3-62.5,42.5-102.5,42.5c-40,0-76.2-16.2-102.5-42.5
		c-26.3-26.3-42.5-62.5-42.5-102.5v-26.7H76.1V245c0,91.5,68.4,167,156.8,178.7V512h47.2v-88.4C368.5,412,436.9,336.5,436.9,245
		v-26.7L401.5,218.2L401.5,218.2z"/>
	<path d="M256.5,325.1c44.2,0,80.1-35.9,80.1-80.1V80.1c0-44.2-35.9-80.1-80.1-80.1c-44.2,0-80.1,35.9-80.1,80.1v164.8
		C176.4,289.1,212.3,325.1,256.5,325.1z"/>
</g>
</svg>
