<?xml version="1.0" encoding="utf-8"?>
<!-- Generator: Adobe Illustrator 17.1.0, SVG Export Plug-In . SVG Version: 6.00 Build 0)  -->
<!DOCTYPE svg PUBLIC "-//W3C//DTD SVG 1.1//EN" "http://www.w3.org/Graphics/SVG/1.1/DTD/svg11.dtd">
<svg version="1.1" id="svg-source" xmlns="http://www.w3.org/2000/svg" xmlns:xlink="http://www.w3.org/1999/xlink" x="0px" y="0px"
	 viewBox="40 31.9 32 32" enable-background="new 40 31.9 32 32" xml:space="preserve">
<g id="bill">
	<path fill="#E4E7E7" d="M42,31.9h28c0.6,0,1,0.4,1,1v31l-3-3l-3,3l-3-3l-3,3l-3-3l-3,3l-3-3l-3,3l-3-3l-3,3v-31
		C41,32.3,41.4,31.9,42,31.9z"/>
	<path fill="#E2574C" d="M57,53.9H45v2h12V53.9z"/>
	<path fill="#868686" d="M65,49.9v2h2v-2H65z M45,51.9h18v-2H45V51.9z"/>
	<path fill="#2494BC" d="M45,46.9h2v-11h-2C45,35.9,45,46.9,45,46.9z M49,46.9h3v-11h-3V46.9z M61,46.9h1v-11h-1V46.9z M64,35.9v11
		h3v-11H64z M57,46.9h2v-11h-2V46.9z M54,46.9h1v-11h-1V46.9z"/>
</g>
</svg>
