<?xml version="1.0" encoding="utf-8"?>
<!-- Generator: Adobe Illustrator 17.1.0, SVG Export Plug-In . SVG Version: 6.00 Build 0)  -->
<!DOCTYPE svg PUBLIC "-//W3C//DTD SVG 1.1//EN" "http://www.w3.org/Graphics/SVG/1.1/DTD/svg11.dtd">
<svg version="1.1" id="svg-source" xmlns="http://www.w3.org/2000/svg" xmlns:xlink="http://www.w3.org/1999/xlink" x="0px" y="0px"
	 viewBox="160 31.9 32 32" enable-background="new 160 31.9 32 32" xml:space="preserve">
<g id="briefcase">
	<path fill="#2B414D" d="M179,34.9h-6c-1.1,0-2,0.9-2,2v2h2v-1c0-0.6,0.4-1,1-1h4c0.6,0,1,0.4,1,1v1h2v-2
		C181,35.8,180.1,34.9,179,34.9z"/>
	<path fill="#475F6C" d="M162,38.9h27c1.1,0,2,0.9,2,2v18c0,1.1-0.9,2-2,2h-26c-1.1,0-2-0.9-2-2v-18C161,39.8,160.9,38.9,162,38.9z"
		/>
	<path fill="#2B414D" d="M162,38.9h28c1.1,0,2,0.9,2,2v6c0,1.1-0.9,2-2,2h-28c-1.1,0-2-0.9-2-2v-6C160,39.8,160.9,38.9,162,38.9z"/>
	<path fill="#EFC75E" d="M166,55.9c0,0,0.8,2,1.5,2c0.7,0,1.5-2,1.5-2v-17h-3V55.9z M183,38.9v17c0,0,0.8,2,1.5,2c0.7,0,1.5-2,1.5-2
		v-17H183z"/>
	<path fill="#E4E7E7" d="M165,53.9h5v-3h-5V53.9z M182,50.9v3h5v-3H182z"/>
	<path fill="#EFC75E" d="M176,41.9c1.1,0,2,0.9,2,2s-0.9,2-2,2s-2-0.9-2-2S174.9,41.9,176,41.9z"/>
</g>
</svg>
