<?xml version="1.0" encoding="utf-8"?>
<!-- Generator: Adobe Illustrator 24.2.1, SVG Export Plug-In . SVG Version: 6.00 Build 0)  -->
<svg version="1.1" id="レイヤー_1" xmlns="http://www.w3.org/2000/svg" xmlns:xlink="http://www.w3.org/1999/xlink" x="0px"
	 y="0px" viewBox="0 0 512 512" style="enable-background:new 0 0 512 512;" xml:space="preserve">
<g id="レイヤー_1_1_">
</g>
<g id="レイヤー_2_1_">
</g>
<g id="レイヤー_3">
</g>
<g id="レイヤー_4">
</g>
<g id="レイヤー_5">
</g>
<g id="レイヤー_6">
</g>
<g id="レイヤー_7">
</g>
<g id="レイヤー_8">
</g>
<g id="レイヤー_9">
</g>
<g id="レイヤー_10">
</g>
<g id="レイヤー_11">
</g>
<g id="レイヤー_12">
</g>
<g id="レイヤー_13">
</g>
<g id="レイヤー_14">
</g>
<g id="レイヤー_15">
</g>
<g id="レイヤー_16">
</g>
<g id="レイヤー_17">
</g>
<g id="レイヤー_18">
</g>
<g id="レイヤー_19">
</g>
<g id="レイヤー_20">
</g>
<g id="レイヤー_21">
</g>
<g id="レイヤー_22">
</g>
<g id="レイヤー_23">
</g>
<g id="レイヤー_24">
</g>
<g id="レイヤー_25">
</g>
<g id="レイヤー_26">
</g>
<g id="レイヤー_27">
</g>
<g id="レイヤー_28">
</g>
<g id="レイヤー_29">
</g>
<g id="レイヤー_30">
</g>
<g id="レイヤー_31">
</g>
<g id="レイヤー_32">
</g>
<g id="レイヤー_33">
</g>
<g id="レイヤー_34">
</g>
<g id="レイヤー_35">
</g>
<g id="レイヤー_36">
</g>
<g id="レイヤー_37">
</g>
<g id="レイヤー_38">
</g>
<g id="レイヤー_39">
</g>
<g id="レイヤー_40">
</g>
<g id="レイヤー_41">
</g>
<g id="レイヤー_42">
</g>
<g id="レイヤー_43">
</g>
<g id="レイヤー_44">
</g>
<g id="レイヤー_45">
</g>
<g id="レイヤー_46">
</g>
<g id="レイヤー_47">
</g>
<g id="レイヤー_48">
</g>
<g id="レイヤー_49">
</g>
<g id="レイヤー_50">
</g>
<g id="レイヤー_51">
</g>
<g id="レイヤー_52">
</g>
<g id="レイヤー_53">
</g>
<g id="レイヤー_54">
</g>
<g id="レイヤー_55">
</g>
<g id="レイヤー_56">
</g>
<g id="レイヤー_57">
</g>
<g id="レイヤー_58">
</g>
<g id="レイヤー_59">
</g>
<g id="レイヤー_60">
</g>
<g id="レイヤー_61">
</g>
<g id="レイヤー_62">
</g>
<g id="レイヤー_63">
</g>
<g id="レイヤー_64">
</g>
<g id="レイヤー_65">
</g>
<g id="レイヤー_66">
</g>
<g id="レイヤー_67">
</g>
<g id="レイヤー_68">
</g>
<g id="レイヤー_69">
</g>
<g id="レイヤー_70">
</g>
<g id="レイヤー_71">
</g>
<g id="レイヤー_72">
</g>
<g id="レイヤー_73">
</g>
<g id="レイヤー_74">
</g>
<g id="レイヤー_75">
</g>
<g id="レイヤー_76">
</g>
<g>
	<polygon points="65.8,131.9 191.8,257.9 191.8,470.6 316,470.6 316,382 441,507 472,476 96.9,100.8 	"/>
	<path d="M102.6,271.1h-53c-18.5,0-33.5,15-33.5,33.5v166h120v-166C136.1,286.1,121.1,271.1,102.6,271.1z"/>
	<path d="M316,66c0-18.5-15-33.5-33.5-33.5h-57.2c-18.5,0-33.5,15-33.5,33.5v70.7L316,260.9V66z"/>
	<path d="M459.5,148.3h-50.2c-18.5,0-33.5,15-33.5,33.5v138.9L493,437.9V181.8C493,163.3,478,148.3,459.5,148.3z"/>
</g>
</svg>
