<?xml version="1.0" encoding="iso-8859-1"?>
<!-- Generator: Adobe Illustrator 17.1.0, SVG Export Plug-In . SVG Version: 6.00 Build 0)  -->
<!DOCTYPE svg PUBLIC "-//W3C//DTD SVG 1.1//EN" "http://www.w3.org/Graphics/SVG/1.1/DTD/svg11.dtd">
<svg version="1.1" id="&#x30EC;&#x30A4;&#x30E4;&#x30FC;_1"
	 xmlns="http://www.w3.org/2000/svg" xmlns:xlink="http://www.w3.org/1999/xlink" x="0px" y="0px" viewBox="0 0 1792 1792"
	 style="enable-background:new 0 0 1792 1792;" xml:space="preserve">
<rect x="256" y="128" style="fill:#FFFFFF;" width="1280" height="1536"/>
<path style="fill:#DB9B6B;" d="M128,126.244v1539.512C128,1735.479,184.521,1792,254.244,1792h1283.512
	c69.723,0,126.244-56.521,126.244-126.244V126.244C1664,56.521,1607.479,0,1537.756,0H254.244C184.521,0,128,56.521,128,126.244z
	 M1536,1664H256V128h1280V1664z"/>
<path style="fill:#6BC1DB;" d="M983.406,745.855c83.733-38.925,142.492-130.096,142.492-236.361
	c0-141.658-104.417-256.494-233.222-256.494S659.455,367.836,659.455,509.494c0,107.388,60.194,199.345,145.342,237.561
	C672.527,782.648,576,895.994,576,1030.334v116.547c0,3.085,2.333,5.119,5.654,5.119h629.334c3.321,0,6.013-2.034,6.013-5.119
	v-116.547C1217,894.437,1118.035,780.029,983.406,745.855z"/>
<rect x="512" y="1408" style="fill:#6BC1DB;" width="768" height="128"/>
</svg>
