<?xml version="1.0" encoding="iso-8859-1"?>
<!-- Generator: Adobe Illustrator 17.1.0, SVG Export Plug-In . SVG Version: 6.00 Build 0)  -->
<!DOCTYPE svg PUBLIC "-//W3C//DTD SVG 1.1//EN" "http://www.w3.org/Graphics/SVG/1.1/DTD/svg11.dtd">
<svg version="1.1" id="&#x30EC;&#x30A4;&#x30E4;&#x30FC;_1"
	 xmlns="http://www.w3.org/2000/svg" xmlns:xlink="http://www.w3.org/1999/xlink" x="0px" y="0px" viewBox="0 0 1792 1792"
	 style="enable-background:new 0 0 1792 1792;" xml:space="preserve">
<polygon style="fill:#FFFFFF;" points="1664,1600 320,1600 320,1 1279.564,0.481 1664,384 "/>
<path style="fill:#6BAADB;" d="M1472,703.427v768.824V1600h-127.749H447.749H320v-127.749V319.749V192h127.749h511.408L1151.588,0
	H255.749C185.195,0,128,57.195,128,127.749v1536.501C128,1734.805,185.195,1792,255.749,1792h1280.501
	c70.554,0,127.749-57.195,127.749-127.749V512.856L1472,703.427z"/>
<g>
	
		<rect x="921.481" y="50.627" transform="matrix(-0.7071 -0.7071 0.7071 -0.7071 1570.8759 1696.5129)" style="fill:#F39C12;" width="430.633" height="944.581"/>
	<g>
		<polygon style="fill:#FBCC95;" points="955.012,1009.052 635.858,1023.857 650.586,704.626 		"/>
		<polygon points="741.846,1018.526 635.461,1023.461 640.37,917.05 		"/>
	</g>
</g>
</svg>
