<?xml version="1.0" encoding="iso-8859-1"?>
<!-- Generator: Adobe Illustrator 17.1.0, SVG Export Plug-In . SVG Version: 6.00 Build 0)  -->
<!DOCTYPE svg PUBLIC "-//W3C//DTD SVG 1.1//EN" "http://www.w3.org/Graphics/SVG/1.1/DTD/svg11.dtd">
<svg version="1.1" id="&#x30EC;&#x30A4;&#x30E4;&#x30FC;_1"
	 xmlns="http://www.w3.org/2000/svg" xmlns:xlink="http://www.w3.org/1999/xlink" x="0px" y="0px" viewBox="0 0 1792 1792"
	 style="enable-background:new 0 0 1792 1792;" xml:space="preserve">
<path style="fill:#6A94DB;" d="M1600.263,1792H447.737C377.19,1792,320,1726.64,320,1646.015V401.985
	C320,321.36,377.19,256,447.737,256h1152.526C1670.81,256,1728,321.36,1728,401.985v1244.03
	C1728,1726.64,1670.81,1792,1600.263,1792z"/>
<rect x="512" y="448" style="fill:#FFFFFF;" width="1024" height="1152"/>
<rect x="128" y="448" style="fill:#FFFFFF;" width="0" height="0"/>
<path style="fill:#DB6B94;" d="M1344.263,1536H191.737C121.19,1536,64,1470.64,64,1390.015V145.985C64,65.36,121.19,0,191.737,0
	h1152.526C1414.81,0,1472,65.36,1472,145.985v1244.03C1472,1470.64,1414.81,1536,1344.263,1536z"/>
<rect x="256" y="192" style="fill:#FFFFFF;" width="1024" height="1152"/>
<rect x="448" y="384" style="fill:#DB6B94;" width="640" height="128"/>
<rect x="448" y="704" style="fill:#DB6B94;" width="640" height="128"/>
<rect x="448" y="1024" style="fill:#DB6B94;" width="640" height="128"/>
</svg>
