<?xml version="1.0" encoding="iso-8859-1"?>
<!-- Generator: Adobe Illustrator 17.1.0, SVG Export Plug-In . SVG Version: 6.00 Build 0)  -->
<!DOCTYPE svg PUBLIC "-//W3C//DTD SVG 1.1//EN" "http://www.w3.org/Graphics/SVG/1.1/DTD/svg11.dtd">
<svg version="1.1" id="&#x30EC;&#x30A4;&#x30E4;&#x30FC;_1"
	 xmlns="http://www.w3.org/2000/svg" xmlns:xlink="http://www.w3.org/1999/xlink" x="0px" y="0px" viewBox="0 0 1792 1792"
	 style="enable-background:new 0 0 1792 1792;" xml:space="preserve">
<path style="fill:#6BDB6F;" d="M944.022,632.663c49.487-49.487,49.487-129.722,0-179.209L671.588,181.02L490.569,0L37.115,453.454
	c-49.487,49.487-49.487,129.722,0,179.209l1.81,1.81c49.487,49.487,129.722,49.487,179.209,0l144.434-144.434v950.3
	c0,69.985,56.734,126.72,126.72,126.72h2.56c69.986,0,126.72-56.734,126.72-126.72v-950.3l144.434,144.434
	c49.487,49.487,129.722,49.487,179.209,0L944.022,632.663z"/>
<path style="fill:#5F8BD8;" d="M1754.885,1159.337c49.487,49.487,49.487,129.722,0,179.209L1482.45,1610.98L1301.431,1792
	l-453.453-453.454c-49.487-49.487-49.487-129.722,0-179.209l1.81-1.81c49.487-49.487,129.722-49.487,179.209,0l144.434,144.434
	v-950.3c0-69.986,56.734-126.72,126.72-126.72h2.56c69.986,0,126.72,56.734,126.72,126.72v950.3l144.434-144.434
	c49.487-49.487,129.722-49.487,179.209,0L1754.885,1159.337z"/>
</svg>
