<?xml version="1.0" encoding="iso-8859-1"?>
<!-- Generator: Adobe Illustrator 17.1.0, SVG Export Plug-In . SVG Version: 6.00 Build 0)  -->
<!DOCTYPE svg PUBLIC "-//W3C//DTD SVG 1.1//EN" "http://www.w3.org/Graphics/SVG/1.1/DTD/svg11.dtd">
<svg version="1.1" id="&#x30EC;&#x30A4;&#x30E4;&#x30FC;_1"
	 xmlns="http://www.w3.org/2000/svg" xmlns:xlink="http://www.w3.org/1999/xlink" x="0px" y="0px" viewBox="0 0 1792 1792"
	 style="enable-background:new 0 0 1792 1792;" xml:space="preserve">
<path style="fill:#DB6B94;" d="M1073.943,991.225c58.142-21.552,111.306-53.357,157.291-93.225H1408V514h-0.019
	c0.006-1,0.019-1.999,0.019-3c0-282.77-229.23-512-512-512S384,228.23,384,511c0,1.001,0.013,2,0.019,3H384v384h176.766
	c45.985,39.869,99.149,71.673,157.291,93.225C487.28,1066.324,320,1288.352,320,1550.578v231.817c0,6.136,4.835,10.605,10.8,10.605
	h1130.4c5.965,0,10.8-4.469,10.8-10.605v-231.817C1472,1288.352,1304.719,1066.324,1073.943,991.225z"/>
<rect x="888" y="1327" style="fill:#FFFFFF;" width="411" height="294"/>
</svg>
