<?xml version="1.0" encoding="utf-8"?>
<!-- Generator: Adobe Illustrator 24.2.1, SVG Export Plug-In . SVG Version: 6.00 Build 0)  -->
<svg version="1.1" id="レイヤー_1" xmlns="http://www.w3.org/2000/svg" xmlns:xlink="http://www.w3.org/1999/xlink" x="0px"
	 y="0px" viewBox="0 0 1792 1792" style="enable-background:new 0 0 1792 1792;" xml:space="preserve">
<g>
	<path style="fill:#25569E;" d="M996.6,306.4H88.5c-49,0-88.5,39.5-88.5,88.5v293.9v414.3V1397c0,49,39.5,88.5,88.5,88.5h907.7
		c49,0,88.5-39.5,88.5-88.5v-293.9V688.8V394.9C1085.5,345.9,1045.6,306.4,996.6,306.4z"/>
	<path style="fill:#25569E;" d="M1757.7,463.8c-21.3-16.8-49.3-22.7-75.9-16.4l-432.5,105.7c-39.9,9.8-67.9,45.1-67.9,86.1v210
		c0,1.4,0,2.8,0.3,4.2c0,1.4-0.3,2.8-0.3,4.2v210c0,40.9,28,76.6,67.9,86.1l432.9,105.3c26.6,6.3,54.2,0.3,75.9-16.4
		c21.3-16.8,33.9-42.7,33.9-69.6V954.4V752.2V533.8C1791.7,506.5,1779.1,481,1757.7,463.8z"/>
</g>
</svg>
