<?xml version="1.0" encoding="utf-8"?>
<!-- Generator: Adobe Illustrator 19.1.0, SVG Export Plug-In . SVG Version: 6.00 Build 0)  -->
<!DOCTYPE svg PUBLIC "-//W3C//DTD SVG 1.1//EN" "http://www.w3.org/Graphics/SVG/1.1/DTD/svg11.dtd">
<svg version="1.1" id="レイヤー_1" xmlns="http://www.w3.org/2000/svg" xmlns:xlink="http://www.w3.org/1999/xlink" x="0px"
	 y="0px" viewBox="0 0 256 256" style="enable-background:new 0 0 256 256;" xml:space="preserve">
<style type="text/css">
	.st0{fill:#006CB6;}
	.st1{fill:#FFFFFF;}
</style>
<g id="XMLID_19_">
</g>
<g id="XMLID_35_">
</g>
<g id="XMLID_40_">
</g>
<g id="XMLID_41_">
</g>
<g id="XMLID_42_">
</g>
<g id="XMLID_43_">
</g>
<g id="XMLID_44_">
</g>
<g id="XMLID_45_">
</g>
<g id="XMLID_46_">
</g>
<g id="XMLID_47_">
</g>
<g id="XMLID_48_">
</g>
<g id="XMLID_49_">
</g>
<g id="XMLID_50_">
</g>
<g id="XMLID_51_">
</g>
<circle class="st0" cx="128" cy="128" r="128"/>
<path class="st1" d="M109.4,52.4c3.6,0,6.4,2.8,6.4,6.9v1.4c3.3-5,11.9-10,21.8-10c22.3,0,36.3,14,36.3,41.5v40.1
	c0,22.8-14.7,40.4-35.4,40.4c-8.8,0-19.2-3.8-23.3-10.7v52.5c0,4-2.8,6.9-6.4,6.9h-8.3c-3.6,0-6.4-2.8-6.4-6.9V59.3
	c0-4,2.8-6.9,6.4-6.9H109.4z M115.6,90.6v43c0,11.2,7.8,19.2,19.9,19.2c10,0,16.9-5.9,16.9-19.2v-43c0-11.6-5-19.9-17.8-19.9
	C120.6,70.7,115.6,81.1,115.6,90.6z"/>
</svg>
