<?xml version="1.0" encoding="iso-8859-1"?>
<!-- Generator: Adobe Illustrator 17.1.0, SVG Export Plug-In . SVG Version: 6.00 Build 0)  -->
<!DOCTYPE svg PUBLIC "-//W3C//DTD SVG 1.1//EN" "http://www.w3.org/Graphics/SVG/1.1/DTD/svg11.dtd">
<svg version="1.1" id="&#x30EC;&#x30A4;&#x30E4;&#x30FC;_1"
	 xmlns="http://www.w3.org/2000/svg" xmlns:xlink="http://www.w3.org/1999/xlink" x="0px" y="0px" viewBox="0 0 1792 1792"
	 style="enable-background:new 0 0 1792 1792;" xml:space="preserve">
<circle style="fill:#FFFFFF;" cx="895.5" cy="895.5" r="897.5"/>
<path style="fill:#25569E;" d="M895-1C400.153-1-1,400.153-1,895s401.153,896,896,896s896-401.153,896-896S1389.847-1,895-1z
	 M883.373,1471.705L747.608,1335.94l-135.765-135.765L319.095,907.427c-50.147-50.147-50.147-131.451,0-181.599l89.93-89.93
	c50.147-50.147,131.452-50.147,181.599,0l292.749,292.749l407.171-407.171c50.055-50.055,131.21-50.055,181.264,0l90.265,90.265
	c50.055,50.055,50.055,131.21,0,181.265L883.373,1471.705z"/>
</svg>
