<?xml version="1.0" encoding="iso-8859-1"?>
<!-- Generator: Adobe Illustrator 17.1.0, SVG Export Plug-In . SVG Version: 6.00 Build 0)  -->
<!DOCTYPE svg PUBLIC "-//W3C//DTD SVG 1.1//EN" "http://www.w3.org/Graphics/SVG/1.1/DTD/svg11.dtd">
<svg version="1.1" id="&#x30EC;&#x30A4;&#x30E4;&#x30FC;_1"
	 xmlns="http://www.w3.org/2000/svg" xmlns:xlink="http://www.w3.org/1999/xlink" x="0px" y="0px" viewBox="0 0 1792 1792"
	 style="enable-background:new 0 0 1792 1792;" xml:space="preserve">
<path style="fill:#808C88;" d="M1354.772,718.205l-3.62-3.62c-98.975-98.975-259.442-98.975-358.417-0.001L719.396,987.923
	l-181.021,181.021l90.51,90.51l181.021-181.021l272.434-272.434c49.487-49.487,129.72-49.486,179.207,0.001l1.811,1.811
	c49.487,49.487,49.489,129.721,0.002,179.208l-272.434,272.434l-181.019,181.019l-2.263,2.263
	c-123.718,123.718-324.306,123.719-448.024,0.001l-4.526-4.526c-123.718-123.718-123.716-324.305,0.002-448.023l638.093-638.093
	c123.718-123.718,324.303-123.717,448.021,0.001l4.526,4.526c92.382,92.382,115.831,227.554,70.183,341.712l95.896,95.896
	c92.494-169.136,67.099-385.449-76.064-528.612l-6.364-6.364c-173.979-173.979-456.052-173.979-630.031-0.001L262.251,896.352
	c-173.979,173.979-173.98,456.054-0.002,630.033l6.364,6.364c173.979,173.979,456.055,173.978,630.034-0.001l1.768-1.768
	l181.019-181.019l273.339-273.339C1453.749,977.648,1453.747,817.179,1354.772,718.205z"/>
</svg>
