<?xml version="1.0" encoding="iso-8859-1"?>
<!-- Generator: Adobe Illustrator 17.1.0, SVG Export Plug-In . SVG Version: 6.00 Build 0)  -->
<!DOCTYPE svg PUBLIC "-//W3C//DTD SVG 1.1//EN" "http://www.w3.org/Graphics/SVG/1.1/DTD/svg11.dtd">
<svg version="1.1" xmlns="http://www.w3.org/2000/svg" xmlns:xlink="http://www.w3.org/1999/xlink" x="0px" y="0px"
	 viewBox="0 0 1792 1792" style="enable-background:new 0 0 1792 1792;" xml:space="preserve">
<g id="&#x30EC;&#x30A4;&#x30E4;&#x30FC;_1">
	<path style="fill:#0071BC;" d="M1642.181,64H145.819C63.076,64-4,129.017-4,209.22V1224.43C-4,1304.633,63.076,1370,145.819,1370
		H298v284.934c0,59.97,70.491,94.485,120.129,58.688L894.824,1370h747.357c82.743,0,149.819-65.367,149.819-145.57V209.22
		C1792,129.017,1724.924,64,1642.181,64z"/>
	<g>
		<path style="fill:#F1C40F;" d="M1661.378,1656.679c-13.392-21.862-17.722-47.524-11.463-71.495l69.854-267.561
			c0.925-3.544,2.195-6.972,3.555-10.369c40.464-101.035-0.938-216.647-92.795-277.8l1.838-4.299
			c9.911-23.183-2.168-50.46-26.641-60.923l-0.895-0.383c-24.473-10.463-52.538-0.348-62.449,22.835l-1.838,4.299
			c-107.676-24.153-219.86,25.798-264.942,124.858c-1.516,3.33-3.175,6.591-5.098,9.709l-145.131,235.378
			c-13.005,21.087-34.534,35.693-59.591,41.118c-28.302,6.127-29.111,25.157-39.039,48.378
			c-26.358,61.653,92.555,171.606,265.596,245.585c173.041,73.979,334.687,83.973,361.045,22.321
			C1663.312,1695.108,1676.504,1681.372,1661.378,1656.679z"/>
		
			<ellipse transform="matrix(-0.9215 -0.3884 0.3884 -0.9215 1938.4171 3595.6389)" style="fill:#D35400;" cx="1332.562" cy="1601.935" rx="292.072" ry="92.225"/>
		<g>
			<path style="fill:#F39C12;" d="M1574.76,1653.964c-19.781,46.937-75.983,68.059-125.532,47.178
				c-49.549-20.881-73.681-75.859-53.9-122.796c6.208-14.731,16.005-26.917,28.057-36.062
				c68.057,34.169,122.46,72.703,153.168,107.066C1576,1650.895,1575.404,1652.434,1574.76,1653.964z"/>
		</g>
	</g>
	<g id="&#x30EC;&#x30A4;&#x30E4;&#x30FC;_2">
		<g id="&#x30EC;&#x30A4;&#x30E4;&#x30FC;_3">
		</g>
	</g>
	<path style="fill:#FFFFFF;" d="M955.214,676.639c103.287-29.606,178.922-124.746,178.922-237.548
		c0-136.465-110.604-247.091-247.068-247.091s-247.08,110.626-247.08,247.091c0,112.801,75.596,207.942,178.883,237.548
		C715.703,700.572,640,779.429,640,873.032v195.099c0,7.108,6.914,12.869,15.443,12.869h463.296c8.529,0,15.261-5.762,15.261-12.869
		V873.032C1134,779.43,1058.382,700.572,955.214,676.639z"/>
</g>
<g id="&#x30EC;&#x30A4;&#x30E4;&#x30FC;_4">
</g>
</svg>
