<?xml version="1.0" encoding="iso-8859-1"?>
<!-- Generator: Adobe Illustrator 17.1.0, SVG Export Plug-In . SVG Version: 6.00 Build 0)  -->
<!DOCTYPE svg PUBLIC "-//W3C//DTD SVG 1.1//EN" "http://www.w3.org/Graphics/SVG/1.1/DTD/svg11.dtd">
<svg version="1.1" id="&#x30EC;&#x30A4;&#x30E4;&#x30FC;_1"
	 xmlns="http://www.w3.org/2000/svg" xmlns:xlink="http://www.w3.org/1999/xlink" x="0px" y="0px" viewBox="0 0 1792 1792"
	 style="enable-background:new 0 0 1792 1792;" xml:space="preserve">
<path style="fill:#808C88;" d="M1664,1658.811c0,73.558-56.649,133.189-126.529,133.189H254.529
	C184.649,1792,128,1732.369,128,1658.811V645.189C128,571.631,184.649,512,254.529,512h1282.941
	c69.88,0,126.529,59.631,126.529,133.189V1658.811z"/>
<path style="fill:#808C88;" d="M1665.489,184h-592.086c0.577-7.319,0.597-14.795,0.597-22.4v-3.2C1074,70.918,1034.774,0,986.034,0
	H805.966C757.226,0,718,70.918,718,158.4v3.2c0,7.605,0.019,15.081,0.597,22.4H126.511C91.987,184,64,228.324,64,283v2
	c0,54.676,27.987,99,62.511,99h1538.977c34.524,0,62.511-44.324,62.511-99v-2C1728,228.324,1700.013,184,1665.489,184z"/>
<path style="fill:#FFFFFF;" d="M1472,1466.88c0,38.174-28.367,69.12-63.36,69.12h-1.28c-34.993,0-63.36-30.946-63.36-69.12V837.12
	c0-38.174,28.367-69.12,63.36-69.12h1.28c34.993,0,63.36,30.946,63.36,69.12V1466.88z"/>
<path style="fill:#FFFFFF;" d="M960,1466.88c0,38.174-28.367,69.12-63.36,69.12h-1.28c-34.993,0-63.36-30.946-63.36-69.12V837.12
	c0-38.174,28.367-69.12,63.36-69.12h1.28c34.993,0,63.36,30.946,63.36,69.12V1466.88z"/>
<path style="fill:#FFFFFF;" d="M448,1466.88c0,38.174-28.367,69.12-63.36,69.12h-1.28c-34.993,0-63.36-30.946-63.36-69.12V837.12
	c0-38.174,28.367-69.12,63.36-69.12h1.28c34.993,0,63.36,30.946,63.36,69.12V1466.88z"/>
</svg>
