<?xml version="1.0" encoding="iso-8859-1"?>
<!-- Generator: Adobe Illustrator 17.1.0, SVG Export Plug-In . SVG Version: 6.00 Build 0)  -->
<!DOCTYPE svg PUBLIC "-//W3C//DTD SVG 1.1//EN" "http://www.w3.org/Graphics/SVG/1.1/DTD/svg11.dtd">
<svg version="1.1" id="&#x30EC;&#x30A4;&#x30E4;&#x30FC;_1"
	 xmlns="http://www.w3.org/2000/svg" xmlns:xlink="http://www.w3.org/1999/xlink" x="0px" y="0px" viewBox="0 0 1792 1792"
	 style="enable-background:new 0 0 1792 1792;" xml:space="preserve">
<path style="fill:#E67E22;" d="M1210.452,0h-123L1087-0.452V0H816H383h-2.55C241.026,0,128,113.026,128,252.45v1287.1
	C128,1678.974,241.026,1792,380.45,1792H383h433h594.55c139.424,0,252.45-113.026,252.45-252.45V452.548L1210.452,0z"/>
<g>
	<path style="fill:#D35400;" d="M1209-0.452v327.249c0,69.7,56.503,126.203,126.203,126.203h327.249L1209-0.452z"/>
</g>
<g>
	<path style="fill:#FFFFFF;" d="M522.936,1419.757c-6.562,0-12.219-3.126-16.953-9.364c-4.742-6.25-7.109-14.116-7.109-23.597
		V818.975l-89.136,232.972c-4.375,11.494-11.484,17.229-21.327,17.229s-16.952-5.735-21.327-17.229l-89.136-232.972v567.821
		c0,9.48-2.375,17.476-7.109,23.972c-4.742,6.484-10.39,9.738-16.952,9.738c-6.929,0-12.765-3.254-17.499-9.738
		c-4.742-6.496-7.109-14.491-7.109-23.972V685.634c0-7.982,1.726-14.854,5.195-20.601c3.46-5.735,7.93-9.609,13.398-11.611
		c5.468-1.989,10.664-1.498,15.585,1.499c4.922,2.996,8.835,7.994,11.757,14.981L388.412,965.05l113.197-295.147
		c2.914-6.987,6.835-11.985,11.757-14.981c4.921-2.997,10.116-3.488,15.585-1.499c5.468,2.002,9.929,5.876,13.397,11.611
		c3.461,5.747,5.195,12.618,5.195,20.601v701.162c0,9.48-2.375,17.347-7.109,23.597
		C535.693,1416.631,529.857,1419.757,522.936,1419.757z"/>
	<path style="fill:#FFFFFF;" d="M630.664,1248.212c2.914,14.876,7.656,28.887,14.218,42.031
		c6.562,13.133,14.397,24.416,23.514,33.851c9.108,9.41,19.413,16.854,30.897,22.309c11.484,5.455,23.6,8.182,36.365,8.182
		c12.757,0,25.24-2.879,37.459-8.614c12.21-5.747,23.053-14.116,32.538-25.095c5.101-5.502,10.937-7.749,17.499-6.742
		c6.562,0.995,11.843,4.986,15.858,11.985c4.007,6.988,5.742,14.994,5.195,24.03c-0.547,9.013-3.375,16.305-8.477,21.864
		c-13.859,15.661-29.35,27.658-46.482,35.992c-17.14,8.334-34.998,12.501-53.591,12.501c-20.78,0-40.467-5.244-59.06-15.731
		s-35.365-25.224-50.31-44.197c-15.312-19.477-26.89-41.575-34.725-66.296c-7.835-24.721-11.757-50.822-11.757-78.281
		s3.922-53.561,11.757-78.281c7.835-24.721,19.413-46.819,34.725-66.296c14.944-18.974,31.717-33.71,50.31-44.197
		s38.279-15.731,59.06-15.731c21.139,0,41.193,5.373,60.153,16.106c18.952,10.744,35.545,25.224,49.763,43.447
		c14.218,18.236,25.429,39.832,33.631,64.798c8.203,24.979,12.304,51.688,12.304,80.154c0,8.989-2.375,16.598-7.109,22.848
		c-4.742,6.238-10.39,9.364-16.952,9.364H630.664z M837.919,1170.398c-8.023-27.764-21.242-50.202-39.646-67.314
		c-18.413-17.112-39.287-25.668-62.614-25.668c-12.766,0-24.881,2.727-36.365,8.182c-11.484,5.454-21.874,12.898-31.17,22.32
		c-9.296,9.423-17.14,20.577-23.514,33.476c-6.383,12.899-11.031,27.026-13.945,42.395h209.989
		C840.286,1179.329,839.372,1174.869,837.919,1170.398z"/>
	<path style="fill:#FFFFFF;" d="M997.594,1420.506c-12.766,0-24.607-3.254-35.545-9.738c-10.938-6.496-20.507-15.357-28.709-26.594
		c-8.203-11.236-14.68-24.346-19.414-39.328c-4.732-14.981-7.108-31.216-7.108-48.691V685.634c0-9.48,2.376-17.476,7.108-23.972
		c4.734-6.484,10.57-9.738,17.5-9.738c6.562,0,12.209,3.254,16.951,9.75c4.734,6.508,7.109,14.503,7.109,23.995v611.176
		c0,15.989,4.102,29.613,12.305,40.873c8.202,11.236,18.131,16.866,29.803,16.866h203.427c6.562,0,12.21,3.207,16.952,9.634
		c4.734,6.402,7.109,14.057,7.109,22.953c0,9.387-2.375,17.287-7.109,23.714c-4.742,6.402-10.39,9.621-16.952,9.621H997.594z"/>
	<path style="fill:#FFFFFF;" d="M1298.353,1420.506c-12.766,0-24.608-3.254-35.545-9.738c-10.937-6.496-20.507-15.357-28.71-26.594
		c-8.202-11.236-14.68-24.346-19.412-39.328c-4.734-14.981-7.109-31.216-7.109-48.691V685.634c0-9.48,2.375-17.476,7.109-23.972
		c4.732-6.484,10.568-9.738,17.498-9.738c6.562,0,12.211,3.254,16.953,9.75c4.733,6.508,7.109,14.503,7.109,23.995v611.176
		c0,15.989,4.101,29.613,12.303,40.873c8.203,11.236,18.132,16.866,29.804,16.866h203.427c6.562,0,12.211,3.207,16.953,9.634
		c4.732,6.402,7.108,14.057,7.108,22.953c0,9.387-2.376,17.287-7.108,23.714c-4.742,6.402-10.391,9.621-16.953,9.621H1298.353z"/>
</g>
<path style="fill:#FFFFFF;" d="M1573.656,794H1497V678.016c0-20.996-11.747-38.016-25.744-38.016h-0.512
	c-13.997,0-25.744,17.02-25.744,38.016V794h-76.656c-13.997,0-25.344,16.62-25.344,37.616v0.768
	c0,20.996,11.347,39.616,25.344,39.616H1445v113.984c0,20.996,11.747,38.016,25.744,38.016h0.512
	c13.997,0,25.744-17.02,25.744-38.016V872h76.656c13.997,0,25.344-18.62,25.344-39.616v-0.768
	C1599,810.62,1587.653,794,1573.656,794z"/>
</svg>
