<?xml version="1.0" encoding="utf-8"?>
<!-- Generator: Adobe Illustrator 24.3.0, SVG Export Plug-In . SVG Version: 6.00 Build 0)  -->
<svg version="1.1" id="レイヤー_1" xmlns="http://www.w3.org/2000/svg" xmlns:xlink="http://www.w3.org/1999/xlink" x="0px"
	 y="0px" viewBox="0 0 512 512" style="enable-background:new 0 0 512 512;" xml:space="preserve">
<g id="レイヤー_1_1_">
</g>
<g id="レイヤー_2_1_">
</g>
<g id="レイヤー_3">
</g>
<g id="レイヤー_4">
</g>
<g id="レイヤー_5">
</g>
<g id="レイヤー_6">
</g>
<g id="レイヤー_7">
</g>
<g id="レイヤー_8">
</g>
<g id="レイヤー_9">
</g>
<g id="レイヤー_10">
</g>
<g id="レイヤー_11">
</g>
<g id="レイヤー_12">
</g>
<g id="レイヤー_13">
</g>
<g id="レイヤー_14">
</g>
<g id="レイヤー_16">
</g>
<g id="レイヤー_17">
</g>
<g id="レイヤー_18">
</g>
<g id="レイヤー_19">
</g>
<g id="レイヤー_20">
</g>
<g id="レイヤー_21">
</g>
<g id="レイヤー_22">
</g>
<g id="レイヤー_23">
</g>
<g id="レイヤー_24">
</g>
<g id="レイヤー_25">
</g>
<g id="レイヤー_26">
</g>
<g id="レイヤー_27">
</g>
<g id="レイヤー_28">
</g>
<g id="レイヤー_29">
</g>
<g id="レイヤー_30">
</g>
<g id="レイヤー_31">
</g>
<g id="レイヤー_32">
</g>
<g id="レイヤー_33">
</g>
<g id="レイヤー_34">
</g>
<g id="レイヤー_35">
</g>
<g id="レイヤー_36">
</g>
<g id="レイヤー_37">
</g>
<g id="レイヤー_38">
</g>
<g id="レイヤー_39">
</g>
<g id="レイヤー_40">
</g>
<g id="レイヤー_41">
</g>
<g id="レイヤー_42">
</g>
<g id="レイヤー_43">
</g>
<g id="レイヤー_44">
</g>
<g id="レイヤー_45">
</g>
<g id="レイヤー_46">
</g>
<g id="レイヤー_47">
</g>
<g id="レイヤー_48">
</g>
<g id="レイヤー_49">
</g>
<g id="レイヤー_50">
</g>
<g id="レイヤー_51">
</g>
<g id="レイヤー_52">
</g>
<g id="レイヤー_53">
</g>
<g id="レイヤー_54">
</g>
<g id="レイヤー_55">
</g>
<g id="レイヤー_56">
</g>
<g id="レイヤー_57">
</g>
<g id="レイヤー_58">
</g>
<g id="レイヤー_59">
</g>
<g id="レイヤー_60">
</g>
<g id="レイヤー_61">
</g>
<g id="レイヤー_62">
</g>
<g id="レイヤー_63">
</g>
<g id="レイヤー_64">
</g>
<g>
	<path d="M436.9,245v-26.7h-35.4V245c0,20.7-4.4,40.4-12.2,58.2l26.4,26.4C429.2,304.4,436.9,275.6,436.9,245z"/>
	<path d="M336.6,245V80.1c0-44.2-35.9-80.1-80.1-80.1c-44.2,0-80.1,35.9-80.1,80.1v10.1l160.1,160.1
		C336.6,248.5,336.6,246.8,336.6,245z"/>
	<path d="M394.3,361.1c0.2-0.2,0.4-0.5,0.6-0.7l-25.1-25.1c-0.2,0.2-0.4,0.5-0.6,0.7l-46.3-46.3c0.2-0.3,0.4-0.5,0.6-0.8
		L176.4,141.8v1.3L85.1,51.9L59.3,77.7l117.1,117.1V245c0,44.2,35.9,80.1,80.1,80.1c14.4,0,27.9-3.9,39.6-10.6l46.7,46.7
		c-24.2,18-53.9,28.8-86.3,28.8c-40,0-76.2-16.2-102.5-42.5c-26.3-26.3-42.5-62.5-42.5-102.5v-26.7H76.1V245
		c0,91.5,68.4,167,156.8,178.7V512h47.2v-88.4c32.9-4.3,63-17.7,87.9-37.3l59.9,59.9l25.8-25.8L394.3,361.1z"/>
</g>
</svg>
