<?xml version="1.0" encoding="iso-8859-1"?>
<!-- Generator: Adobe Illustrator 17.1.0, SVG Export Plug-In . SVG Version: 6.00 Build 0)  -->
<!DOCTYPE svg PUBLIC "-//W3C//DTD SVG 1.1//EN" "http://www.w3.org/Graphics/SVG/1.1/DTD/svg11.dtd">
<svg version="1.1" xmlns="http://www.w3.org/2000/svg" xmlns:xlink="http://www.w3.org/1999/xlink" x="0px" y="0px"
	 viewBox="0 0 512 512" style="enable-background:new 0 0 512 512;" xml:space="preserve">
<g id="&#x30EC;&#x30A4;&#x30E4;&#x30FC;_1">
</g>
<g id="&#x30EC;&#x30A4;&#x30E4;&#x30FC;_2">
</g>
<g id="&#x30EC;&#x30A4;&#x30E4;&#x30FC;_3">
</g>
<g id="&#x30EC;&#x30A4;&#x30E4;&#x30FC;_4">
</g>
<g id="&#x30EC;&#x30A4;&#x30E4;&#x30FC;_5">
</g>
<g id="&#x30EC;&#x30A4;&#x30E4;&#x30FC;_6">
</g>
<g id="&#x30EC;&#x30A4;&#x30E4;&#x30FC;_7">
</g>
<g id="&#x30EC;&#x30A4;&#x30E4;&#x30FC;_8">
</g>
<g id="&#x30EC;&#x30A4;&#x30E4;&#x30FC;_9">
</g>
<g id="&#x30EC;&#x30A4;&#x30E4;&#x30FC;_10">
</g>
<g id="&#x30EC;&#x30A4;&#x30E4;&#x30FC;_11">
</g>
<g id="&#x30EC;&#x30A4;&#x30E4;&#x30FC;_12">
</g>
<g id="&#x30EC;&#x30A4;&#x30E4;&#x30FC;_13">
</g>
<g id="&#x30EC;&#x30A4;&#x30E4;&#x30FC;_14">
</g>
<g id="&#x30EC;&#x30A4;&#x30E4;&#x30FC;_15">
</g>
<g id="&#x30EC;&#x30A4;&#x30E4;&#x30FC;_16">
	<path d="M386.078,206.201l-1.034-1.034c-28.279-28.279-74.126-28.279-102.405,0l-78.097,78.097l-51.72,51.72l25.86,25.86
		l51.72-51.72l77.838-77.838c14.139-14.139,37.063-14.139,51.202,0l0.517,0.517c14.139,14.139,14.14,37.063,0.001,51.202
		l-77.838,77.838l-51.72,51.72l-0.647,0.647c-35.348,35.348-92.659,35.348-128.007,0l-1.293-1.293
		c-35.348-35.348-35.347-92.659,0.001-128.007l182.312-182.312c35.348-35.348,92.658-35.348,128.006,0l1.293,1.293
		c26.395,26.395,33.095,65.015,20.052,97.632l27.399,27.399c26.427-48.325,19.171-110.128-21.733-151.032l-1.818-1.818
		c-49.708-49.708-130.301-49.708-180.009,0L73.929,257.101C24.221,306.809,24.22,387.402,73.928,437.11l1.818,1.818
		c49.708,49.708,130.301,49.708,180.01,0l0.505-0.505l51.72-51.72l78.097-78.097C414.357,280.328,414.356,234.48,386.078,206.201z"
		/>
</g>
<g id="&#x30EC;&#x30A4;&#x30E4;&#x30FC;_17">
</g>
<g id="&#x30EC;&#x30A4;&#x30E4;&#x30FC;_18">
</g>
<g id="&#x30EC;&#x30A4;&#x30E4;&#x30FC;_19">
</g>
<g id="&#x30EC;&#x30A4;&#x30E4;&#x30FC;_20">
</g>
<g id="&#x30EC;&#x30A4;&#x30E4;&#x30FC;_21">
</g>
<g id="&#x30EC;&#x30A4;&#x30E4;&#x30FC;_22">
</g>
<g id="&#x30EC;&#x30A4;&#x30E4;&#x30FC;_23">
</g>
<g id="&#x30EC;&#x30A4;&#x30E4;&#x30FC;_24">
</g>
<g id="&#x30EC;&#x30A4;&#x30E4;&#x30FC;_25">
</g>
<g id="&#x30EC;&#x30A4;&#x30E4;&#x30FC;_26">
</g>
<g id="&#x30EC;&#x30A4;&#x30E4;&#x30FC;_27">
</g>
<g id="&#x30EC;&#x30A4;&#x30E4;&#x30FC;_28">
</g>
<g id="&#x30EC;&#x30A4;&#x30E4;&#x30FC;_29">
</g>
<g id="&#x30EC;&#x30A4;&#x30E4;&#x30FC;_30">
</g>
<g id="&#x30EC;&#x30A4;&#x30E4;&#x30FC;_31">
</g>
<g id="&#x30EC;&#x30A4;&#x30E4;&#x30FC;_32">
</g>
<g id="&#x30EC;&#x30A4;&#x30E4;&#x30FC;_33">
</g>
<g id="&#x30EC;&#x30A4;&#x30E4;&#x30FC;_34">
</g>
<g id="&#x30EC;&#x30A4;&#x30E4;&#x30FC;_35">
</g>
<g id="&#x30EC;&#x30A4;&#x30E4;&#x30FC;_36">
</g>
<g id="&#x30EC;&#x30A4;&#x30E4;&#x30FC;_37">
</g>
<g id="&#x30EC;&#x30A4;&#x30E4;&#x30FC;_38">
</g>
<g id="&#x30EC;&#x30A4;&#x30E4;&#x30FC;_39">
</g>
<g id="&#x30EC;&#x30A4;&#x30E4;&#x30FC;_40">
</g>
<g id="&#x30EC;&#x30A4;&#x30E4;&#x30FC;_41">
</g>
<g id="&#x30EC;&#x30A4;&#x30E4;&#x30FC;_42">
</g>
<g id="&#x30EC;&#x30A4;&#x30E4;&#x30FC;_43">
</g>
<g id="&#x30EC;&#x30A4;&#x30E4;&#x30FC;_44">
</g>
<g id="&#x30EC;&#x30A4;&#x30E4;&#x30FC;_45">
</g>
<g id="&#x30EC;&#x30A4;&#x30E4;&#x30FC;_46">
</g>
<g id="&#x30EC;&#x30A4;&#x30E4;&#x30FC;_47">
</g>
<g id="&#x30EC;&#x30A4;&#x30E4;&#x30FC;_48">
</g>
<g id="&#x30EC;&#x30A4;&#x30E4;&#x30FC;_49">
</g>
<g id="&#x30EC;&#x30A4;&#x30E4;&#x30FC;_50">
</g>
<g id="&#x30EC;&#x30A4;&#x30E4;&#x30FC;_51">
</g>
<g id="&#x30EC;&#x30A4;&#x30E4;&#x30FC;_52">
</g>
<g id="&#x30EC;&#x30A4;&#x30E4;&#x30FC;_53">
</g>
<g id="&#x30EC;&#x30A4;&#x30E4;&#x30FC;_54">
</g>
<g id="&#x30EC;&#x30A4;&#x30E4;&#x30FC;_55">
</g>
<g id="&#x30EC;&#x30A4;&#x30E4;&#x30FC;_56">
</g>
<g id="&#x30EC;&#x30A4;&#x30E4;&#x30FC;_57">
</g>
<g id="&#x30EC;&#x30A4;&#x30E4;&#x30FC;_58">
</g>
<g id="&#x30EC;&#x30A4;&#x30E4;&#x30FC;_59">
</g>
<g id="&#x30EC;&#x30A4;&#x30E4;&#x30FC;_60">
</g>
<g id="&#x30EC;&#x30A4;&#x30E4;&#x30FC;_61">
</g>
<g id="&#x30EC;&#x30A4;&#x30E4;&#x30FC;_62">
</g>
<g id="&#x30EC;&#x30A4;&#x30E4;&#x30FC;_63">
</g>
<g id="&#x30EC;&#x30A4;&#x30E4;&#x30FC;_64">
</g>
</svg>
