<?xml version="1.0" encoding="iso-8859-1"?>
<!-- Generator: Adobe Illustrator 17.1.0, SVG Export Plug-In . SVG Version: 6.00 Build 0)  -->
<!DOCTYPE svg PUBLIC "-//W3C//DTD SVG 1.1//EN" "http://www.w3.org/Graphics/SVG/1.1/DTD/svg11.dtd">
<svg version="1.1" xmlns="http://www.w3.org/2000/svg" xmlns:xlink="http://www.w3.org/1999/xlink" x="0px" y="0px"
	 viewBox="0 0 512 512" style="enable-background:new 0 0 512 512;" xml:space="preserve">
<g id="&#x30EC;&#x30A4;&#x30E4;&#x30FC;_1">
</g>
<g id="&#x30EC;&#x30A4;&#x30E4;&#x30FC;_2">
</g>
<g id="&#x30EC;&#x30A4;&#x30E4;&#x30FC;_3">
</g>
<g id="&#x30EC;&#x30A4;&#x30E4;&#x30FC;_4">
</g>
<g id="&#x30EC;&#x30A4;&#x30E4;&#x30FC;_5">
</g>
<g id="&#x30EC;&#x30A4;&#x30E4;&#x30FC;_6">
</g>
<g id="&#x30EC;&#x30A4;&#x30E4;&#x30FC;_7">
</g>
<g id="&#x30EC;&#x30A4;&#x30E4;&#x30FC;_8">
</g>
<g id="&#x30EC;&#x30A4;&#x30E4;&#x30FC;_9">
</g>
<g id="&#x30EC;&#x30A4;&#x30E4;&#x30FC;_10">
</g>
<g id="&#x30EC;&#x30A4;&#x30E4;&#x30FC;_11">
</g>
<g id="&#x30EC;&#x30A4;&#x30E4;&#x30FC;_12">
</g>
<g id="&#x30EC;&#x30A4;&#x30E4;&#x30FC;_13">
	<path d="M437.429,73.143v1.439c0,39.601-32.103,71.704-71.704,71.704h-1.449c-39.601,0-71.704-32.103-71.704-71.704v-1.439h-73.143
		v1.439c0,39.601-32.103,71.704-71.704,71.704h-1.449c-39.601,0-71.704-32.103-71.704-71.704v-1.439H35.99
		C16.113,73.143,0,89.256,0,109.133V128v348.01C0,495.887,16.113,512,35.99,512h440.02c19.877,0,35.99-16.113,35.99-35.99V128
		v-18.867c0-19.877-16.113-35.99-35.99-35.99L437.429,73.143z M457.143,457.143H54.857V182.857h402.286V457.143z"/>
	<path d="M183.857,73.084c0,20.23-16.4,36.63-36.63,36.63h-0.74c-20.23,0-36.63-16.4-36.63-36.63V36.63
		c0-20.23,16.4-36.63,36.63-36.63h0.74c20.23,0,36.63,16.4,36.63,36.63V73.084z"/>
	<path d="M403.286,73.084c0,20.23-16.4,36.63-36.63,36.63h-0.74c-20.23,0-36.63-16.4-36.63-36.63V36.63
		c0-20.23,16.4-36.63,36.63-36.63h0.74c20.23,0,36.63,16.4,36.63,36.63V73.084z"/>
	<polygon points="373.406,290.107 321.686,238.387 244.107,315.966 179.457,251.317 127.737,303.036 192.387,367.686 
		244.107,419.406 	"/>
</g>
<g id="&#x30EC;&#x30A4;&#x30E4;&#x30FC;_14">
</g>
<g id="&#x30EC;&#x30A4;&#x30E4;&#x30FC;_15">
</g>
<g id="&#x30EC;&#x30A4;&#x30E4;&#x30FC;_16">
</g>
<g id="&#x30EC;&#x30A4;&#x30E4;&#x30FC;_17">
</g>
<g id="&#x30EC;&#x30A4;&#x30E4;&#x30FC;_18">
</g>
<g id="&#x30EC;&#x30A4;&#x30E4;&#x30FC;_19">
</g>
<g id="&#x30EC;&#x30A4;&#x30E4;&#x30FC;_20">
</g>
<g id="&#x30EC;&#x30A4;&#x30E4;&#x30FC;_21">
</g>
<g id="&#x30EC;&#x30A4;&#x30E4;&#x30FC;_22">
</g>
<g id="&#x30EC;&#x30A4;&#x30E4;&#x30FC;_23">
</g>
<g id="&#x30EC;&#x30A4;&#x30E4;&#x30FC;_24">
</g>
<g id="&#x30EC;&#x30A4;&#x30E4;&#x30FC;_25">
</g>
<g id="&#x30EC;&#x30A4;&#x30E4;&#x30FC;_26">
</g>
<g id="&#x30EC;&#x30A4;&#x30E4;&#x30FC;_27">
</g>
<g id="&#x30EC;&#x30A4;&#x30E4;&#x30FC;_28">
</g>
<g id="&#x30EC;&#x30A4;&#x30E4;&#x30FC;_29">
</g>
<g id="&#x30EC;&#x30A4;&#x30E4;&#x30FC;_30">
</g>
<g id="&#x30EC;&#x30A4;&#x30E4;&#x30FC;_31">
</g>
<g id="&#x30EC;&#x30A4;&#x30E4;&#x30FC;_32">
</g>
<g id="&#x30EC;&#x30A4;&#x30E4;&#x30FC;_33">
</g>
<g id="&#x30EC;&#x30A4;&#x30E4;&#x30FC;_34">
</g>
<g id="&#x30EC;&#x30A4;&#x30E4;&#x30FC;_35">
</g>
<g id="&#x30EC;&#x30A4;&#x30E4;&#x30FC;_36">
</g>
<g id="&#x30EC;&#x30A4;&#x30E4;&#x30FC;_37">
</g>
<g id="&#x30EC;&#x30A4;&#x30E4;&#x30FC;_38">
</g>
<g id="&#x30EC;&#x30A4;&#x30E4;&#x30FC;_39">
</g>
<g id="&#x30EC;&#x30A4;&#x30E4;&#x30FC;_40">
</g>
<g id="&#x30EC;&#x30A4;&#x30E4;&#x30FC;_41">
</g>
<g id="&#x30EC;&#x30A4;&#x30E4;&#x30FC;_42">
</g>
<g id="&#x30EC;&#x30A4;&#x30E4;&#x30FC;_43">
</g>
<g id="&#x30EC;&#x30A4;&#x30E4;&#x30FC;_44">
</g>
<g id="&#x30EC;&#x30A4;&#x30E4;&#x30FC;_45">
</g>
<g id="&#x30EC;&#x30A4;&#x30E4;&#x30FC;_46">
</g>
<g id="&#x30EC;&#x30A4;&#x30E4;&#x30FC;_47">
</g>
<g id="&#x30EC;&#x30A4;&#x30E4;&#x30FC;_48">
</g>
<g id="&#x30EC;&#x30A4;&#x30E4;&#x30FC;_49">
</g>
<g id="&#x30EC;&#x30A4;&#x30E4;&#x30FC;_50">
</g>
<g id="&#x30EC;&#x30A4;&#x30E4;&#x30FC;_51">
</g>
<g id="&#x30EC;&#x30A4;&#x30E4;&#x30FC;_52">
</g>
<g id="&#x30EC;&#x30A4;&#x30E4;&#x30FC;_53">
</g>
<g id="&#x30EC;&#x30A4;&#x30E4;&#x30FC;_54">
</g>
<g id="&#x30EC;&#x30A4;&#x30E4;&#x30FC;_55">
</g>
<g id="&#x30EC;&#x30A4;&#x30E4;&#x30FC;_56">
</g>
<g id="&#x30EC;&#x30A4;&#x30E4;&#x30FC;_57">
</g>
<g id="&#x30EC;&#x30A4;&#x30E4;&#x30FC;_58">
</g>
<g id="&#x30EC;&#x30A4;&#x30E4;&#x30FC;_59">
</g>
<g id="&#x30EC;&#x30A4;&#x30E4;&#x30FC;_60">
</g>
<g id="&#x30EC;&#x30A4;&#x30E4;&#x30FC;_61">
</g>
<g id="&#x30EC;&#x30A4;&#x30E4;&#x30FC;_62">
</g>
<g id="&#x30EC;&#x30A4;&#x30E4;&#x30FC;_63">
</g>
<g id="&#x30EC;&#x30A4;&#x30E4;&#x30FC;_64">
</g>
</svg>
