<?xml version="1.0" encoding="iso-8859-1"?>
<!-- Generator: Adobe Illustrator 17.1.0, SVG Export Plug-In . SVG Version: 6.00 Build 0)  -->
<!DOCTYPE svg PUBLIC "-//W3C//DTD SVG 1.1//EN" "http://www.w3.org/Graphics/SVG/1.1/DTD/svg11.dtd">
<svg version="1.1" xmlns="http://www.w3.org/2000/svg" xmlns:xlink="http://www.w3.org/1999/xlink" x="0px" y="0px"
	 viewBox="0 0 512 512" style="enable-background:new 0 0 512 512;" xml:space="preserve">
<g id="&#x30EC;&#x30A4;&#x30E4;&#x30FC;_1">
</g>
<g id="&#x30EC;&#x30A4;&#x30E4;&#x30FC;_2">
</g>
<g id="&#x30EC;&#x30A4;&#x30E4;&#x30FC;_3">
</g>
<g id="&#x30EC;&#x30A4;&#x30E4;&#x30FC;_4">
</g>
<g id="&#x30EC;&#x30A4;&#x30E4;&#x30FC;_5">
</g>
<g id="&#x30EC;&#x30A4;&#x30E4;&#x30FC;_6">
</g>
<g id="&#x30EC;&#x30A4;&#x30E4;&#x30FC;_7">
</g>
<g id="&#x30EC;&#x30A4;&#x30E4;&#x30FC;_8">
</g>
<g id="&#x30EC;&#x30A4;&#x30E4;&#x30FC;_9">
</g>
<g id="&#x30EC;&#x30A4;&#x30E4;&#x30FC;_10">
</g>
<g id="&#x30EC;&#x30A4;&#x30E4;&#x30FC;_11">
</g>
<g id="&#x30EC;&#x30A4;&#x30E4;&#x30FC;_12">
</g>
<g id="&#x30EC;&#x30A4;&#x30E4;&#x30FC;_13">
</g>
<g id="&#x30EC;&#x30A4;&#x30E4;&#x30FC;_14">
</g>
<g id="&#x30EC;&#x30A4;&#x30E4;&#x30FC;_15">
</g>
<g id="&#x30EC;&#x30A4;&#x30E4;&#x30FC;_16">
</g>
<g id="&#x30EC;&#x30A4;&#x30E4;&#x30FC;_17">
</g>
<g id="&#x30EC;&#x30A4;&#x30E4;&#x30FC;_18">
</g>
<g id="&#x30EC;&#x30A4;&#x30E4;&#x30FC;_19">
</g>
<g id="&#x30EC;&#x30A4;&#x30E4;&#x30FC;_20">
	<path d="M256,18.714c-141.385,0-256,90.055-256,201.143c0,67.667,42.527,127.53,107.727,163.989l-23.059,80.006
		c-8.462,29.359,26.99,51.314,49.503,30.657l82.662-75.849C229.602,420.2,242.682,421,256,421c141.385,0,256-90.055,256-201.143
		C512,108.769,397.385,18.714,256,18.714z M109.714,274.714c-30.297,0-54.857-24.56-54.857-54.857
		c0-30.297,24.56-54.857,54.857-54.857s54.857,24.56,54.857,54.857C164.571,250.154,140.011,274.714,109.714,274.714z M256,274.714
		c-30.297,0-54.857-24.56-54.857-54.857C201.143,189.56,225.703,165,256,165s54.857,24.56,54.857,54.857
		C310.857,250.154,286.297,274.714,256,274.714z M402.286,274.714c-30.297,0-54.857-24.56-54.857-54.857
		c0-30.297,24.56-54.857,54.857-54.857s54.857,24.56,54.857,54.857C457.143,250.154,432.583,274.714,402.286,274.714z"/>
</g>
<g id="&#x30EC;&#x30A4;&#x30E4;&#x30FC;_21">
</g>
<g id="&#x30EC;&#x30A4;&#x30E4;&#x30FC;_22">
</g>
<g id="&#x30EC;&#x30A4;&#x30E4;&#x30FC;_23">
</g>
<g id="&#x30EC;&#x30A4;&#x30E4;&#x30FC;_24">
</g>
<g id="&#x30EC;&#x30A4;&#x30E4;&#x30FC;_25">
</g>
<g id="&#x30EC;&#x30A4;&#x30E4;&#x30FC;_26">
</g>
<g id="&#x30EC;&#x30A4;&#x30E4;&#x30FC;_27">
</g>
<g id="&#x30EC;&#x30A4;&#x30E4;&#x30FC;_28">
</g>
<g id="&#x30EC;&#x30A4;&#x30E4;&#x30FC;_29">
</g>
<g id="&#x30EC;&#x30A4;&#x30E4;&#x30FC;_30">
</g>
<g id="&#x30EC;&#x30A4;&#x30E4;&#x30FC;_31">
</g>
<g id="&#x30EC;&#x30A4;&#x30E4;&#x30FC;_32">
</g>
<g id="&#x30EC;&#x30A4;&#x30E4;&#x30FC;_33">
</g>
<g id="&#x30EC;&#x30A4;&#x30E4;&#x30FC;_34">
</g>
<g id="&#x30EC;&#x30A4;&#x30E4;&#x30FC;_35">
</g>
<g id="&#x30EC;&#x30A4;&#x30E4;&#x30FC;_36">
</g>
<g id="&#x30EC;&#x30A4;&#x30E4;&#x30FC;_37">
</g>
<g id="&#x30EC;&#x30A4;&#x30E4;&#x30FC;_38">
</g>
<g id="&#x30EC;&#x30A4;&#x30E4;&#x30FC;_39">
</g>
<g id="&#x30EC;&#x30A4;&#x30E4;&#x30FC;_40">
</g>
<g id="&#x30EC;&#x30A4;&#x30E4;&#x30FC;_41">
</g>
<g id="&#x30EC;&#x30A4;&#x30E4;&#x30FC;_42">
</g>
<g id="&#x30EC;&#x30A4;&#x30E4;&#x30FC;_43">
</g>
<g id="&#x30EC;&#x30A4;&#x30E4;&#x30FC;_44">
</g>
<g id="&#x30EC;&#x30A4;&#x30E4;&#x30FC;_45">
</g>
<g id="&#x30EC;&#x30A4;&#x30E4;&#x30FC;_46">
</g>
<g id="&#x30EC;&#x30A4;&#x30E4;&#x30FC;_47">
</g>
<g id="&#x30EC;&#x30A4;&#x30E4;&#x30FC;_48">
</g>
<g id="&#x30EC;&#x30A4;&#x30E4;&#x30FC;_49">
</g>
<g id="&#x30EC;&#x30A4;&#x30E4;&#x30FC;_50">
</g>
<g id="&#x30EC;&#x30A4;&#x30E4;&#x30FC;_51">
</g>
<g id="&#x30EC;&#x30A4;&#x30E4;&#x30FC;_52">
</g>
<g id="&#x30EC;&#x30A4;&#x30E4;&#x30FC;_53">
</g>
<g id="&#x30EC;&#x30A4;&#x30E4;&#x30FC;_54">
</g>
<g id="&#x30EC;&#x30A4;&#x30E4;&#x30FC;_55">
</g>
<g id="&#x30EC;&#x30A4;&#x30E4;&#x30FC;_56">
</g>
<g id="&#x30EC;&#x30A4;&#x30E4;&#x30FC;_57">
</g>
<g id="&#x30EC;&#x30A4;&#x30E4;&#x30FC;_58">
</g>
<g id="&#x30EC;&#x30A4;&#x30E4;&#x30FC;_59">
</g>
<g id="&#x30EC;&#x30A4;&#x30E4;&#x30FC;_60">
</g>
<g id="&#x30EC;&#x30A4;&#x30E4;&#x30FC;_61">
</g>
<g id="&#x30EC;&#x30A4;&#x30E4;&#x30FC;_62">
</g>
<g id="&#x30EC;&#x30A4;&#x30E4;&#x30FC;_63">
</g>
<g id="&#x30EC;&#x30A4;&#x30E4;&#x30FC;_64">
</g>
</svg>
