<?xml version="1.0" encoding="iso-8859-1"?>
<!-- Generator: Adobe Illustrator 17.1.0, SVG Export Plug-In . SVG Version: 6.00 Build 0)  -->
<!DOCTYPE svg PUBLIC "-//W3C//DTD SVG 1.1//EN" "http://www.w3.org/Graphics/SVG/1.1/DTD/svg11.dtd">
<svg version="1.1" xmlns="http://www.w3.org/2000/svg" xmlns:xlink="http://www.w3.org/1999/xlink" x="0px" y="0px"
	 viewBox="0 0 512 512" style="enable-background:new 0 0 512 512;" xml:space="preserve">
<g id="&#x30EC;&#x30A4;&#x30E4;&#x30FC;_1">
</g>
<g id="&#x30EC;&#x30A4;&#x30E4;&#x30FC;_2">
</g>
<g id="&#x30EC;&#x30A4;&#x30E4;&#x30FC;_3">
</g>
<g id="&#x30EC;&#x30A4;&#x30E4;&#x30FC;_4">
</g>
<g id="&#x30EC;&#x30A4;&#x30E4;&#x30FC;_5">
</g>
<g id="&#x30EC;&#x30A4;&#x30E4;&#x30FC;_6">
</g>
<g id="&#x30EC;&#x30A4;&#x30E4;&#x30FC;_7">
</g>
<g id="&#x30EC;&#x30A4;&#x30E4;&#x30FC;_8">
</g>
<g id="&#x30EC;&#x30A4;&#x30E4;&#x30FC;_9">
</g>
<g id="&#x30EC;&#x30A4;&#x30E4;&#x30FC;_10">
</g>
<g id="&#x30EC;&#x30A4;&#x30E4;&#x30FC;_11">
</g>
<g id="&#x30EC;&#x30A4;&#x30E4;&#x30FC;_12">
</g>
<g id="&#x30EC;&#x30A4;&#x30E4;&#x30FC;_13">
</g>
<g id="&#x30EC;&#x30A4;&#x30E4;&#x30FC;_14">
</g>
<g id="&#x30EC;&#x30A4;&#x30E4;&#x30FC;_15">
</g>
<g id="&#x30EC;&#x30A4;&#x30E4;&#x30FC;_16">
</g>
<g id="&#x30EC;&#x30A4;&#x30E4;&#x30FC;_17">
</g>
<g id="&#x30EC;&#x30A4;&#x30E4;&#x30FC;_18">
</g>
<g id="&#x30EC;&#x30A4;&#x30E4;&#x30FC;_19">
</g>
<g id="&#x30EC;&#x30A4;&#x30E4;&#x30FC;_20">
</g>
<g id="&#x30EC;&#x30A4;&#x30E4;&#x30FC;_21">
</g>
<g id="&#x30EC;&#x30A4;&#x30E4;&#x30FC;_22">
</g>
<g id="&#x30EC;&#x30A4;&#x30E4;&#x30FC;_23">
</g>
<g id="&#x30EC;&#x30A4;&#x30E4;&#x30FC;_24">
</g>
<g id="&#x30EC;&#x30A4;&#x30E4;&#x30FC;_25">
</g>
<g id="&#x30EC;&#x30A4;&#x30E4;&#x30FC;_26">
</g>
<g id="&#x30EC;&#x30A4;&#x30E4;&#x30FC;_27">
</g>
<g id="&#x30EC;&#x30A4;&#x30E4;&#x30FC;_28">
</g>
<g id="&#x30EC;&#x30A4;&#x30E4;&#x30FC;_29">
</g>
<g id="&#x30EC;&#x30A4;&#x30E4;&#x30FC;_30">
</g>
<g id="&#x30EC;&#x30A4;&#x30E4;&#x30FC;_31">
</g>
<g id="&#x30EC;&#x30A4;&#x30E4;&#x30FC;_32">
</g>
<g id="&#x30EC;&#x30A4;&#x30E4;&#x30FC;_33">
</g>
<g id="&#x30EC;&#x30A4;&#x30E4;&#x30FC;_34">
</g>
<g id="&#x30EC;&#x30A4;&#x30E4;&#x30FC;_35">
</g>
<g id="&#x30EC;&#x30A4;&#x30E4;&#x30FC;_36">
</g>
<g id="&#x30EC;&#x30A4;&#x30E4;&#x30FC;_37">
</g>
<g id="&#x30EC;&#x30A4;&#x30E4;&#x30FC;_38">
</g>
<g id="&#x30EC;&#x30A4;&#x30E4;&#x30FC;_39">
</g>
<g id="&#x30EC;&#x30A4;&#x30E4;&#x30FC;_40">
</g>
<g id="&#x30EC;&#x30A4;&#x30E4;&#x30FC;_41">
</g>
<g id="&#x30EC;&#x30A4;&#x30E4;&#x30FC;_42">
</g>
<g id="&#x30EC;&#x30A4;&#x30E4;&#x30FC;_43">
</g>
<g id="&#x30EC;&#x30A4;&#x30E4;&#x30FC;_44">
</g>
<g id="&#x30EC;&#x30A4;&#x30E4;&#x30FC;_45">
</g>
<g id="&#x30EC;&#x30A4;&#x30E4;&#x30FC;_46">
</g>
<g id="&#x30EC;&#x30A4;&#x30E4;&#x30FC;_47">
</g>
<g id="&#x30EC;&#x30A4;&#x30E4;&#x30FC;_48">
</g>
<g id="&#x30EC;&#x30A4;&#x30E4;&#x30FC;_49">
</g>
<g id="&#x30EC;&#x30A4;&#x30E4;&#x30FC;_50">
</g>
<g id="&#x30EC;&#x30A4;&#x30E4;&#x30FC;_51">
</g>
<g id="&#x30EC;&#x30A4;&#x30E4;&#x30FC;_52">
</g>
<g id="&#x30EC;&#x30A4;&#x30E4;&#x30FC;_53">
</g>
<g id="&#x30EC;&#x30A4;&#x30E4;&#x30FC;_54">
</g>
<g id="&#x30EC;&#x30A4;&#x30E4;&#x30FC;_55">
</g>
<g id="&#x30EC;&#x30A4;&#x30E4;&#x30FC;_56">
</g>
<g id="&#x30EC;&#x30A4;&#x30E4;&#x30FC;_57">
</g>
<g id="&#x30EC;&#x30A4;&#x30E4;&#x30FC;_58">
</g>
<g id="&#x30EC;&#x30A4;&#x30E4;&#x30FC;_59">
</g>
<g id="&#x30EC;&#x30A4;&#x30E4;&#x30FC;_60">
</g>
<g id="&#x30EC;&#x30A4;&#x30E4;&#x30FC;_61">
</g>
<g id="&#x30EC;&#x30A4;&#x30E4;&#x30FC;_62">
</g>
<g id="&#x30EC;&#x30A4;&#x30E4;&#x30FC;_63">
</g>
<g id="&#x30EC;&#x30A4;&#x30E4;&#x30FC;_64">
</g>
<g id="&#x30EC;&#x30A4;&#x30E4;&#x30FC;_65">
</g>
<g id="&#x30EC;&#x30A4;&#x30E4;&#x30FC;_66">
</g>
<g id="&#x30EC;&#x30A4;&#x30E4;&#x30FC;_67">
</g>
<g id="&#x30EC;&#x30A4;&#x30E4;&#x30FC;_68">
</g>
<g id="&#x30EC;&#x30A4;&#x30E4;&#x30FC;_69">
</g>
<g id="&#x30EC;&#x30A4;&#x30E4;&#x30FC;_70">
</g>
<g id="&#x30EC;&#x30A4;&#x30E4;&#x30FC;_71">
</g>
<g id="&#x30EC;&#x30A4;&#x30E4;&#x30FC;_72">
</g>
<g id="&#x30EC;&#x30A4;&#x30E4;&#x30FC;_73">
</g>
<g id="&#x30EC;&#x30A4;&#x30E4;&#x30FC;_74">
</g>
<g id="&#x30EC;&#x30A4;&#x30E4;&#x30FC;_75">
</g>
<g id="&#x30EC;&#x30A4;&#x30E4;&#x30FC;_76">
</g>
<g id="&#x30EC;&#x30A4;&#x30E4;&#x30FC;_77">
</g>
<g id="&#x30EC;&#x30A4;&#x30E4;&#x30FC;_78">
</g>
<g id="&#x30EC;&#x30A4;&#x30E4;&#x30FC;_79">
</g>
<g id="&#x30EC;&#x30A4;&#x30E4;&#x30FC;_80">
</g>
<g id="&#x30EC;&#x30A4;&#x30E4;&#x30FC;_81">
</g>
<g id="&#x30EC;&#x30A4;&#x30E4;&#x30FC;_82">
</g>
<g id="&#x30EC;&#x30A4;&#x30E4;&#x30FC;_83">
</g>
<g id="&#x30EC;&#x30A4;&#x30E4;&#x30FC;_84">
</g>
<g id="&#x30EC;&#x30A4;&#x30E4;&#x30FC;_85">
	<path d="M290.092,354.823c33.549-14.186,57.09-47.404,57.09-86.119c0-51.616-41.843-93.46-93.46-93.46s-93.46,41.843-93.46,93.46
		c0,39.124,24.041,72.633,58.155,86.562c-52.998,12.974-91.742,54.274-91.742,103.219v42.467c0,1.124,1.079,1.95,2.409,1.95h252.196
		c1.331,0,2.409-0.826,2.409-1.95v-42.467C383.691,408.969,344.039,367.278,290.092,354.823z"/>
	<path d="M129.491,269.899c0-37.464,16.137-73.268,41.84-96.621c-6.909-3.008-13.012-4.788-21.872-5.094
		c29.858-12.625,50.81-42.189,50.81-76.646c0-45.939-37.241-83.179-83.179-83.179c-45.939,0-83.179,37.241-83.179,83.179
		c0,34.821,21.396,64.644,51.758,77.04c-47.168,11.547-81.65,48.304-81.65,91.865v37.796c0,1,0.96,1.735,2.144,1.735h126.901
		C130.734,290.328,129.491,280.26,129.491,269.899z"/>
	<path d="M380.874,269.899c0-37.464-16.137-72.213-41.84-95.567c6.909-3.008,13.682-5.491,21.872-6.149
		c-29.858-12.625-50.81-42.189-50.81-76.646c0-45.939,37.241-83.179,83.18-83.179c45.939,0,83.179,37.241,83.179,83.179
		c0,34.821-21.396,64.644-51.758,77.04c47.168,11.547,81.65,48.304,81.65,91.865v37.796c0,1-0.96,1.735-2.144,1.735H377.301
		C379.631,290.328,380.874,280.26,380.874,269.899z"/>
</g>
</svg>
