<?xml version="1.0" encoding="utf-8"?>
<!-- Generator: Adobe Illustrator 17.1.0, SVG Export Plug-In . SVG Version: 6.00 Build 0)  -->
<!DOCTYPE svg PUBLIC "-//W3C//DTD SVG 1.1//EN" "http://www.w3.org/Graphics/SVG/1.1/DTD/svg11.dtd">
<svg version="1.1" id="svg-source" xmlns="http://www.w3.org/2000/svg" xmlns:xlink="http://www.w3.org/1999/xlink" x="0px" y="0px"
	 viewBox="80 31.9 32 32" enable-background="new 80 31.9 32 32" xml:space="preserve">
<g id="bookshelf_1_">
	<path fill="#3F95D4" d="M86,35.9h4c0.6,0,1,0.4,1,1v20c0,0.6-0.4,1-1,1h-4c-0.6,0-1-0.4-1-1v-20C85,36.3,85.4,35.9,86,35.9z"/>
	<path fill="#367FB4" d="M87,56.9v-20c0-0.6,0.4-1,1-1h-2c-0.6,0-1,0.4-1,1v20c0,0.6,0.4,1,1,1h2C87.4,57.9,87,57.4,87,56.9z"/>
	<path fill="#D99666" d="M80,57.9h32v6H80V57.9z"/>
	<path fill="#F7CB8B" d="M85,50.9h6v4h-6V50.9z"/>
	<path fill="#349886" d="M92,31.9h6c0.6,0,1,0.4,1,1v24c0,0.6-0.4,1-1,1h-6c-0.6,0-1-0.4-1-1v-24C91,32.3,91.4,31.9,92,31.9z"/>
	<path fill="#9ACCC3" d="M94,53.9h2v-14h-2V53.9z M94,35.9v2h2v-2H94z"/>
	<path fill="#E2574C" d="M100,37.9h6c0.6,0,1,0.4,1,1v18c0,0.6-0.4,1-1,1h-6c-0.6,0-1-0.4-1-1v-18C99,38.3,99.4,37.9,100,37.9z"/>
	<rect x="85" y="50.9" fill="#D2AD77" width="2" height="4"/>
	<path fill="#2C8172" d="M93,56.9v-24c0-0.6,0.4-1,1-1h-2c-0.6,0-1,0.4-1,1v24c0,0.6,0.4,1,1,1h2C93.4,57.9,93,57.4,93,56.9z"/>
	<path fill="#C04A40" d="M101,56.9v-18c0-0.6,0.4-1,1-1h-2c-0.6,0-1,0.4-1,1v18c0,0.6,0.4,1,1,1h2C101.4,57.9,101,57.4,101,56.9z"/>
	<path fill="#F7CB8B" d="M99,47.9h8v-4h-8V47.9z M99,41.9v1h8v-1H99z"/>
	<g>
		<rect x="99" y="41.9" fill="#D2AD77" width="2" height="1"/>
		<rect x="99" y="43.9" fill="#D2AD77" width="2" height="4"/>
	</g>
</g>
</svg>
