<?xml version="1.0" encoding="utf-8"?>
<!-- Generator: Adobe Illustrator 17.1.0, SVG Export Plug-In . SVG Version: 6.00 Build 0)  -->
<!DOCTYPE svg PUBLIC "-//W3C//DTD SVG 1.1//EN" "http://www.w3.org/Graphics/SVG/1.1/DTD/svg11.dtd">
<svg version="1.1" xmlns="http://www.w3.org/2000/svg" xmlns:xlink="http://www.w3.org/1999/xlink" x="0px" y="0px"
	 viewBox="0 0 512 512" style="enable-background:new 0 0 512 512;" xml:space="preserve">
<g id="レイヤー_1">
</g>
<g id="レイヤー_2">
</g>
<g id="レイヤー_3">
</g>
<g id="レイヤー_4">
</g>
<g id="レイヤー_5">
</g>
<g id="レイヤー_6">
</g>
<g id="レイヤー_7">
</g>
<g id="レイヤー_8">
</g>
<g id="レイヤー_9">
</g>
<g id="レイヤー_10">
</g>
<g id="レイヤー_11">
</g>
<g id="レイヤー_12">
</g>
<g id="レイヤー_13">
</g>
<g id="レイヤー_14">
</g>
<g id="レイヤー_15">
</g>
<g id="レイヤー_16">
</g>
<g id="レイヤー_17">
</g>
<g id="レイヤー_18">
</g>
<g id="レイヤー_19">
</g>
<g id="レイヤー_20">
</g>
<g id="レイヤー_21">
</g>
<g id="レイヤー_22">
</g>
<g id="レイヤー_23">
</g>
<g id="レイヤー_24">
</g>
<g id="レイヤー_25">
</g>
<g id="レイヤー_26">
</g>
<g id="レイヤー_27">
</g>
<g id="レイヤー_28">
</g>
<g id="レイヤー_29">
</g>
<g id="レイヤー_30">
</g>
<g id="レイヤー_31">
</g>
<g id="レイヤー_32">
</g>
<g id="レイヤー_33">
</g>
<g id="レイヤー_34">
</g>
<g id="レイヤー_35">
</g>
<g id="レイヤー_36">
</g>
<g id="レイヤー_37">
</g>
<g id="レイヤー_38">
</g>
<g id="レイヤー_39">
</g>
<g id="レイヤー_40">
</g>
<g id="レイヤー_41">
</g>
<g id="レイヤー_42">
</g>
<g id="レイヤー_43">
</g>
<g id="レイヤー_44">
</g>
<g id="レイヤー_45">
</g>
<g id="レイヤー_46">
</g>
<g id="レイヤー_47">
</g>
<g id="レイヤー_48">
</g>
<g id="レイヤー_49">
</g>
<g id="レイヤー_50">
</g>
<g id="レイヤー_51">
</g>
<g id="レイヤー_52">
</g>
<g id="レイヤー_53">
</g>
<g id="レイヤー_54">
</g>
<g id="レイヤー_55">
</g>
<g id="レイヤー_56">
</g>
<g id="レイヤー_57">
</g>
<g id="レイヤー_58">
</g>
<g id="レイヤー_59">
</g>
<g id="レイヤー_60">
</g>
<g id="レイヤー_61">
</g>
<g id="レイヤー_62">
</g>
<g id="レイヤー_63">
</g>
<g id="レイヤー_64">
</g>
<g id="レイヤー_65">
</g>
<g id="レイヤー_66">
</g>
<g id="レイヤー_67">
</g>
<g id="レイヤー_68">
</g>
<g id="レイヤー_69">
</g>
<g id="レイヤー_70">
</g>
<g id="レイヤー_71">
</g>
<g id="レイヤー_72">
</g>
<g id="レイヤー_73">
</g>
<g id="レイヤー_74">
</g>
<g id="レイヤー_75">
</g>
<g id="レイヤー_76">
</g>
<g id="レイヤー_77">
</g>
<g id="レイヤー_78">
</g>
<g id="レイヤー_79">
</g>
<g id="レイヤー_80">
</g>
<g id="レイヤー_81">
</g>
<g id="レイヤー_82">
</g>
<g id="レイヤー_83">
</g>
<g id="レイヤー_84">
</g>
<g id="レイヤー_85">
</g>
<g id="レイヤー_86">
</g>
<g id="レイヤー_87">
	<path d="M182.667,220"/>
	<path d="M361.952,40.882c-44.223,15.371-125.285,49.752-196.921,113.796C91.125,220.752,49.027,298.929,30.595,339.374
		c-21.957,25.791-17.016,70.549,12.68,103.765l37.148,41.552c5.956,6.663,14.967,8.324,20.126,3.712l104.007-95.112
		c5.159-4.612,4.513-13.752-1.443-20.415l-37.148-41.552c-6.736-7.535-13.326-14.549-19.793-20.706
		c18.152-32.352,42.282-65.593,74.155-94.088c30.127-26.934,63.962-46.759,96.788-61.348c5.326,6.987,11.45,14.183,18.059,21.575
		l37.148,41.552c5.956,6.663,14.967,8.324,20.126,3.712l106.122-92.746c5.159-4.612,4.513-13.752-1.443-20.415l-37.148-41.552
		C431.547,35.505,390.077,25.088,361.952,40.882z"/>
</g>
</svg>
