<?xml version="1.0" encoding="utf-8"?>
<!-- Generator: Adobe Illustrator 17.1.0, SVG Export Plug-In . SVG Version: 6.00 Build 0)  -->
<!DOCTYPE svg PUBLIC "-//W3C//DTD SVG 1.1//EN" "http://www.w3.org/Graphics/SVG/1.1/DTD/svg11.dtd">
<svg version="1.1" id="svg-source" xmlns="http://www.w3.org/2000/svg" xmlns:xlink="http://www.w3.org/1999/xlink" x="0px" y="0px"
	 viewBox="40 -8.1 32 32" enable-background="new 40 -8.1 32 32" xml:space="preserve">
<g id="bookmark">
	<path fill="#EFF1F1" d="M44-8.1h24c2.2,0,4,1.8,4,4v24c0,2.2-1.8,4-4,4H44c-2.2,0-4-1.8-4-4v-24C40-6.3,41.8-8.1,44-8.1z"/>
	<path fill="#EFF1F1" d="M44-5.1h24c2.2,0,4,1.8,4,4v21c0,2.2-1.8,4-4,4H44c-2.2,0-4-1.8-4-4v-21C40-3.3,41.8-5.1,44-5.1z"/>
	<path fill="#EFF1F1" d="M44-2.1h24c2.2,0,4,1.8,4,4v18c0,2.2-1.8,4-4,4H44c-2.2,0-4-1.8-4-4v-18C40-0.3,41.8-2.1,44-2.1z"/>
	<path fill="#D7D8D8" d="M68-8.1H44c-2.2,0-4,1.8-4,4v1c0-2.2,1.8-4,4-4h24c2.2,0,4,1.8,4,4v-1C72-6.3,70.2-8.1,68-8.1z"/>
	<path fill="#D7D8D8" d="M68-5.1H44c-2.2,0-4,1.8-4,4v1c0-2.2,1.8-4,4-4h24c2.2,0,4,1.8,4,4v-1C72-3.3,70.2-5.1,68-5.1z"/>
	<path fill="#D7D8D8" d="M68-2.1H44c-2.2,0-4,1.8-4,4v1c0-2.2,1.8-4,4-4h24c2.2,0,4,1.8,4,4v-1C72-0.3,70.2-2.1,68-2.1z"/>
	<path fill="#E2574C" d="M48-5.1h16v24l-8-5l-8,5C48,18.9,48-5.1,48-5.1z"/>
	<rect x="48" y="-5.1" fill="#B5463D" width="16" height="4"/>
</g>
</svg>
