<?xml version="1.0" encoding="utf-8"?>
<!-- Generator: Adobe Illustrator 17.1.0, SVG Export Plug-In . SVG Version: 6.00 Build 0)  -->
<!DOCTYPE svg PUBLIC "-//W3C//DTD SVG 1.1//EN" "http://www.w3.org/Graphics/SVG/1.1/DTD/svg11.dtd">
<svg version="1.1" id="svg-source" xmlns="http://www.w3.org/2000/svg" xmlns:xlink="http://www.w3.org/1999/xlink" x="0px" y="0px"
	 viewBox="0 31.9 32 32" enable-background="new 0 31.9 32 32" xml:space="preserve">
<g id="store">
	<path fill="#E4E7E7" d="M3,35.9h26v26H3C3,61.9,3,35.9,3,35.9z"/>
	<path fill="#CCD0D2" d="M5,33.9H27l2.1,2H3C3,35.9,5,33.9,5,33.9z"/>
	<path fill="#26A6D1" d="M5,59.9h6v-15H5V59.9z M13,59.9h6v-15h-6V59.9z M21,44.9v15h6v-15H21z"/>
	<path fill="#B6B9B9" d="M3,44.9h26v2H3V44.9z"/>
	<path fill="#E4E7E7" d="M32,41.9l-3.2-3H3.2l-3.2,3h0v2c0,0.6,0.4,1,1,1h30c0.6,0,1-0.4,1-1L32,41.9L32,41.9z"/>
	<g>
		<polygon fill="#2295BC" points="9,54.9 9,51.9 5,51.9 5,59.9 11,59.9 11,54.9 		"/>
		<rect x="13" y="54.9" fill="#2295BC" width="2" height="5"/>
		<rect x="18" y="56.9" fill="#2295BC" width="1" height="3"/>
		<polygon fill="#2295BC" points="22,51.9 22,56.9 21,56.9 21,59.9 27,59.9 27,51.9 		"/>
	</g>
	<path fill="#51BBA8" d="M7,55.9H3c-1.1,0-2,0.9-2,2v2c0,1.1,0.9,2,2,2h4c1.1,0,2-0.9,2-2v-2C9,56.8,8.1,55.9,7,55.9z M29,55.9h-4
		c-1.1,0-2,0.9-2,2v2c0,1.1,0.9,2,2,2h4c1.1,0,2-0.9,2-2v-2C31,56.8,30.1,55.9,29,55.9z"/>
	<g>
		<path fill="#419687" d="M8,60.9H4c-1.1,0-2-0.9-2-2v-2c0-0.3,0.1-0.6,0.2-0.8c-0.7,0.3-1.2,1-1.2,1.8v2c0,1.1,0.9,2,2,2h4
			c0.8,0,1.5-0.5,1.8-1.2C8.6,60.8,8.3,60.9,8,60.9z M30,60.9h-4c-1.1,0-2-0.9-2-2v-2c0-0.3,0.1-0.6,0.2-0.8c-0.7,0.3-1.2,1-1.2,1.8
			v2c0,1.1,0.9,2,2,2h4c0.8,0,1.5-0.5,1.8-1.2C30.6,60.8,30.3,60.9,30,60.9z"/>
	</g>
	<g>
		<rect x="21" y="44.9" fill="#2295BC" width="6" height="2"/>
		<rect x="5" y="44.9" fill="#2295BC" width="6" height="2"/>
		<rect x="13" y="44.9" fill="#2295BC" width="6" height="2"/>
	</g>
	<polygon fill="#C2C5C5" points="0,41.9 0,41.9 0,41.9 32,41.9 32,41.9 32,41.9 28.8,38.9 3.2,38.9 	"/>
	<polygon fill="#C2C5C5" points="0,41.9 0,41.9 0,41.9 32,41.9 32,41.9 32,41.9 28.8,38.9 3.2,38.9 	"/>
	<g>
		<polygon fill="#E2574C" points="7,41.9 8.4,38.9 6.4,38.9 5,41.9 5,44.9 7,44.9 		"/>
		<polygon fill="#E2574C" points="11,41.9 12,38.9 10,38.9 9,41.9 9,44.9 11,44.9 		"/>
		<path fill="#E2574C" d="M3,41.9l2-3H3.2l-3.2,3h0v2c0,0.6,0.4,1,1,1h2C3,44.9,3,41.9,3,41.9z M32,41.9L32,41.9l-3.2-3H27l2,3v3h2
			c0.5,0,1-0.4,1-0.9L32,41.9L32,41.9z"/>
		<rect x="13" y="38.9" fill="#E2574C" width="2" height="6"/>
		<polygon fill="#E2574C" points="27,44.9 27,41.9 25.6,38.9 23.6,38.9 25,41.9 25,44.9 		"/>
		<polygon fill="#E2574C" points="23,44.9 23,41.9 22,38.9 20,38.9 21,41.9 21,44.9 		"/>
		<rect x="17" y="38.9" fill="#E2574C" width="2" height="6"/>
	</g>
	<g>
		<polygon fill="#C04A40" points="25.6,38.9 23.6,38.9 25,41.9 27,41.9 		"/>
		<polygon fill="#C04A40" points="22,38.9 20,38.9 21,41.9 23,41.9 		"/>
		<rect x="13" y="38.9" fill="#C04A40" width="2" height="3"/>
		<polygon fill="#C04A40" points="10,38.9 9,41.9 11,41.9 12,38.9 		"/>
		<polygon fill="#C04A40" points="6.4,38.9 5,41.9 7,41.9 8.4,38.9 		"/>
		<rect x="17" y="38.9" fill="#C04A40" width="2" height="3"/>
		<polygon fill="#C04A40" points="32,41.9 32,41.9 28.8,38.9 27,38.9 29,41.9 		"/>
		<polygon fill="#C04A40" points="3.2,38.9 0,41.9 0,41.9 0,41.9 3,41.9 5,38.9 		"/>
	</g>
</g>
</svg>
