<?xml version="1.0" encoding="iso-8859-1"?>
<!-- Generator: Adobe Illustrator 17.1.0, SVG Export Plug-In . SVG Version: 6.00 Build 0)  -->
<!DOCTYPE svg PUBLIC "-//W3C//DTD SVG 1.1//EN" "http://www.w3.org/Graphics/SVG/1.1/DTD/svg11.dtd">
<svg version="1.1" id="&#x30EC;&#x30A4;&#x30E4;&#x30FC;_1"
	 xmlns="http://www.w3.org/2000/svg" xmlns:xlink="http://www.w3.org/1999/xlink" x="0px" y="0px" viewBox="0 0 1792 1792"
	 style="enable-background:new 0 0 1792 1792;" xml:space="preserve">
<path style="fill:#F39C12;" d="M1664,1663.743c0,70.834-57.423,128.257-128.257,128.257H252.257
	C181.423,1792,124,1734.577,124,1663.743V128.257C124,57.423,181.423,0,252.257,0h1283.486C1606.577,0,1664,57.423,1664,128.257
	V1663.743z"/>
<rect x="320" y="192" style="fill:#FFFFFF;" width="1152" height="1472"/>
<rect x="642" y="64" style="fill:#CCCCCC;" width="512" height="256"/>
<rect x="514" y="1408" style="fill:#1ABC9C;" width="768" height="128"/>
<path style="fill:#7F8C8D;" d="M732.263,744.058c71.507-20.496,123.889-86.363,123.889-164.456
	c0-94.475-76.562-171.063-171.038-171.063s-171.05,76.587-171.05,171.063c0,78.093,52.299,143.96,123.806,164.456
	C566.446,760.626,514,815.22,514,880.022v135.068c0,4.921,4.864,8.91,10.768,8.91h320.743c5.905,0,10.489-3.989,10.489-8.91V880.022
	C856,815.22,803.688,760.626,732.263,744.058z"/>
<rect x="510" y="1152" style="fill:#1ABC9C;" width="768" height="128"/>
<rect x="947" y="896" style="fill:#1ABC9C;" width="320" height="128"/>
<rect x="947" y="640" style="fill:#1ABC9C;" width="320" height="128"/>
</svg>
