<?xml version="1.0" encoding="utf-8"?>
<!-- Generator: Adobe Illustrator 23.0.2, SVG Export Plug-In . SVG Version: 6.00 Build 0)  -->
<svg version="1.1" id="レイヤー_1" xmlns="http://www.w3.org/2000/svg" xmlns:xlink="http://www.w3.org/1999/xlink" x="0px"
	 y="0px" viewBox="0 0 1792 1792" style="enable-background:new 0 0 1792 1792;" xml:space="preserve">
<style type="text/css">
	.st0{fill:#1ABC9C;}
	.st1{fill:#FFFFFF;}
	.st2{fill:#CCCCCC;}
	.st3{fill:#F39C12;}
	.st4{fill:#7F8C8D;}
</style>
<g>
	<path class="st0" d="M1669.4,1654.7c0,70-56.8,126.9-126.9,126.9H272.9c-70,0-126.9-56.8-126.9-126.9V135.9
		C146,65.7,202.8,9,272.9,9h1269.7c70,0,126.9,56.8,126.9,126.9L1669.4,1654.7L1669.4,1654.7z"/>
	<rect x="339.9" y="198.9" class="st1" width="1139.6" height="1456.1"/>
	<rect x="658.4" y="72.3" class="st2" width="506.5" height="253.2"/>
	<rect x="531.8" y="1284.5" class="st3" width="759.7" height="126.6"/>
	<rect x="527.8" y="1031.3" class="st3" width="759.7" height="126.6"/>
	<rect x="531.8" y="784.2" class="st3" width="759.7" height="126.6"/>
	<rect x="527.8" y="531" class="st3" width="759.7" height="126.6"/>
</g>
<g>
	<g>
		<path class="st1" d="M936.6,1053.5c102.1,0,185,82.9,185,185.1c0,84.5-56.7,155.8-134,178c77.2,17.9,133.8,76.9,133.8,147v146.2
			c0,5.3-5,9.6-11.4,9.6h-347c-6.4,0-11.7-4.3-11.7-9.6v-146.2c0-70.1,56.7-129.2,134.2-147c-77.4-22.2-133.9-93.5-133.9-178
			C751.6,1136.4,834.5,1053.5,936.6,1053.5 M936.6,991c-136.5,0-247.5,111.1-247.5,247.6c0,66.2,26.7,128,71,173.4
			c-44.5,39.3-71.3,93.3-71.3,151.6v146.2c0,39.8,33.3,72.2,74.2,72.2h347c40.7,0,73.9-32.4,73.9-72.2v-146.2
			c0-58.3-26.7-112.2-71-151.5c44.4-45.3,71.2-107.2,71.2-173.5C1184.2,1102.1,1073.1,991,936.6,991L936.6,991z"/>
		<g>
			<path class="st4" d="M987.6,1416.6c77.4-22.2,134-93.5,134-178c0-102.2-82.9-185.1-185-185.1c-102.1,0-185,82.9-185,185.1
				c0,84.5,56.6,155.8,133.9,178c-77.5,17.9-134.2,76.9-134.2,147v146.2c0,5.3,5.3,9.6,11.7,9.6h347c6.4,0,11.4-4.3,11.4-9.6v-146.2
				C1121.4,1493.5,1064.8,1434.4,987.6,1416.6z"/>
		</g>
	</g>
	<g>
		<path class="st1" d="M1421.3,1053.5c102.1,0,185,82.9,185,185.1c0,84.5-56.7,155.8-134,178c77.2,17.9,133.8,76.9,133.8,147v146.2
			c0,5.3-5,9.6-11.4,9.6h-347c-6.4,0-11.7-4.3-11.7-9.6v-146.2c0-70.1,56.7-129.2,134.2-147c-77.4-22.2-133.9-93.5-133.9-178
			C1236.3,1136.4,1319.2,1053.5,1421.3,1053.5 M1421.3,991c-136.5,0-247.5,111.1-247.5,247.6c0,66.2,26.7,128,71,173.4
			c-44.5,39.3-71.3,93.3-71.3,151.6v146.2c0,39.8,33.3,72.2,74.2,72.2h347c40.7,0,73.9-32.4,73.9-72.2v-146.2
			c0-58.3-26.7-112.2-71-151.5c44.4-45.3,71.2-107.2,71.2-173.5C1668.8,1102.1,1557.8,991,1421.3,991L1421.3,991z"/>
		<g>
			<path class="st4" d="M1472.3,1416.6c77.4-22.2,134-93.5,134-178c0-102.2-82.9-185.1-185-185.1c-102.1,0-185,82.9-185,185.1
				c0,84.5,56.6,155.8,133.9,178c-77.5,17.9-134.2,76.9-134.2,147v146.2c0,5.3,5.3,9.6,11.7,9.6h347c6.4,0,11.4-4.3,11.4-9.6v-146.2
				C1606.1,1493.5,1549.5,1434.4,1472.3,1416.6z"/>
		</g>
	</g>
</g>
<rect x="950.3" y="1547.2" class="st1" width="117.3" height="62.5"/>
<rect x="1435" y="1547.2" class="st1" width="117.3" height="62.5"/>
</svg>
