<?xml version="1.0" encoding="utf-8"?>
<!-- Generator: Adobe Illustrator 24.0.0, SVG Export Plug-In . SVG Version: 6.00 Build 0)  -->
<svg version="1.1" id="レイヤー_1" xmlns="http://www.w3.org/2000/svg" xmlns:xlink="http://www.w3.org/1999/xlink" x="0px"
	 y="0px" viewBox="0 0 1792 1792" style="enable-background:new 0 0 1792 1792;" xml:space="preserve">
<style type="text/css">
	.st0{fill:#337AB7;}
	.st1{fill:#FFFFFF;}
	.st2{fill:#CCCCCC;}
	.st3{fill:#7AB733;}
	.st4{fill:#7F8C8D;}
</style>
<path class="st0" d="M1664,1663.7c0,70.8-57.4,128.3-128.3,128.3H252.3c-70.8,0-128.3-57.4-128.3-128.3V128.3
	C124,57.4,181.4,0,252.3,0h1283.5c70.8,0,128.3,57.4,128.3,128.3V1663.7z"/>
<rect x="320" y="192" class="st1" width="1152" height="1472"/>
<rect x="642" y="64" class="st2" width="512" height="256"/>
<rect x="514" y="1408" class="st3" width="768" height="128"/>
<path class="st4" d="M732.3,744.1c71.5-20.5,123.9-86.4,123.9-164.5c0-94.5-76.6-171.1-171-171.1s-171,76.6-171,171.1
	c0,78.1,52.3,144,123.8,164.5C566.4,760.6,514,815.2,514,880v135.1c0,4.9,4.9,8.9,10.8,8.9h320.7c5.9,0,10.5-4,10.5-8.9V880
	C856,815.2,803.7,760.6,732.3,744.1z"/>
<rect x="510" y="1152" class="st3" width="768" height="128"/>
<rect x="947" y="896" class="st3" width="320" height="128"/>
<rect x="947" y="640" class="st3" width="320" height="128"/>
</svg>
