<?xml version="1.0" encoding="iso-8859-1"?>
<!-- Generator: Adobe Illustrator 17.1.0, SVG Export Plug-In . SVG Version: 6.00 Build 0)  -->
<!DOCTYPE svg PUBLIC "-//W3C//DTD SVG 1.1//EN" "http://www.w3.org/Graphics/SVG/1.1/DTD/svg11.dtd">
<svg version="1.1" id="&#x30EC;&#x30A4;&#x30E4;&#x30FC;_1"
	 xmlns="http://www.w3.org/2000/svg" xmlns:xlink="http://www.w3.org/1999/xlink" x="0px" y="0px" viewBox="0 0 1792 1792"
	 style="enable-background:new 0 0 1792 1792;" xml:space="preserve">
<path style="fill:#DB9B6B;" d="M1601.088,128H190.912C120.821,128,64,189.556,64,265.488v1042.357
	C64,1383.778,120.821,1445,190.912,1445h257.697l0.831,279.13c0.169,56.79,60.856,88.117,101.744,52.577L932.716,1445h668.372
	c70.092,0,126.912-61.222,126.912-137.155V265.488C1728,189.556,1671.179,128,1601.088,128z"/>
<path style="fill:#FFFFFF;" d="M983.406,809.855c83.733-38.925,142.492-130.096,142.492-236.361
	c0-141.658-104.417-256.494-233.222-256.494S659.455,431.836,659.455,573.494c0,107.388,60.194,199.345,145.342,237.561
	C672.527,846.648,576,959.994,576,1094.334v116.547c0,3.085,2.333,5.119,5.654,5.119h629.334c3.321,0,6.013-2.034,6.013-5.119
	v-116.547C1217,958.437,1118.035,844.029,983.406,809.855z"/>
</svg>
