<?xml version="1.0" encoding="iso-8859-1"?>
<!-- Generator: Adobe Illustrator 17.1.0, SVG Export Plug-In . SVG Version: 6.00 Build 0)  -->
<!DOCTYPE svg PUBLIC "-//W3C//DTD SVG 1.1//EN" "http://www.w3.org/Graphics/SVG/1.1/DTD/svg11.dtd">
<svg version="1.1" id="&#x30EC;&#x30A4;&#x30E4;&#x30FC;_1"
	 xmlns="http://www.w3.org/2000/svg" xmlns:xlink="http://www.w3.org/1999/xlink" x="0px" y="0px" viewBox="0 0 1792 1792"
	 style="enable-background:new 0 0 1792 1792;" xml:space="preserve">
<path style="fill:#F1C40F;" d="M1664,1663.976c0,70.706-57.318,128.024-128.024,128.024H254.024
	C183.318,1792,126,1734.682,126,1663.976V128.024C126,57.318,183.318,0,254.024,0h1281.952C1606.682,0,1664,57.318,1664,128.024
	V1663.976z"/>
<rect x="320" y="192" style="fill:#FFFFFF;" width="1152" height="1472"/>
<rect x="642" y="64" style="fill:#CCCCCC;" width="512" height="256"/>
<path style="fill:#2980B9;" d="M1215.987,448H576.013C505.314,448,448,505.314,448,576.013v639.973
	c0,70.7,57.314,128.013,128.013,128.013h63.99L640,1473.777c-0.004,51.18,58.426,80.397,99.37,49.689L949.179,1344h266.807
	c70.7,0,128.013-57.314,128.013-128.013V576.013C1344,505.314,1286.686,448,1215.987,448z"/>
<path style="fill:#FFFFFF;" d="M942.263,924.058c71.507-20.496,123.889-86.363,123.889-164.456
	c0-94.475-76.562-171.063-171.038-171.063s-171.05,76.587-171.05,171.063c0,78.093,52.299,143.96,123.806,164.456
	C776.446,940.626,724,995.22,724,1060.022v135.068c0,4.921,4.864,8.91,10.768,8.91h320.743c5.905,0,10.489-3.989,10.489-8.91
	v-135.068C1066,995.22,1013.688,940.626,942.263,924.058z"/>
</svg>
