<?xml version="1.0" encoding="iso-8859-1"?>
<!-- Generator: Adobe Illustrator 17.1.0, SVG Export Plug-In . SVG Version: 6.00 Build 0)  -->
<!DOCTYPE svg PUBLIC "-//W3C//DTD SVG 1.1//EN" "http://www.w3.org/Graphics/SVG/1.1/DTD/svg11.dtd">
<svg version="1.1" id="&#x30EC;&#x30A4;&#x30E4;&#x30FC;_1"
	 xmlns="http://www.w3.org/2000/svg" xmlns:xlink="http://www.w3.org/1999/xlink" x="0px" y="0px" viewBox="0 0 1792 1792"
	 style="enable-background:new 0 0 1792 1792;" xml:space="preserve">
<path style="fill:#DB6F6B;" d="M1216,0C980.444,0,777.92,141.401,688.661,343.949C868.962,431.286,993,613.628,993,824.429
	c0,90.819-23.03,176.353-63.656,251.287C1013.761,1124.246,1111.639,1152,1216,1152c318.116,0,576-257.884,576-576
	S1534.116,0,1216,0z"/>
<path style="fill:#6BC1DB;" d="M646.617,1218.501C794.397,1146.595,896,996.952,896,824c0-243.005-200.576-440-448-440
	S0,580.995,0,824c0,170.108,98.292,317.664,242.134,390.887C105.563,1237.24,0,1386.71,0,1567.773V1792h896v-189.139
	C896,1411.356,788.509,1252.026,646.617,1218.501z"/>
<circle style="fill:#FFFFFF;" cx="1280" cy="832" r="128"/>
<path style="fill:#FFFFFF;" d="M1408,513.28c0,69.985-56.734,126.72-126.72,126.72h-2.56c-69.985,0-126.72-56.734-126.72-126.72
	V254.72c0-69.986,56.734-126.72,126.72-126.72h2.56c69.985,0,126.72,56.734,126.72,126.72V513.28z"/>
</svg>
